<svg width="331" height="390" viewBox="0 0 331 390" fill="none" xmlns="http://www.w3.org/2000/svg">
<g filter="url(#filter0_d_90_2442)">
<path d="M97.5422 18H128.458C128.638 18 128.819 17.8097 129 17.4287C129 17.0478 128.91 16.6667 128.729 16.2858L124.932 10C124.932 10 124.842 10 124.661 10H101.339C101.158 10 101.068 10 101.068 10L97 16.2858C97 16.6667 97 17.0478 97 17.4287C97 17.8097 97.1807 18 97.5422 18Z" fill="#08FA81"/>
</g>
<g filter="url(#filter1_d_90_2442)">
<path d="M126.866 364.417H80.8253L83.5496 359.75H124.142H125.504H145.936L148.661 364.417H128.228L132.042 370.25H168.276L171 364.417H150.295L146.481 358C146.481 357.611 146.39 357.417 146.209 357.417H124.414H123.052H83.2773C83.2773 357.417 83.1865 357.611 83.0049 358L79.1908 364.417H66.9314H59.0309H54.1272H47.5889H42.685H14.0798L4.81726 344.583C4.63564 344.194 4.45398 344 4.27236 344C4.09074 344.389 4 344.778 4 345.167V365C4 365.583 4.2723 366.167 4.54473 366.167H13.8074H43.7748L51.4028 379H56.3066L48.6785 366.167H55.2169L62.845 379H67.7487L60.1207 366.167H66.6591L74.2871 379C74.2871 379 74.3778 379 74.5595 379H135.584L126.866 364.417Z" fill="#08FA81"/>
</g>
<g filter="url(#filter2_d_90_2442)">
<path d="M325.454 358H278.774C278.592 358 278.501 358 278.501 358L274.679 364.439L265.397 380.244H190.054L180.499 364.439C180.499 364.439 180.408 364.439 180.226 364.439H172.31L168.761 372.049C168.579 372.049 168.488 372.244 168.488 372.634H133L136.822 379.073H187.87L189.508 382C189.508 382 189.599 382 189.781 382H265.397C265.579 382 265.671 382 265.671 382L275.225 366.195H325.454C325.727 366.195 326 365.61 326 365.024V358.585C326 358 325.727 358 325.454 358Z" fill="#08FA81"/>
</g>
<g filter="url(#filter3_d_90_2442)">
<path d="M266.452 364H190.548C190.365 364 190.183 364.2 190 364.6C190 365 190.091 365.4 190.274 365.8L194.11 372.4C194.11 372.8 194.202 373 194.384 373H262.616C262.798 373 262.89 372.8 262.89 372.4L266.726 365.8C266.909 365.4 267 365 267 364.6C266.817 364.2 266.635 364 266.452 364Z" fill="#08FA81"/>
</g>
<g filter="url(#filter4_d_90_2442)">
<path d="M326.455 15.7845H317.185H262.382L255.02 3.50755H250.113L257.474 15.7845H251.203L243.569 3.50755H238.661L246.295 15.7845H239.752L232.39 3.50755C232.209 3.50755 232.118 3.50755 232.118 3.50755H176.77C176.588 3.50755 176.406 3.50755 176.224 3.50755L169.135 15.7845H138.599L129.329 0C129.329 0 129.238 0 129.056 0H97.7011C97.5193 0 97.4285 0 97.4285 0L88.1583 15.7845H32.265L36.0822 9.3537H67.437V7.59993H36.0822C35.9004 7.59993 35.7186 7.59993 35.5369 7.59993L30.6292 15.7845H5.54533C5.27268 15.7845 5 16.3692 5 16.9538V23.3846C5 23.9692 5.27268 24.5537 5.54533 24.5537H84.3413C84.5231 24.5537 84.7049 24.5537 84.8867 24.5537L88.7037 17.5385L97.9738 1.75377H128.783L138.326 17.5385C138.326 17.9282 138.417 18.1229 138.599 18.1229H159.865L162.592 24.5537C162.774 24.5537 162.955 24.5537 163.137 24.5537H201.581C201.763 24.5537 201.853 24.5537 201.853 24.5537L204.58 18.1229H239.752C239.934 18.1229 240.025 18.1229 240.025 18.1229H247.386H247.659H252.294H258.837H263.745H316.912L326.182 38C326.364 38 326.455 38 326.455 38C326.636 38 326.727 38 326.727 38C326.909 38 327 37.6102 327 36.8307V16.9538C327 16.3692 326.727 15.7845 326.455 15.7845Z" fill="#08FA81"/>
</g>
<g filter="url(#filter5_d_90_2442)">
<path d="M86.427 37.3424H11V73.09L14.0061 79.4324V227.613L11 233.955V339.468L16.4657 351H77.4086L81.2347 344.658H148.736L152.836 351H171.966H171.692H273.355L277.181 344.658H322V314.099L318.994 307.757V221.847L322 215.505V46.5676L314.621 31H281.007L281.28 31.5766H206.4L203.94 36.7658H160.214L157.755 31.5766H150.103L150.376 31H147.097L147.37 31.5766H89.9799L86.427 37.3424Z" fill="#163C5B"/>
</g>
<defs>
<filter id="filter0_d_90_2442" x="93" y="10" width="40" height="16" filterUnits="userSpaceOnUse" color-interpolation-filters="sRGB">
<feFlood flood-opacity="0" result="BackgroundImageFix"/>
<feColorMatrix in="SourceAlpha" type="matrix" values="0 0 0 0 0 0 0 0 0 0 0 0 0 0 0 0 0 0 127 0" result="hardAlpha"/>
<feOffset dy="4"/>
<feGaussianBlur stdDeviation="2"/>
<feComposite in2="hardAlpha" operator="out"/>
<feColorMatrix type="matrix" values="0 0 0 0 0 0 0 0 0 0 0 0 0 0 0 0 0 0 0.25 0"/>
<feBlend mode="normal" in2="BackgroundImageFix" result="effect1_dropShadow_90_2442"/>
<feBlend mode="normal" in="SourceGraphic" in2="effect1_dropShadow_90_2442" result="shape"/>
</filter>
<filter id="filter1_d_90_2442" x="0" y="344" width="175" height="43" filterUnits="userSpaceOnUse" color-interpolation-filters="sRGB">
<feFlood flood-opacity="0" result="BackgroundImageFix"/>
<feColorMatrix in="SourceAlpha" type="matrix" values="0 0 0 0 0 0 0 0 0 0 0 0 0 0 0 0 0 0 127 0" result="hardAlpha"/>
<feOffset dy="4"/>
<feGaussianBlur stdDeviation="2"/>
<feComposite in2="hardAlpha" operator="out"/>
<feColorMatrix type="matrix" values="0 0 0 0 0 0 0 0 0 0 0 0 0 0 0 0 0 0 0.25 0"/>
<feBlend mode="normal" in2="BackgroundImageFix" result="effect1_dropShadow_90_2442"/>
<feBlend mode="normal" in="SourceGraphic" in2="effect1_dropShadow_90_2442" result="shape"/>
</filter>
<filter id="filter2_d_90_2442" x="129" y="358" width="201" height="32" filterUnits="userSpaceOnUse" color-interpolation-filters="sRGB">
<feFlood flood-opacity="0" result="BackgroundImageFix"/>
<feColorMatrix in="SourceAlpha" type="matrix" values="0 0 0 0 0 0 0 0 0 0 0 0 0 0 0 0 0 0 127 0" result="hardAlpha"/>
<feOffset dy="4"/>
<feGaussianBlur stdDeviation="2"/>
<feComposite in2="hardAlpha" operator="out"/>
<feColorMatrix type="matrix" values="0 0 0 0 0 0 0 0 0 0 0 0 0 0 0 0 0 0 0.25 0"/>
<feBlend mode="normal" in2="BackgroundImageFix" result="effect1_dropShadow_90_2442"/>
<feBlend mode="normal" in="SourceGraphic" in2="effect1_dropShadow_90_2442" result="shape"/>
</filter>
<filter id="filter3_d_90_2442" x="186" y="364" width="85" height="17" filterUnits="userSpaceOnUse" color-interpolation-filters="sRGB">
<feFlood flood-opacity="0" result="BackgroundImageFix"/>
<feColorMatrix in="SourceAlpha" type="matrix" values="0 0 0 0 0 0 0 0 0 0 0 0 0 0 0 0 0 0 127 0" result="hardAlpha"/>
<feOffset dy="4"/>
<feGaussianBlur stdDeviation="2"/>
<feComposite in2="hardAlpha" operator="out"/>
<feColorMatrix type="matrix" values="0 0 0 0 0 0 0 0 0 0 0 0 0 0 0 0 0 0 0.25 0"/>
<feBlend mode="normal" in2="BackgroundImageFix" result="effect1_dropShadow_90_2442"/>
<feBlend mode="normal" in="SourceGraphic" in2="effect1_dropShadow_90_2442" result="shape"/>
</filter>
<filter id="filter4_d_90_2442" x="1" y="0" width="330" height="46" filterUnits="userSpaceOnUse" color-interpolation-filters="sRGB">
<feFlood flood-opacity="0" result="BackgroundImageFix"/>
<feColorMatrix in="SourceAlpha" type="matrix" values="0 0 0 0 0 0 0 0 0 0 0 0 0 0 0 0 0 0 127 0" result="hardAlpha"/>
<feOffset dy="4"/>
<feGaussianBlur stdDeviation="2"/>
<feComposite in2="hardAlpha" operator="out"/>
<feColorMatrix type="matrix" values="0 0 0 0 0 0 0 0 0 0 0 0 0 0 0 0 0 0 0.25 0"/>
<feBlend mode="normal" in2="BackgroundImageFix" result="effect1_dropShadow_90_2442"/>
<feBlend mode="normal" in="SourceGraphic" in2="effect1_dropShadow_90_2442" result="shape"/>
</filter>
<filter id="filter5_d_90_2442" x="7" y="31" width="319" height="328" filterUnits="userSpaceOnUse" color-interpolation-filters="sRGB">
<feFlood flood-opacity="0" result="BackgroundImageFix"/>
<feColorMatrix in="SourceAlpha" type="matrix" values="0 0 0 0 0 0 0 0 0 0 0 0 0 0 0 0 0 0 127 0" result="hardAlpha"/>
<feOffset dy="4"/>
<feGaussianBlur stdDeviation="2"/>
<feComposite in2="hardAlpha" operator="out"/>
<feColorMatrix type="matrix" values="0 0 0 0 0 0 0 0 0 0 0 0 0 0 0 0 0 0 0.25 0"/>
<feBlend mode="normal" in2="BackgroundImageFix" result="effect1_dropShadow_90_2442"/>
<feBlend mode="normal" in="SourceGraphic" in2="effect1_dropShadow_90_2442" result="shape"/>
</filter>
</defs>
</svg>
