<svg width="167" height="60" viewBox="0 0 167 60" fill="none" xmlns="http://www.w3.org/2000/svg">
<g filter="url(#filter0_d_251_202)">
<path d="M77.7702 37.5261H91.4055L93.037 39.1577H135.807V38.9246L142.567 32.1652H153.405C153.405 32.1652 153.444 32.1264 153.522 32.0487L157.367 28.2029C157.445 28.2029 157.484 28.2029 157.484 28.2029V18.6465L150.725 11.8872H88.8416L87.21 13.6353H58.8907L65.7666 25.5224L57.9583 39.1577H76.1387L77.7702 37.5261Z" fill="#163C5B"/>
</g>
<g filter="url(#filter1_d_251_202)">
<path d="M57.1425 10.4887H60.2891L57.0259 4.77819H53.7628L57.1425 10.4887Z" fill="#08FA81"/>
</g>
<g filter="url(#filter2_d_251_202)">
<path d="M60.7554 10.4887H63.5523L60.1727 4.77819H57.3757L60.7554 10.4887Z" fill="#08FA81"/>
</g>
<g filter="url(#filter3_d_251_202)">
<path d="M65.0672 44.635L63.7853 46.0335H97.582C97.6597 46.0335 97.6986 45.9946 97.6986 45.917L98.9805 44.635H65.0672Z" fill="#08FA81"/>
</g>
<g filter="url(#filter4_d_251_202)">
<path fill-rule="evenodd" clip-rule="evenodd" d="M162.728 18.8796V34.0298C162.728 34.1075 162.689 34.1464 162.612 34.1464L160.98 35.6614L159.349 37.293C159.271 37.3707 159.193 37.4095 159.116 37.4095H152.007C151.929 37.4095 151.89 37.3707 151.89 37.293L150.375 35.7779H143.965L137.089 42.5373C137.089 42.615 137.089 42.6538 137.089 42.6538L135.458 44.2854C135.458 44.2854 135.419 44.2854 135.341 44.2854H119.259C119.259 44.2854 119.22 44.2854 119.142 44.2854L117.627 42.6538H100.962L99.3303 44.2854H65.0674C64.9897 44.2854 64.9508 44.2854 64.9508 44.2854L63.2027 46.0335H53.996L56.2103 42.3042H77.4206L79.0522 40.6727C79.0522 40.595 79.0911 40.5561 79.1687 40.5561H90.007C90.0847 40.5561 90.1236 40.595 90.1236 40.6727L91.7551 42.3042H136.856L143.732 35.4283C143.81 35.3506 143.849 35.3118 143.849 35.3118H160.631V17.3646L152.007 8.74053H142.8H87.5597L85.9281 10.3721C85.9281 10.4498 85.8893 10.4886 85.8116 10.4886H64.0185L60.6388 4.77816H75.556L77.1876 3.1466C77.1876 3.06891 77.2264 3.03006 77.3041 3.03006H88.1424C88.2201 3.03006 88.2589 3.06891 88.2589 3.1466L89.8905 4.77816H102.127C102.205 4.77816 102.283 4.77816 102.36 4.77816L105.74 8.27438C105.818 8.27438 105.857 8.31323 105.857 8.39093H108.653L105.39 4.77816H107.372L110.751 8.39093H113.665L110.285 4.77816H112.383L115.646 8.39093H118.676L115.296 4.77816H117.278L120.657 8.39093H142.8L144.315 6.75937C144.393 6.68167 144.47 6.64282 144.548 6.64282H152.822C152.9 6.64282 152.939 6.68167 152.939 6.75937L154.687 8.39093L162.612 16.4322C162.689 16.4322 162.728 16.4711 162.728 16.5488V18.8796ZM136.507 42.6538H118.093L119.375 43.9358H135.225L136.507 42.6538ZM76.1387 4.66162H89.3078L88.0258 3.49621H77.4206L76.1387 4.66162Z" fill="#08FA81"/>
</g>
<g filter="url(#filter5_d_251_202)">
<path d="M153.522 32.0486C153.444 32.1263 153.405 32.1652 153.405 32.1652C153.405 32.2429 153.405 32.2817 153.405 32.2817C153.483 32.3594 153.56 32.3983 153.638 32.3983H157.484C157.601 32.3983 157.717 32.2817 157.717 32.1652V28.3193C157.717 28.2417 157.678 28.2028 157.601 28.2028C157.601 28.2028 157.562 28.2028 157.484 28.2028C157.484 28.2028 157.445 28.2028 157.367 28.2028L153.522 32.0486Z" fill="#08FA81"/>
</g>
<g filter="url(#filter6_d_251_202)">
<path fill-rule="evenodd" clip-rule="evenodd" d="M48.4019 51.0448L48.2854 51.1613H18.9172C18.8395 51.1613 18.7618 51.1225 18.6841 51.0448L14.6052 43.8192L13.7894 42.5373L12.5075 40.323L12.0413 39.3907L10.5263 36.8268L4 25.5224L9.01124 17.0149L18.6841 0.116548C18.7618 0.0388539 18.8395 0 18.9172 0H48.2854L48.4019 0.116548L53.1801 8.50748L57.6086 16.0826L62.9695 25.5224C63.0472 25.5224 63.0472 25.5612 62.9695 25.6389L58.0748 34.1464L57.9583 34.3794L56.7929 36.3607L56.6763 36.5937L54.8117 39.9734L52.0147 44.635L48.4019 51.0448ZM31.6201 48.1312L33.2517 49.8794C33.2517 49.8794 33.2905 49.8794 33.3682 49.8794H41.526C41.526 49.8794 41.5649 49.8794 41.6426 49.8794L43.1576 48.1312H46.6538L59.7064 25.6389L54.1124 15.9661L54.8117 13.7518C54.8117 13.7518 54.8117 13.7129 54.8117 13.6353L50.7327 6.64282C50.7327 6.56513 50.6939 6.52628 50.6162 6.52628L48.4019 6.06012L46.6538 3.03006H20.5487L15.0713 12.5864L12.8571 13.1691C12.7794 13.1691 12.7405 13.1691 12.7405 13.1691L8.66162 20.2781C8.66162 20.2781 8.66162 20.3169 8.66162 20.3946L9.24432 22.6089L7.61276 25.6389L20.5487 48.1312H31.6201ZM55.8605 37.4095L55.1613 34.2629L53.9959 36.2441L54.6951 39.3907L55.8605 37.4095ZM57.9583 33.9133L57.1425 30.7667L56.0936 32.7479L56.7929 35.8945L57.9583 33.9133ZM57.6086 16.6653L56.7929 19.6954L60.1725 25.5224C60.1725 25.5224 60.1725 25.5612 60.1725 25.6389L58.0748 29.2517L58.8906 32.2817L62.7364 25.5224L57.6086 16.6653ZM32.902 0.46619L30.5712 2.68045H32.7855L35.1163 0.46619H32.902ZM28.8231 0.46619L26.4923 2.68045H28.8231L31.1539 0.46619H28.8231ZM14.0225 9.43979L17.1691 8.50748L20.4322 2.797C20.5099 2.71931 20.5876 2.68045 20.6653 2.68045H24.7442L27.075 0.46619H19.2668L14.0225 9.43979ZM11.2255 37.0599L12.2744 39.0411L15.421 39.9734L14.2556 37.9922L11.2255 37.0599ZM13.2067 40.5561L14.3721 42.5373L17.5187 43.4696L16.3533 41.4884L13.2067 40.5561ZM29.5224 50.8117L27.1916 48.5974H20.5487C20.4711 48.5974 20.3934 48.5586 20.3157 48.4809L18.3345 44.9846L15.1879 44.0523L19.1503 50.8117H29.5224Z" fill="#08FA81"/>
</g>
<g filter="url(#filter7_d_251_202)">
<path d="M53.8795 15.5L54.3456 13.7519L50.3832 6.87598L48.6351 6.52633L53.8795 15.5Z" fill="#08FA81"/>
</g>
<g filter="url(#filter8_d_251_202)">
<path d="M14.6053 13.0525L12.9737 13.5187L8.89478 20.3946L9.47748 22.0261L14.6053 13.0525Z" fill="#08FA81"/>
</g>
<g filter="url(#filter9_d_251_202)">
<path d="M32.2028 48.2478L33.3682 49.5297H41.2929L42.5749 48.2478H32.2028Z" fill="#08FA81"/>
</g>
<g filter="url(#filter10_d_251_202)">
<path d="M45.1389 45.6839L56.793 25.5224L45.1389 5.47745H21.9474L10.2933 25.5224L21.9474 45.6839H45.1389Z" fill="#163C5B"/>
</g>
<defs>
<filter id="filter0_d_251_202" x="53.9583" y="11.8872" width="107.526" height="35.2705" filterUnits="userSpaceOnUse" color-interpolation-filters="sRGB">
<feFlood flood-opacity="0" result="BackgroundImageFix"/>
<feColorMatrix in="SourceAlpha" type="matrix" values="0 0 0 0 0 0 0 0 0 0 0 0 0 0 0 0 0 0 127 0" result="hardAlpha"/>
<feOffset dy="4"/>
<feGaussianBlur stdDeviation="2"/>
<feComposite in2="hardAlpha" operator="out"/>
<feColorMatrix type="matrix" values="0 0 0 0 0 0 0 0 0 0 0 0 0 0 0 0 0 0 0.25 0"/>
<feBlend mode="normal" in2="BackgroundImageFix" result="effect1_dropShadow_251_202"/>
<feBlend mode="normal" in="SourceGraphic" in2="effect1_dropShadow_251_202" result="shape"/>
</filter>
<filter id="filter1_d_251_202" x="49.7628" y="4.77819" width="14.5263" height="13.7105" filterUnits="userSpaceOnUse" color-interpolation-filters="sRGB">
<feFlood flood-opacity="0" result="BackgroundImageFix"/>
<feColorMatrix in="SourceAlpha" type="matrix" values="0 0 0 0 0 0 0 0 0 0 0 0 0 0 0 0 0 0 127 0" result="hardAlpha"/>
<feOffset dy="4"/>
<feGaussianBlur stdDeviation="2"/>
<feComposite in2="hardAlpha" operator="out"/>
<feColorMatrix type="matrix" values="0 0 0 0 0 0 0 0 0 0 0 0 0 0 0 0 0 0 0.25 0"/>
<feBlend mode="normal" in2="BackgroundImageFix" result="effect1_dropShadow_251_202"/>
<feBlend mode="normal" in="SourceGraphic" in2="effect1_dropShadow_251_202" result="shape"/>
</filter>
<filter id="filter2_d_251_202" x="53.3757" y="4.77819" width="14.1766" height="13.7105" filterUnits="userSpaceOnUse" color-interpolation-filters="sRGB">
<feFlood flood-opacity="0" result="BackgroundImageFix"/>
<feColorMatrix in="SourceAlpha" type="matrix" values="0 0 0 0 0 0 0 0 0 0 0 0 0 0 0 0 0 0 127 0" result="hardAlpha"/>
<feOffset dy="4"/>
<feGaussianBlur stdDeviation="2"/>
<feComposite in2="hardAlpha" operator="out"/>
<feColorMatrix type="matrix" values="0 0 0 0 0 0 0 0 0 0 0 0 0 0 0 0 0 0 0.25 0"/>
<feBlend mode="normal" in2="BackgroundImageFix" result="effect1_dropShadow_251_202"/>
<feBlend mode="normal" in="SourceGraphic" in2="effect1_dropShadow_251_202" result="shape"/>
</filter>
<filter id="filter3_d_251_202" x="59.7853" y="44.635" width="43.1952" height="9.39847" filterUnits="userSpaceOnUse" color-interpolation-filters="sRGB">
<feFlood flood-opacity="0" result="BackgroundImageFix"/>
<feColorMatrix in="SourceAlpha" type="matrix" values="0 0 0 0 0 0 0 0 0 0 0 0 0 0 0 0 0 0 127 0" result="hardAlpha"/>
<feOffset dy="4"/>
<feGaussianBlur stdDeviation="2"/>
<feComposite in2="hardAlpha" operator="out"/>
<feColorMatrix type="matrix" values="0 0 0 0 0 0 0 0 0 0 0 0 0 0 0 0 0 0 0.25 0"/>
<feBlend mode="normal" in2="BackgroundImageFix" result="effect1_dropShadow_251_202"/>
<feBlend mode="normal" in="SourceGraphic" in2="effect1_dropShadow_251_202" result="shape"/>
</filter>
<filter id="filter4_d_251_202" x="49.996" y="3.03006" width="116.732" height="51.0034" filterUnits="userSpaceOnUse" color-interpolation-filters="sRGB">
<feFlood flood-opacity="0" result="BackgroundImageFix"/>
<feColorMatrix in="SourceAlpha" type="matrix" values="0 0 0 0 0 0 0 0 0 0 0 0 0 0 0 0 0 0 127 0" result="hardAlpha"/>
<feOffset dy="4"/>
<feGaussianBlur stdDeviation="2"/>
<feComposite in2="hardAlpha" operator="out"/>
<feColorMatrix type="matrix" values="0 0 0 0 0 0 0 0 0 0 0 0 0 0 0 0 0 0 0.25 0"/>
<feBlend mode="normal" in2="BackgroundImageFix" result="effect1_dropShadow_251_202"/>
<feBlend mode="normal" in="SourceGraphic" in2="effect1_dropShadow_251_202" result="shape"/>
</filter>
<filter id="filter5_d_251_202" x="149.405" y="28.2028" width="12.312" height="12.1955" filterUnits="userSpaceOnUse" color-interpolation-filters="sRGB">
<feFlood flood-opacity="0" result="BackgroundImageFix"/>
<feColorMatrix in="SourceAlpha" type="matrix" values="0 0 0 0 0 0 0 0 0 0 0 0 0 0 0 0 0 0 127 0" result="hardAlpha"/>
<feOffset dy="4"/>
<feGaussianBlur stdDeviation="2"/>
<feComposite in2="hardAlpha" operator="out"/>
<feColorMatrix type="matrix" values="0 0 0 0 0 0 0 0 0 0 0 0 0 0 0 0 0 0 0.25 0"/>
<feBlend mode="normal" in2="BackgroundImageFix" result="effect1_dropShadow_251_202"/>
<feBlend mode="normal" in="SourceGraphic" in2="effect1_dropShadow_251_202" result="shape"/>
</filter>
<filter id="filter6_d_251_202" x="0" y="0" width="67.0278" height="59.1613" filterUnits="userSpaceOnUse" color-interpolation-filters="sRGB">
<feFlood flood-opacity="0" result="BackgroundImageFix"/>
<feColorMatrix in="SourceAlpha" type="matrix" values="0 0 0 0 0 0 0 0 0 0 0 0 0 0 0 0 0 0 127 0" result="hardAlpha"/>
<feOffset dy="4"/>
<feGaussianBlur stdDeviation="2"/>
<feComposite in2="hardAlpha" operator="out"/>
<feColorMatrix type="matrix" values="0 0 0 0 0 0 0 0 0 0 0 0 0 0 0 0 0 0 0.25 0"/>
<feBlend mode="normal" in2="BackgroundImageFix" result="effect1_dropShadow_251_202"/>
<feBlend mode="normal" in="SourceGraphic" in2="effect1_dropShadow_251_202" result="shape"/>
</filter>
<filter id="filter7_d_251_202" x="44.6351" y="6.52633" width="13.7105" height="16.9736" filterUnits="userSpaceOnUse" color-interpolation-filters="sRGB">
<feFlood flood-opacity="0" result="BackgroundImageFix"/>
<feColorMatrix in="SourceAlpha" type="matrix" values="0 0 0 0 0 0 0 0 0 0 0 0 0 0 0 0 0 0 127 0" result="hardAlpha"/>
<feOffset dy="4"/>
<feGaussianBlur stdDeviation="2"/>
<feComposite in2="hardAlpha" operator="out"/>
<feColorMatrix type="matrix" values="0 0 0 0 0 0 0 0 0 0 0 0 0 0 0 0 0 0 0.25 0"/>
<feBlend mode="normal" in2="BackgroundImageFix" result="effect1_dropShadow_251_202"/>
<feBlend mode="normal" in="SourceGraphic" in2="effect1_dropShadow_251_202" result="shape"/>
</filter>
<filter id="filter8_d_251_202" x="4.89478" y="13.0525" width="13.7105" height="16.9736" filterUnits="userSpaceOnUse" color-interpolation-filters="sRGB">
<feFlood flood-opacity="0" result="BackgroundImageFix"/>
<feColorMatrix in="SourceAlpha" type="matrix" values="0 0 0 0 0 0 0 0 0 0 0 0 0 0 0 0 0 0 127 0" result="hardAlpha"/>
<feOffset dy="4"/>
<feGaussianBlur stdDeviation="2"/>
<feComposite in2="hardAlpha" operator="out"/>
<feColorMatrix type="matrix" values="0 0 0 0 0 0 0 0 0 0 0 0 0 0 0 0 0 0 0.25 0"/>
<feBlend mode="normal" in2="BackgroundImageFix" result="effect1_dropShadow_251_202"/>
<feBlend mode="normal" in="SourceGraphic" in2="effect1_dropShadow_251_202" result="shape"/>
</filter>
<filter id="filter9_d_251_202" x="28.2028" y="48.2478" width="18.3721" height="9.28191" filterUnits="userSpaceOnUse" color-interpolation-filters="sRGB">
<feFlood flood-opacity="0" result="BackgroundImageFix"/>
<feColorMatrix in="SourceAlpha" type="matrix" values="0 0 0 0 0 0 0 0 0 0 0 0 0 0 0 0 0 0 127 0" result="hardAlpha"/>
<feOffset dy="4"/>
<feGaussianBlur stdDeviation="2"/>
<feComposite in2="hardAlpha" operator="out"/>
<feColorMatrix type="matrix" values="0 0 0 0 0 0 0 0 0 0 0 0 0 0 0 0 0 0 0.25 0"/>
<feBlend mode="normal" in2="BackgroundImageFix" result="effect1_dropShadow_251_202"/>
<feBlend mode="normal" in="SourceGraphic" in2="effect1_dropShadow_251_202" result="shape"/>
</filter>
<filter id="filter10_d_251_202" x="6.2933" y="5.47745" width="54.4997" height="48.2065" filterUnits="userSpaceOnUse" color-interpolation-filters="sRGB">
<feFlood flood-opacity="0" result="BackgroundImageFix"/>
<feColorMatrix in="SourceAlpha" type="matrix" values="0 0 0 0 0 0 0 0 0 0 0 0 0 0 0 0 0 0 127 0" result="hardAlpha"/>
<feOffset dy="4"/>
<feGaussianBlur stdDeviation="2"/>
<feComposite in2="hardAlpha" operator="out"/>
<feColorMatrix type="matrix" values="0 0 0 0 0 0 0 0 0 0 0 0 0 0 0 0 0 0 0.25 0"/>
<feBlend mode="normal" in2="BackgroundImageFix" result="effect1_dropShadow_251_202"/>
<feBlend mode="normal" in="SourceGraphic" in2="effect1_dropShadow_251_202" result="shape"/>
</filter>
</defs>
</svg>
