<svg width="289" height="479" viewBox="0 0 289 479" fill="none" xmlns="http://www.w3.org/2000/svg">
<path d="M99 457L99.858 301" stroke="white" stroke-width="30"/>
<path d="M192 457L191.858 267" stroke="white" stroke-width="30"/>
<g filter="url(#filter0_d_461_247)">
<ellipse cx="144.5" cy="183.5" rx="140.5" ry="134.5" fill="black"/>
<path d="M144.5 59C216.989 59 275 115.147 275 183.5C275 251.853 216.989 308 144.5 308C72.011 308 14 251.853 14 183.5C14 115.147 72.011 59 144.5 59Z" stroke="#FF0400" stroke-width="20"/>
</g>
<g filter="url(#filter1_d_461_247)">
<ellipse cx="192" cy="457.5" rx="38" ry="13.5" fill="white"/>
</g>
<g filter="url(#filter2_d_461_247)">
<ellipse cx="95" cy="457.5" rx="38" ry="13.5" fill="white"/>
</g>
<g filter="url(#filter3_d_461_247)">
<ellipse cx="102" cy="37.5" rx="24" ry="37.5" fill="#D9D9D9"/>
<path d="M102 1C108.17 1 113.895 4.90908 118.128 11.5225C122.353 18.1248 125 27.3066 125 37.5C125 47.6934 122.353 56.8752 118.128 63.4775C113.895 70.0909 108.17 74 102 74C95.8304 74 90.1047 70.0909 85.8721 63.4775C81.6466 56.8752 79 47.6934 79 37.5C79 27.3066 81.6466 18.1248 85.8721 11.5225C90.1047 4.90908 95.8304 1 102 1Z" stroke="black" stroke-width="2"/>
</g>
<g filter="url(#filter4_d_461_247)">
<ellipse cx="177" cy="37.5" rx="24" ry="37.5" fill="#D9D9D9"/>
<path d="M177 1C183.17 1 188.895 4.90908 193.128 11.5225C197.353 18.1248 200 27.3066 200 37.5C200 47.6934 197.353 56.8752 193.128 63.4775C188.895 70.0909 183.17 74 177 74C170.83 74 165.105 70.0909 160.872 63.4775C156.647 56.8752 154 47.6934 154 37.5C154 27.3066 156.647 18.1248 160.872 11.5225C165.105 4.90908 170.83 1 177 1Z" stroke="black" stroke-width="2"/>
</g>
<g filter="url(#filter5_d_461_247)">
<ellipse cx="177" cy="37.5" rx="15" ry="22.5" fill="black"/>
</g>
<g filter="url(#filter6_d_461_247)">
<ellipse cx="102" cy="40.5" rx="15" ry="22.5" fill="black"/>
</g>
<defs>
<filter id="filter0_d_461_247" x="0" y="49" width="289" height="277" filterUnits="userSpaceOnUse" color-interpolation-filters="sRGB">
<feFlood flood-opacity="0" result="BackgroundImageFix"/>
<feColorMatrix in="SourceAlpha" type="matrix" values="0 0 0 0 0 0 0 0 0 0 0 0 0 0 0 0 0 0 127 0" result="hardAlpha"/>
<feOffset dy="4"/>
<feGaussianBlur stdDeviation="2"/>
<feComposite in2="hardAlpha" operator="out"/>
<feColorMatrix type="matrix" values="0 0 0 0 0 0 0 0 0 0 0 0 0 0 0 0 0 0 0.25 0"/>
<feBlend mode="normal" in2="BackgroundImageFix" result="effect1_dropShadow_461_247"/>
<feBlend mode="normal" in="SourceGraphic" in2="effect1_dropShadow_461_247" result="shape"/>
</filter>
<filter id="filter1_d_461_247" x="150" y="444" width="84" height="35" filterUnits="userSpaceOnUse" color-interpolation-filters="sRGB">
<feFlood flood-opacity="0" result="BackgroundImageFix"/>
<feColorMatrix in="SourceAlpha" type="matrix" values="0 0 0 0 0 0 0 0 0 0 0 0 0 0 0 0 0 0 127 0" result="hardAlpha"/>
<feOffset dy="4"/>
<feGaussianBlur stdDeviation="2"/>
<feComposite in2="hardAlpha" operator="out"/>
<feColorMatrix type="matrix" values="0 0 0 0 0 0 0 0 0 0 0 0 0 0 0 0 0 0 0.25 0"/>
<feBlend mode="normal" in2="BackgroundImageFix" result="effect1_dropShadow_461_247"/>
<feBlend mode="normal" in="SourceGraphic" in2="effect1_dropShadow_461_247" result="shape"/>
</filter>
<filter id="filter2_d_461_247" x="53" y="444" width="84" height="35" filterUnits="userSpaceOnUse" color-interpolation-filters="sRGB">
<feFlood flood-opacity="0" result="BackgroundImageFix"/>
<feColorMatrix in="SourceAlpha" type="matrix" values="0 0 0 0 0 0 0 0 0 0 0 0 0 0 0 0 0 0 127 0" result="hardAlpha"/>
<feOffset dy="4"/>
<feGaussianBlur stdDeviation="2"/>
<feComposite in2="hardAlpha" operator="out"/>
<feColorMatrix type="matrix" values="0 0 0 0 0 0 0 0 0 0 0 0 0 0 0 0 0 0 0.25 0"/>
<feBlend mode="normal" in2="BackgroundImageFix" result="effect1_dropShadow_461_247"/>
<feBlend mode="normal" in="SourceGraphic" in2="effect1_dropShadow_461_247" result="shape"/>
</filter>
<filter id="filter3_d_461_247" x="74" y="0" width="56" height="83" filterUnits="userSpaceOnUse" color-interpolation-filters="sRGB">
<feFlood flood-opacity="0" result="BackgroundImageFix"/>
<feColorMatrix in="SourceAlpha" type="matrix" values="0 0 0 0 0 0 0 0 0 0 0 0 0 0 0 0 0 0 127 0" result="hardAlpha"/>
<feOffset dy="4"/>
<feGaussianBlur stdDeviation="2"/>
<feComposite in2="hardAlpha" operator="out"/>
<feColorMatrix type="matrix" values="0 0 0 0 0 0 0 0 0 0 0 0 0 0 0 0 0 0 0.25 0"/>
<feBlend mode="normal" in2="BackgroundImageFix" result="effect1_dropShadow_461_247"/>
<feBlend mode="normal" in="SourceGraphic" in2="effect1_dropShadow_461_247" result="shape"/>
</filter>
<filter id="filter4_d_461_247" x="149" y="0" width="56" height="83" filterUnits="userSpaceOnUse" color-interpolation-filters="sRGB">
<feFlood flood-opacity="0" result="BackgroundImageFix"/>
<feColorMatrix in="SourceAlpha" type="matrix" values="0 0 0 0 0 0 0 0 0 0 0 0 0 0 0 0 0 0 127 0" result="hardAlpha"/>
<feOffset dy="4"/>
<feGaussianBlur stdDeviation="2"/>
<feComposite in2="hardAlpha" operator="out"/>
<feColorMatrix type="matrix" values="0 0 0 0 0 0 0 0 0 0 0 0 0 0 0 0 0 0 0.25 0"/>
<feBlend mode="normal" in2="BackgroundImageFix" result="effect1_dropShadow_461_247"/>
<feBlend mode="normal" in="SourceGraphic" in2="effect1_dropShadow_461_247" result="shape"/>
</filter>
<filter id="filter5_d_461_247" x="158" y="15" width="38" height="53" filterUnits="userSpaceOnUse" color-interpolation-filters="sRGB">
<feFlood flood-opacity="0" result="BackgroundImageFix"/>
<feColorMatrix in="SourceAlpha" type="matrix" values="0 0 0 0 0 0 0 0 0 0 0 0 0 0 0 0 0 0 127 0" result="hardAlpha"/>
<feOffset dy="4"/>
<feGaussianBlur stdDeviation="2"/>
<feComposite in2="hardAlpha" operator="out"/>
<feColorMatrix type="matrix" values="0 0 0 0 0 0 0 0 0 0 0 0 0 0 0 0 0 0 0.25 0"/>
<feBlend mode="normal" in2="BackgroundImageFix" result="effect1_dropShadow_461_247"/>
<feBlend mode="normal" in="SourceGraphic" in2="effect1_dropShadow_461_247" result="shape"/>
</filter>
<filter id="filter6_d_461_247" x="83" y="18" width="38" height="53" filterUnits="userSpaceOnUse" color-interpolation-filters="sRGB">
<feFlood flood-opacity="0" result="BackgroundImageFix"/>
<feColorMatrix in="SourceAlpha" type="matrix" values="0 0 0 0 0 0 0 0 0 0 0 0 0 0 0 0 0 0 127 0" result="hardAlpha"/>
<feOffset dy="4"/>
<feGaussianBlur stdDeviation="2"/>
<feComposite in2="hardAlpha" operator="out"/>
<feColorMatrix type="matrix" values="0 0 0 0 0 0 0 0 0 0 0 0 0 0 0 0 0 0 0.25 0"/>
<feBlend mode="normal" in2="BackgroundImageFix" result="effect1_dropShadow_461_247"/>
<feBlend mode="normal" in="SourceGraphic" in2="effect1_dropShadow_461_247" result="shape"/>
</filter>
</defs>
</svg>
