<svg width="55" height="61" viewBox="0 0 55 61" fill="none" xmlns="http://www.w3.org/2000/svg">
<g filter="url(#filter0_f_484_1448)">
<circle cx="27.4082" cy="26.5" r="17.5" fill="#1AEF0B"/>
</g>
<g filter="url(#filter1_d_484_1448)">
<mask id="path-2-inside-1_484_1448" fill="white">
<path fill-rule="evenodd" clip-rule="evenodd" d="M37.6175 44.1138L41.2576 45.1717L27.4466 53L4.96371 40.1996L8.60383 39.1417H8.71087L12.7792 41.4691L13.2075 43.1617C13.2075 43.1617 13.2075 43.197 13.2075 43.2675L15.7769 44.7485C15.8483 44.7485 15.884 44.7485 15.884 44.7485C15.9554 44.7485 15.991 44.7485 15.991 44.7485L17.597 44.2196L22.3077 46.8643L23.8065 46.4411C23.8065 46.4411 23.8422 46.4411 23.9136 46.4411L27.4466 48.5569L29.0526 47.6048L32.0503 45.9122C32.1217 45.9122 32.1574 45.9122 32.1574 45.9122L33.6562 46.3353L37.6175 44.1138ZM22.7359 47.1816L27.4466 49.9321L33.228 46.6527L32.1574 46.3353L27.6608 48.8743C27.5894 48.9448 27.5537 48.98 27.5537 48.98C27.5537 48.98 27.518 48.98 27.4466 48.98V48.8743C27.3753 48.8743 27.3396 48.8743 27.3396 48.8743L23.8065 46.8643L22.7359 47.1816Z"/>
<path d="M13.5284 42.9501L15.9908 44.3254L17.1686 44.008L13.2073 41.6807L13.5284 42.9501Z"/>
<path d="M39.2233 43.1617L42.8634 44.2196L44.1481 43.479L40.6151 42.4211L39.2233 43.1617Z"/>
<path d="M42.221 41.4691L45.754 42.527L47.1458 41.7864L43.5057 40.7286L42.221 41.4691Z"/>
<path d="M45.1118 39.8822L48.7519 40.9401L50.0366 40.1996L46.3966 39.1417L45.1118 39.8822Z"/>
<path fill-rule="evenodd" clip-rule="evenodd" d="M6.78377 25.9182L4.00013 28.5629V12.8004H4.10723L26.4831 0L25.6266 3.5968L21.4512 5.92414L19.8453 5.501C19.7739 5.501 19.7382 5.501 19.7382 5.501L17.0617 6.98203C17.0617 6.98203 17.0617 7.0173 17.0617 7.08782L16.6334 8.67465L12.0297 11.3194L11.6015 12.9062C11.6015 12.9062 11.5658 12.9415 11.4944 13.012L7.96142 15.022V20.2056C7.96142 20.2761 7.92576 20.3466 7.85439 20.4172L6.78377 21.4751V25.9182ZM11.6015 11.5309L6.78377 14.2814V20.8403L7.53322 20.0998V14.9162C7.53322 14.8456 7.56888 14.8104 7.64025 14.8104V14.7046C7.64025 14.7046 7.67591 14.7046 7.74729 14.7046L11.2804 12.6946L11.6015 11.5309Z"/>
<path d="M19.8452 5.81836L17.3827 7.19361L17.0616 8.46307L21.0229 6.24151L19.8452 5.81836Z"/>
<path d="M6.78364 27.8224L4 30.3613V31.8423L6.78364 29.3034V27.8224Z"/>
<path d="M6.78364 31.1018L4 33.6407V35.1217L6.78364 32.5828V31.1018Z"/>
<path d="M6.78364 34.487L4 37.026V38.507L6.78364 35.9681V34.487Z"/>
<path fill-rule="evenodd" clip-rule="evenodd" d="M51 12.8004V38.507L48.2164 35.9681V31.2076L49.5011 30.0439C49.5725 29.9734 49.6082 29.9029 49.6082 29.8323V26.976C49.6082 26.9055 49.5725 26.835 49.5011 26.7645L48.2164 25.6008V20.3114L47.1458 19.2535C47.0744 19.2535 47.0387 19.2182 47.0387 19.1477V15.022L42.5421 12.483C42.4707 12.4125 42.4351 12.3772 42.4351 12.3772L42.0068 10.7904L38.0456 8.56885L37.189 4.97205L51 12.8004ZM48.3235 19.7824V14.3872L42.5421 11.002L42.7562 12.1657L47.3599 14.7046C47.4313 14.7751 47.467 14.8104 47.467 14.8104V14.9162C47.467 14.9162 47.467 14.9514 47.467 15.022V19.0419L48.3235 19.7824Z"/>
<path d="M49.1801 29.8324V26.9761L48.2166 26.1298V30.6787L49.1801 29.8324Z"/>
<path d="M36.4397 7.61676L35.5831 4.01996L34.2985 3.27943L35.1549 6.87624L36.4397 7.61676Z"/>
<path d="M33.5491 6.02993L32.6926 2.32734L31.4079 1.58682L32.2644 5.28942L33.5491 6.02993Z"/>
<path d="M30.6583 4.33732L29.8018 0.740516L28.517 0L29.3735 3.5968L30.6583 4.33732Z"/>
</mask>
<path fill-rule="evenodd" clip-rule="evenodd" d="M37.6175 44.1138L41.2576 45.1717L27.4466 53L4.96371 40.1996L8.60383 39.1417H8.71087L12.7792 41.4691L13.2075 43.1617C13.2075 43.1617 13.2075 43.197 13.2075 43.2675L15.7769 44.7485C15.8483 44.7485 15.884 44.7485 15.884 44.7485C15.9554 44.7485 15.991 44.7485 15.991 44.7485L17.597 44.2196L22.3077 46.8643L23.8065 46.4411C23.8065 46.4411 23.8422 46.4411 23.9136 46.4411L27.4466 48.5569L29.0526 47.6048L32.0503 45.9122C32.1217 45.9122 32.1574 45.9122 32.1574 45.9122L33.6562 46.3353L37.6175 44.1138ZM22.7359 47.1816L27.4466 49.9321L33.228 46.6527L32.1574 46.3353L27.6608 48.8743C27.5894 48.9448 27.5537 48.98 27.5537 48.98C27.5537 48.98 27.518 48.98 27.4466 48.98V48.8743C27.3753 48.8743 27.3396 48.8743 27.3396 48.8743L23.8065 46.8643L22.7359 47.1816Z" fill="#08FA81"/>
<path d="M13.5284 42.9501L15.9908 44.3254L17.1686 44.008L13.2073 41.6807L13.5284 42.9501Z" fill="#08FA81"/>
<path d="M39.2233 43.1617L42.8634 44.2196L44.1481 43.479L40.6151 42.4211L39.2233 43.1617Z" fill="#08FA81"/>
<path d="M42.221 41.4691L45.754 42.527L47.1458 41.7864L43.5057 40.7286L42.221 41.4691Z" fill="#08FA81"/>
<path d="M45.1118 39.8822L48.7519 40.9401L50.0366 40.1996L46.3966 39.1417L45.1118 39.8822Z" fill="#08FA81"/>
<path fill-rule="evenodd" clip-rule="evenodd" d="M6.78377 25.9182L4.00013 28.5629V12.8004H4.10723L26.4831 0L25.6266 3.5968L21.4512 5.92414L19.8453 5.501C19.7739 5.501 19.7382 5.501 19.7382 5.501L17.0617 6.98203C17.0617 6.98203 17.0617 7.0173 17.0617 7.08782L16.6334 8.67465L12.0297 11.3194L11.6015 12.9062C11.6015 12.9062 11.5658 12.9415 11.4944 13.012L7.96142 15.022V20.2056C7.96142 20.2761 7.92576 20.3466 7.85439 20.4172L6.78377 21.4751V25.9182ZM11.6015 11.5309L6.78377 14.2814V20.8403L7.53322 20.0998V14.9162C7.53322 14.8456 7.56888 14.8104 7.64025 14.8104V14.7046C7.64025 14.7046 7.67591 14.7046 7.74729 14.7046L11.2804 12.6946L11.6015 11.5309Z" fill="#08FA81"/>
<path d="M19.8452 5.81836L17.3827 7.19361L17.0616 8.46307L21.0229 6.24151L19.8452 5.81836Z" fill="#08FA81"/>
<path d="M6.78364 27.8224L4 30.3613V31.8423L6.78364 29.3034V27.8224Z" fill="#08FA81"/>
<path d="M6.78364 31.1018L4 33.6407V35.1217L6.78364 32.5828V31.1018Z" fill="#08FA81"/>
<path d="M6.78364 34.487L4 37.026V38.507L6.78364 35.9681V34.487Z" fill="#08FA81"/>
<path fill-rule="evenodd" clip-rule="evenodd" d="M51 12.8004V38.507L48.2164 35.9681V31.2076L49.5011 30.0439C49.5725 29.9734 49.6082 29.9029 49.6082 29.8323V26.976C49.6082 26.9055 49.5725 26.835 49.5011 26.7645L48.2164 25.6008V20.3114L47.1458 19.2535C47.0744 19.2535 47.0387 19.2182 47.0387 19.1477V15.022L42.5421 12.483C42.4707 12.4125 42.4351 12.3772 42.4351 12.3772L42.0068 10.7904L38.0456 8.56885L37.189 4.97205L51 12.8004ZM48.3235 19.7824V14.3872L42.5421 11.002L42.7562 12.1657L47.3599 14.7046C47.4313 14.7751 47.467 14.8104 47.467 14.8104V14.9162C47.467 14.9162 47.467 14.9514 47.467 15.022V19.0419L48.3235 19.7824Z" fill="#08FA81"/>
<path d="M49.1801 29.8324V26.9761L48.2166 26.1298V30.6787L49.1801 29.8324Z" fill="#08FA81"/>
<path d="M36.4397 7.61676L35.5831 4.01996L34.2985 3.27943L35.1549 6.87624L36.4397 7.61676Z" fill="#08FA81"/>
<path d="M33.5491 6.02993L32.6926 2.32734L31.4079 1.58682L32.2644 5.28942L33.5491 6.02993Z" fill="#08FA81"/>
<path d="M30.6583 4.33732L29.8018 0.740516L28.517 0L29.3735 3.5968L30.6583 4.33732Z" fill="#08FA81"/>
<path fill-rule="evenodd" clip-rule="evenodd" d="M37.6175 44.1138L41.2576 45.1717L27.4466 53L4.96371 40.1996L8.60383 39.1417H8.71087L12.7792 41.4691L13.2075 43.1617C13.2075 43.1617 13.2075 43.197 13.2075 43.2675L15.7769 44.7485C15.8483 44.7485 15.884 44.7485 15.884 44.7485C15.9554 44.7485 15.991 44.7485 15.991 44.7485L17.597 44.2196L22.3077 46.8643L23.8065 46.4411C23.8065 46.4411 23.8422 46.4411 23.9136 46.4411L27.4466 48.5569L29.0526 47.6048L32.0503 45.9122C32.1217 45.9122 32.1574 45.9122 32.1574 45.9122L33.6562 46.3353L37.6175 44.1138ZM22.7359 47.1816L27.4466 49.9321L33.228 46.6527L32.1574 46.3353L27.6608 48.8743C27.5894 48.9448 27.5537 48.98 27.5537 48.98C27.5537 48.98 27.518 48.98 27.4466 48.98V48.8743C27.3753 48.8743 27.3396 48.8743 27.3396 48.8743L23.8065 46.8643L22.7359 47.1816Z" stroke="#1AEF0B" mask="url(#path-2-inside-1_484_1448)"/>
<path d="M13.5284 42.9501L15.9908 44.3254L17.1686 44.008L13.2073 41.6807L13.5284 42.9501Z" stroke="#1AEF0B" mask="url(#path-2-inside-1_484_1448)"/>
<path d="M39.2233 43.1617L42.8634 44.2196L44.1481 43.479L40.6151 42.4211L39.2233 43.1617Z" stroke="#1AEF0B" mask="url(#path-2-inside-1_484_1448)"/>
<path d="M42.221 41.4691L45.754 42.527L47.1458 41.7864L43.5057 40.7286L42.221 41.4691Z" stroke="#1AEF0B" mask="url(#path-2-inside-1_484_1448)"/>
<path d="M45.1118 39.8822L48.7519 40.9401L50.0366 40.1996L46.3966 39.1417L45.1118 39.8822Z" stroke="#1AEF0B" mask="url(#path-2-inside-1_484_1448)"/>
<path fill-rule="evenodd" clip-rule="evenodd" d="M6.78377 25.9182L4.00013 28.5629V12.8004H4.10723L26.4831 0L25.6266 3.5968L21.4512 5.92414L19.8453 5.501C19.7739 5.501 19.7382 5.501 19.7382 5.501L17.0617 6.98203C17.0617 6.98203 17.0617 7.0173 17.0617 7.08782L16.6334 8.67465L12.0297 11.3194L11.6015 12.9062C11.6015 12.9062 11.5658 12.9415 11.4944 13.012L7.96142 15.022V20.2056C7.96142 20.2761 7.92576 20.3466 7.85439 20.4172L6.78377 21.4751V25.9182ZM11.6015 11.5309L6.78377 14.2814V20.8403L7.53322 20.0998V14.9162C7.53322 14.8456 7.56888 14.8104 7.64025 14.8104V14.7046C7.64025 14.7046 7.67591 14.7046 7.74729 14.7046L11.2804 12.6946L11.6015 11.5309Z" stroke="#1AEF0B" mask="url(#path-2-inside-1_484_1448)"/>
<path d="M19.8452 5.81836L17.3827 7.19361L17.0616 8.46307L21.0229 6.24151L19.8452 5.81836Z" stroke="#1AEF0B" mask="url(#path-2-inside-1_484_1448)"/>
<path d="M6.78364 27.8224L4 30.3613V31.8423L6.78364 29.3034V27.8224Z" stroke="#1AEF0B" mask="url(#path-2-inside-1_484_1448)"/>
<path d="M6.78364 31.1018L4 33.6407V35.1217L6.78364 32.5828V31.1018Z" stroke="#1AEF0B" mask="url(#path-2-inside-1_484_1448)"/>
<path d="M6.78364 34.487L4 37.026V38.507L6.78364 35.9681V34.487Z" stroke="#1AEF0B" mask="url(#path-2-inside-1_484_1448)"/>
<path fill-rule="evenodd" clip-rule="evenodd" d="M51 12.8004V38.507L48.2164 35.9681V31.2076L49.5011 30.0439C49.5725 29.9734 49.6082 29.9029 49.6082 29.8323V26.976C49.6082 26.9055 49.5725 26.835 49.5011 26.7645L48.2164 25.6008V20.3114L47.1458 19.2535C47.0744 19.2535 47.0387 19.2182 47.0387 19.1477V15.022L42.5421 12.483C42.4707 12.4125 42.4351 12.3772 42.4351 12.3772L42.0068 10.7904L38.0456 8.56885L37.189 4.97205L51 12.8004ZM48.3235 19.7824V14.3872L42.5421 11.002L42.7562 12.1657L47.3599 14.7046C47.4313 14.7751 47.467 14.8104 47.467 14.8104V14.9162C47.467 14.9162 47.467 14.9514 47.467 15.022V19.0419L48.3235 19.7824Z" stroke="#1AEF0B" mask="url(#path-2-inside-1_484_1448)"/>
<path d="M49.1801 29.8324V26.9761L48.2166 26.1298V30.6787L49.1801 29.8324Z" stroke="#1AEF0B" mask="url(#path-2-inside-1_484_1448)"/>
<path d="M36.4397 7.61676L35.5831 4.01996L34.2985 3.27943L35.1549 6.87624L36.4397 7.61676Z" stroke="#1AEF0B" mask="url(#path-2-inside-1_484_1448)"/>
<path d="M33.5491 6.02993L32.6926 2.32734L31.4079 1.58682L32.2644 5.28942L33.5491 6.02993Z" stroke="#1AEF0B" mask="url(#path-2-inside-1_484_1448)"/>
<path d="M30.6583 4.33732L29.8018 0.740516L28.517 0L29.3735 3.5968L30.6583 4.33732Z" stroke="#1AEF0B" mask="url(#path-2-inside-1_484_1448)"/>
</g>
<g filter="url(#filter2_n_484_1448)">
<circle cx="27.4082" cy="26.5" r="16.5" fill="#08FA81"/>
</g>
<defs>
<filter id="filter0_f_484_1448" x="5.9082" y="5" width="43" height="43" filterUnits="userSpaceOnUse" color-interpolation-filters="sRGB">
<feFlood flood-opacity="0" result="BackgroundImageFix"/>
<feBlend mode="normal" in="SourceGraphic" in2="BackgroundImageFix" result="shape"/>
<feGaussianBlur stdDeviation="2" result="effect1_foregroundBlur_484_1448"/>
</filter>
<filter id="filter1_d_484_1448" x="0" y="0" width="55" height="61" filterUnits="userSpaceOnUse" color-interpolation-filters="sRGB">
<feFlood flood-opacity="0" result="BackgroundImageFix"/>
<feColorMatrix in="SourceAlpha" type="matrix" values="0 0 0 0 0 0 0 0 0 0 0 0 0 0 0 0 0 0 127 0" result="hardAlpha"/>
<feOffset dy="4"/>
<feGaussianBlur stdDeviation="2"/>
<feComposite in2="hardAlpha" operator="out"/>
<feColorMatrix type="matrix" values="0 0 0 0 0 0 0 0 0 0 0 0 0 0 0 0 0 0 0.25 0"/>
<feBlend mode="normal" in2="BackgroundImageFix" result="effect1_dropShadow_484_1448"/>
<feBlend mode="normal" in="SourceGraphic" in2="effect1_dropShadow_484_1448" result="shape"/>
</filter>
<filter id="filter2_n_484_1448" x="10.9082" y="10" width="33" height="33" filterUnits="userSpaceOnUse" color-interpolation-filters="sRGB">
<feFlood flood-opacity="0" result="BackgroundImageFix"/>
<feBlend mode="normal" in="SourceGraphic" in2="BackgroundImageFix" result="shape"/>
<feTurbulence type="fractalNoise" baseFrequency="2 2" stitchTiles="stitch" numOctaves="3" result="noise" seed="3113" />
<feColorMatrix in="noise" type="luminanceToAlpha" result="alphaNoise" />
<feComponentTransfer in="alphaNoise" result="coloredNoise1">
<feFuncA type="discrete" tableValues="1 1 1 1 1 1 1 1 1 1 1 1 1 1 1 1 1 1 1 1 1 1 1 1 1 1 1 1 1 1 1 1 1 1 1 1 1 1 1 1 1 1 1 1 1 1 1 1 1 1 1 0 0 0 0 0 0 0 0 0 0 0 0 0 0 0 0 0 0 0 0 0 0 0 0 0 0 0 0 0 0 0 0 0 0 0 0 0 0 0 0 0 0 0 0 0 0 0 0 0 "/>
</feComponentTransfer>
<feComposite operator="in" in2="shape" in="coloredNoise1" result="noise1Clipped" />
<feFlood flood-color="rgba(0, 0, 0, 0.25)" result="color1Flood" />
<feComposite operator="in" in2="noise1Clipped" in="color1Flood" result="color1" />
<feMerge result="effect1_noise_484_1448">
<feMergeNode in="shape" />
<feMergeNode in="color1" />
</feMerge>
</filter>
</defs>
</svg>
