<svg width="998" height="385" viewBox="0 0 998 385" fill="none" xmlns="http://www.w3.org/2000/svg">
<rect x="10" y="60" width="978" height="145" fill="black" stroke="#FF0400" stroke-width="20"/>
<path d="M433 371L433.858 215" stroke="white" stroke-width="30"/>
<path d="M533 371L533.858 215" stroke="white" stroke-width="30"/>
<ellipse cx="435" cy="371.5" rx="42" ry="13.5" fill="white"/>
<ellipse cx="538.5" cy="371.5" rx="39.5" ry="13.5" fill="white"/>
<path d="M447 1C453.17 1 458.895 4.90908 463.128 11.5225C467.353 18.1248 470 27.3066 470 37.5C470 47.6934 467.353 56.8752 463.128 63.4775C458.895 70.0909 453.17 74 447 74C440.83 74 435.105 70.0909 430.872 63.4775C426.647 56.8752 424 47.6934 424 37.5C424 27.3066 426.647 18.1248 430.872 11.5225C435.105 4.90908 440.83 1 447 1Z" fill="#D9D9D9" stroke="black" stroke-width="2"/>
<path d="M533 1C539.17 1 544.895 4.90908 549.128 11.5225C553.353 18.1248 556 27.3066 556 37.5C556 47.6934 553.353 56.8752 549.128 63.4775C544.895 70.0909 539.17 74 533 74C526.83 74 521.105 70.0909 516.872 63.4775C512.647 56.8752 510 47.6934 510 37.5C510 27.3066 512.647 18.1248 516.872 11.5225C521.105 4.90908 526.83 1 533 1Z" fill="#D9D9D9" stroke="black" stroke-width="2"/>
<ellipse cx="448" cy="39.5" rx="15" ry="22.5" fill="black"/>
<ellipse cx="533" cy="39.5" rx="15" ry="22.5" fill="black"/>
</svg>
