<svg width="59" height="58" viewBox="0 0 59 58" fill="none" xmlns="http://www.w3.org/2000/svg">
<g filter="url(#filter0_d_154_3939)">
<path d="M35.3745 48.5163L35.2695 48.2013C38.1049 47.4662 40.8353 46.101 43.1456 44.3158L43.3556 44.6308C40.9403 46.4161 38.2099 47.7812 35.3745 48.5163Z" fill="#08FA81"/>
</g>
<g filter="url(#filter1_d_154_3939)">
<path d="M43.3557 44.6309L43.1456 44.3158C44.6158 43.2657 45.946 42.0055 47.1361 40.5353C47.1361 40.5353 47.1711 40.5353 47.2411 40.5353C47.8012 40.5353 48.3263 40.5703 48.8163 40.6404C51.1266 37.595 52.7019 34.1295 53.437 30.559C54.172 26.7785 54.067 22.998 53.1219 19.3226C52.1768 15.7521 50.3915 12.2866 47.9762 9.45125C45.4559 6.61588 42.4105 4.30559 38.9451 2.8354L39.0501 2.52036C42.6205 3.99055 45.7709 6.30084 48.1863 9.24123C50.7066 12.0766 52.4918 15.5421 53.437 19.2175C54.3821 22.893 54.4871 26.8835 53.752 30.559C53.0169 34.3395 51.4417 37.91 49.0264 40.8504C49.0264 40.9204 48.9914 40.9554 48.9214 40.9554C48.4313 40.9554 47.9062 40.9204 47.3462 40.8504C46.156 42.2506 44.8259 43.5107 43.3557 44.6309Z" fill="#08FA81"/>
</g>
<g filter="url(#filter2_d_154_3939)">
<path d="M45.981 10.5014C47.7662 12.4966 49.2364 14.807 50.1815 17.4323C51.2316 19.9526 51.7567 22.683 51.7567 25.4133C52.1768 25.7284 52.5968 25.9384 52.9118 26.1484C53.2269 26.4635 53.6469 26.6735 54.067 27.0936C54.277 23.5231 53.6469 19.8476 52.3868 16.5922C51.1266 13.2317 49.1314 10.1863 46.506 7.66602C46.401 8.2961 46.401 8.71616 46.296 9.13622C46.191 9.55627 46.086 9.97631 45.981 10.5014Z" fill="#08FA81"/>
</g>
<g filter="url(#filter3_d_154_3939)">
<path fill-rule="evenodd" clip-rule="evenodd" d="M54.0668 27.1986C53.9968 27.1986 53.9618 27.1986 53.9618 27.1986C53.4367 26.7785 53.1217 26.5685 52.8067 26.3584C52.4916 26.1484 52.1766 25.8334 51.6515 25.5183C51.5815 25.5183 51.5465 25.4833 51.5465 25.4133C51.5465 22.683 51.0214 19.9526 50.0763 17.4323C49.1312 14.9119 47.661 12.6016 45.8757 10.6064C45.8057 10.5364 45.7708 10.4664 45.7708 10.3964C45.8758 9.9763 45.9808 9.55625 46.0858 9.03118C46.1908 8.61112 46.2958 8.19106 46.2958 7.66599C46.3658 7.59599 46.4359 7.56099 46.5059 7.56099C46.5759 7.49098 46.6108 7.49098 46.6108 7.56099C49.2362 10.0813 51.2315 13.1267 52.5966 16.4872C53.8568 19.8476 54.3819 23.5231 54.1719 27.0935C54.1719 27.1635 54.1368 27.1986 54.0668 27.1986ZM51.9665 25.3083C52.3866 25.6233 52.7016 25.8334 53.0167 26.0434C53.2967 26.2534 53.5768 26.4635 53.8568 26.6735C54.0669 23.313 53.4368 19.7426 52.2816 16.5922C51.0215 13.4418 49.0262 10.5014 46.6108 8.08606C46.5408 8.43611 46.4708 8.78615 46.4008 9.1362C46.4008 9.55625 46.2958 9.9763 46.1908 10.3964C47.976 12.4966 49.4462 14.8069 50.3913 17.3273C51.3364 19.8476 51.8615 22.5779 51.9665 25.3083Z" fill="#08FA81"/>
</g>
<g filter="url(#filter4_d_154_3939)">
<path d="M51.7567 26.9886C52.4568 27.5486 53.1568 28.1787 53.8569 28.8788C53.8569 29.0888 53.8219 29.3339 53.7519 29.6139C53.0518 28.9138 52.3517 28.2837 51.6516 27.7236C51.6516 27.4436 51.6867 27.1986 51.7567 26.9886Z" fill="#08FA81"/>
</g>
<g filter="url(#filter5_d_154_3939)">
<path fill-rule="evenodd" clip-rule="evenodd" d="M53.857 29.9289L53.647 29.7189C52.9469 29.0188 52.2468 28.3887 51.5467 27.8286L51.4417 27.7236C51.5117 27.4436 51.5467 27.1986 51.5467 26.9885V26.6735L51.8617 26.8835C52.5618 27.4436 53.2619 28.0387 53.962 28.6687L54.067 28.7738V28.8788C53.997 29.0888 53.962 29.3338 53.962 29.6139L53.857 29.9289ZM51.7567 27.6186C52.3868 28.1087 53.0169 28.6337 53.647 29.1938C53.647 29.0538 53.647 28.9488 53.647 28.8788C53.0869 28.3187 52.4918 27.7936 51.8617 27.3036C51.7917 27.3736 51.7567 27.4786 51.7567 27.6186Z" fill="#08FA81"/>
</g>
<g filter="url(#filter6_d_154_3939)">
<path d="M51.4414 29.2988C52.1415 29.9289 52.8066 30.594 53.4367 31.2941C53.3667 31.5741 53.2967 31.8191 53.2267 32.0292C52.5966 31.3291 51.9665 30.629 51.3364 29.9289C51.4064 29.7189 51.4414 29.5089 51.4414 29.2988Z" fill="#08FA81"/>
</g>
<g filter="url(#filter7_d_154_3939)">
<path fill-rule="evenodd" clip-rule="evenodd" d="M53.332 32.4493L53.122 32.2392C52.4919 31.4691 51.8618 30.769 51.2318 30.139L51.1267 30.0339V29.9289C51.1967 29.6489 51.2667 29.4389 51.3367 29.2988V28.9838L51.5468 29.1938C52.2469 29.8239 52.9119 30.489 53.542 31.1891L53.6471 31.2941L53.542 31.3991C53.542 31.6792 53.507 31.9242 53.437 32.1342L53.332 32.4493ZM51.5468 29.9289C52.1069 30.489 52.6319 31.0841 53.122 31.7142C53.192 31.5741 53.227 31.4691 53.227 31.3991C52.6669 30.769 52.1069 30.174 51.5468 29.6139C51.5468 29.6839 51.5468 29.7889 51.5468 29.9289Z" fill="#08FA81"/>
</g>
<g filter="url(#filter8_d_154_3939)">
<path d="M50.9165 31.5041C51.5466 32.2042 52.1417 32.9743 52.7018 33.8144C52.6317 34.0245 52.5617 34.2695 52.4917 34.5495C51.9316 33.7094 51.3716 32.9393 50.8115 32.2392C50.8815 32.0292 50.9165 31.7842 50.9165 31.5041Z" fill="#08FA81"/>
</g>
<g filter="url(#filter9_d_154_3939)">
<path fill-rule="evenodd" clip-rule="evenodd" d="M52.4918 34.8646L52.2818 34.5495C51.7918 33.7794 51.2316 33.0443 50.6016 32.3442V32.2392V32.1342C50.6716 31.9242 50.7416 31.7141 50.8116 31.5041L50.9166 31.1891L51.1266 31.3991C51.7567 32.0992 52.3168 32.8693 52.8069 33.7094H52.9119V33.8144C52.7719 34.0945 52.6669 34.3395 52.5968 34.5495L52.4918 34.8646ZM51.0216 32.1342C51.5117 32.7643 51.9668 33.4294 52.3868 34.1295C52.4568 33.9894 52.4918 33.8844 52.4918 33.8144C52.0717 33.1143 51.5817 32.4843 51.0216 31.9242C51.0216 31.9942 51.0216 32.0642 51.0216 32.1342Z" fill="#08FA81"/>
</g>
<g filter="url(#filter10_d_154_3939)">
<path d="M39.155 2.73038C37.5448 2.03028 35.8645 1.50522 34.1143 1.15517C34.4643 0.805124 34.8494 0.490089 35.2694 0.210052C36.4596 0.490089 37.6497 0.87513 38.8399 1.36519C38.9799 1.78525 39.085 2.24031 39.155 2.73038Z" fill="#08FA81"/>
</g>
<g filter="url(#filter11_d_154_3939)">
<path fill-rule="evenodd" clip-rule="evenodd" d="M39.155 2.94039C39.155 2.94039 39.1199 2.90539 39.0499 2.83538C37.4397 2.13529 35.7945 1.61022 34.1143 1.26018C34.0443 1.26018 33.9743 1.22517 33.9043 1.15516C33.9043 1.08515 33.9393 1.05014 34.0093 1.05014C34.3593 0.700092 34.7094 0.350046 35.0594 0C35.1294 0 35.1995 0 35.2695 0C36.5296 0.280037 37.7197 0.665093 38.8399 1.15516C38.9099 1.15516 38.9449 1.19017 38.9449 1.26018C39.085 1.75024 39.2249 2.2403 39.365 2.73036C39.365 2.80037 39.33 2.83538 39.26 2.83538C39.26 2.90539 39.225 2.94039 39.155 2.94039ZM34.5344 1.05014C36.0045 1.40018 37.4748 1.85525 38.9449 2.41532C38.8749 2.13528 38.7699 1.82025 38.6299 1.4702C37.5098 1.05015 36.3896 0.700101 35.2695 0.420065C34.9894 0.630092 34.7444 0.84011 34.5344 1.05014Z" fill="#08FA81"/>
</g>
<g filter="url(#filter12_d_154_3939)">
<path d="M52.282 16.1721C51.3368 13.8618 50.0766 11.7615 48.5014 9.8713C47.0312 7.98105 45.246 6.30084 43.1458 4.93566C43.6358 4.79564 44.1258 4.65561 44.6159 4.51559C48.1864 7.14094 51.1268 10.8164 53.017 14.912C52.737 15.332 52.492 15.7521 52.282 16.1721Z" fill="#08FA81"/>
</g>
<g filter="url(#filter13_d_154_3939)">
<path fill-rule="evenodd" clip-rule="evenodd" d="M52.282 16.3822C52.212 16.3121 52.142 16.2771 52.072 16.2771C51.1269 13.9668 49.9717 11.8666 48.3965 9.97631C46.9263 8.08606 45.141 6.51086 43.0408 5.14569C43.0408 5.07568 43.0408 5.00567 43.0408 4.93566C43.0408 4.86565 43.0758 4.83064 43.1458 4.83064C43.6359 4.62061 44.0909 4.44559 44.511 4.30557C44.581 4.30557 44.651 4.34058 44.721 4.41059C48.3965 7.03594 51.2319 10.7114 53.1221 14.8069C53.1221 14.877 53.1221 14.947 53.1221 15.017C52.9121 15.437 52.6671 15.8571 52.387 16.2771C52.387 16.3471 52.352 16.3822 52.282 16.3822ZM43.5658 5.04067C45.4561 6.37084 47.1713 7.94605 48.7115 9.76628C50.1817 11.5865 51.3719 13.5818 52.282 15.7521C52.4221 15.472 52.5971 15.192 52.8071 14.912C50.9169 10.8164 48.0815 7.35096 44.511 4.72562C44.231 4.79563 43.9159 4.90065 43.5658 5.04067Z" fill="#08FA81"/>
</g>
<g filter="url(#filter14_d_154_3939)">
<path d="M35.2694 49.0414L34.9543 47.7812L35.2694 47.6762L35.6894 49.0414H35.2694Z" fill="#08FA81"/>
</g>
<g filter="url(#filter15_d_154_3939)">
<path d="M34.5343 49.2514L34.2192 47.8862L34.5343 47.7812L34.8493 49.1464L34.5343 49.2514Z" fill="#08FA81"/>
</g>
<g filter="url(#filter16_d_154_3939)">
<path d="M33.7992 49.4615L33.5891 48.0963L33.9042 47.9913L34.1142 49.3565L33.7992 49.4615Z" fill="#08FA81"/>
</g>
<g filter="url(#filter17_d_154_3939)">
<path d="M22.8778 48.5163C20.0424 47.7812 17.312 46.4161 14.8967 44.6308L15.1068 44.3158C17.4171 46.101 20.1474 47.4662 22.9828 48.2013L22.8778 48.5163Z" fill="#08FA81"/>
</g>
<g filter="url(#filter18_d_154_3939)">
<path d="M14.8968 44.6309C13.4266 43.5107 12.0964 42.2506 10.9063 40.8504C10.3462 40.9204 9.82115 40.9554 9.33109 40.9554C9.26108 40.9554 9.19105 40.9204 9.12104 40.8504C6.81074 37.91 5.23557 34.3395 4.50048 30.559C3.76538 26.8835 3.87038 22.893 4.81551 19.2175C5.76063 15.5421 7.54586 12.0766 10.0662 9.24123C12.4815 6.30084 15.6319 3.99055 19.2024 2.52036L19.3074 2.8354C15.8419 4.30559 12.7966 6.61588 10.2762 9.45125C7.86092 12.2866 6.07566 15.7521 5.13054 19.3226C4.18541 22.998 4.08041 26.7785 4.81551 30.559C5.5506 34.1295 7.12577 37.595 9.43607 40.6404C9.92614 40.5703 10.4512 40.5353 11.0113 40.5353C11.0813 40.5353 11.1163 40.5353 11.1163 40.5353C12.3065 42.0055 13.6366 43.2657 15.1068 44.3158L14.8968 44.6309Z" fill="#08FA81"/>
</g>
<g filter="url(#filter19_d_154_3939)">
<path d="M12.2714 10.5014C10.4862 12.4966 9.01597 14.807 8.07085 17.4323C7.02071 19.9526 6.49564 22.683 6.49564 25.4133C6.07559 25.7284 5.65556 25.9384 5.34052 26.1484C5.02548 26.4635 4.60538 26.6735 4.18533 27.0936C3.9753 23.5231 4.50041 19.8476 5.86559 16.5922C7.12575 13.2317 9.12099 10.1863 11.7463 7.66602C11.8513 8.2961 11.8514 8.71616 11.9564 9.13622C12.0614 9.55627 12.1664 9.97631 12.2714 10.5014Z" fill="#08FA81"/>
</g>
<g filter="url(#filter20_d_154_3939)">
<path fill-rule="evenodd" clip-rule="evenodd" d="M4.18527 27.1986C4.11526 27.1986 4.08028 27.1635 4.08028 27.0935C3.76524 23.5231 4.39532 19.8476 5.65549 16.4872C7.02067 13.1267 9.01594 10.0813 11.6413 7.56099C11.6413 7.49098 11.6763 7.49098 11.7463 7.56099C11.8163 7.56099 11.8513 7.59599 11.8513 7.66599C11.9563 8.19106 12.0613 8.61112 12.1664 9.03118C12.2714 9.55625 12.3764 9.9763 12.4814 10.3964C12.4814 10.4664 12.4464 10.5364 12.3764 10.6064C10.5912 12.6016 9.12097 14.9119 8.17585 17.4323C7.23072 19.9526 6.70563 22.683 6.70563 25.4133C6.70563 25.4833 6.67065 25.5183 6.60064 25.5183C6.07557 25.8334 5.76049 26.1484 5.44545 26.3584C5.13041 26.5685 4.81539 26.7785 4.29032 27.1986C4.29032 27.1986 4.25528 27.1986 4.18527 27.1986ZM11.6413 8.08606C9.22597 10.5014 7.23068 13.4418 5.97052 16.5922C4.81537 19.7426 4.18528 23.313 4.39531 26.6735C4.67535 26.4635 4.95537 26.2534 5.23541 26.0434C5.55045 25.8334 5.86549 25.6233 6.28555 25.3083C6.39056 22.5779 6.91563 19.8476 7.86075 17.3273C8.80588 14.8069 10.2761 12.4966 12.0613 10.3964C11.9563 9.9763 11.8513 9.55625 11.7463 9.1362C11.6763 8.78615 11.6413 8.43611 11.6413 8.08606Z" fill="#08FA81"/>
</g>
<g filter="url(#filter21_d_154_3939)">
<path d="M6.49578 26.9886C5.79569 27.5486 5.0956 28.1787 4.39551 28.8788C4.39551 29.0888 4.43055 29.3339 4.50056 29.6139C5.13064 28.9138 5.83073 28.2837 6.60083 27.7236C6.60083 27.4436 6.56579 27.1986 6.49578 26.9886Z" fill="#08FA81"/>
</g>
<g filter="url(#filter22_d_154_3939)">
<path fill-rule="evenodd" clip-rule="evenodd" d="M4.39559 29.9289L4.2906 29.6139C4.2906 29.3338 4.25556 29.0888 4.18555 28.8788V28.7738L4.2906 28.6687C4.92068 28.0387 5.62077 27.4436 6.39087 26.8835L6.7059 26.6735V26.9885C6.7059 27.1986 6.74088 27.4436 6.81089 27.7236L6.7059 27.8286C6.00581 28.3887 5.30572 29.0188 4.60563 29.7189L4.39559 29.9289ZM4.60563 28.8788C4.60563 28.9488 4.60563 29.0538 4.60563 29.1938C5.23571 28.6337 5.8308 28.1087 6.39087 27.6186C6.39087 27.4786 6.39087 27.3736 6.39087 27.3036C5.76079 27.7936 5.1657 28.3187 4.60563 28.8788Z" fill="#08FA81"/>
</g>
<g filter="url(#filter23_d_154_3939)">
<path d="M6.81065 29.2988C6.11056 29.9289 5.44551 30.594 4.81543 31.2941C4.88544 31.5741 4.95546 31.8191 5.02547 32.0292C5.65555 31.3291 6.28562 30.629 6.9157 29.9289C6.8457 29.7189 6.81065 29.5089 6.81065 29.2988Z" fill="#08FA81"/>
</g>
<g filter="url(#filter24_d_154_3939)">
<path fill-rule="evenodd" clip-rule="evenodd" d="M4.9205 32.4493L4.81551 32.1342C4.7455 31.9242 4.67548 31.6792 4.60547 31.3991V31.2941L4.71046 31.1891C5.34054 30.489 6.00565 29.8239 6.70574 29.1938L6.91578 28.9838V29.2988C6.98579 29.4389 7.05581 29.6489 7.12582 29.9289V30.0339L7.02077 30.139C6.39069 30.769 5.76062 31.4691 5.13054 32.2392L4.9205 32.4493ZM5.02555 31.2941C5.02555 31.4341 5.06053 31.5391 5.13054 31.6091C5.6206 30.9791 6.14567 30.384 6.70574 29.8239C6.70574 29.7539 6.70574 29.6839 6.70574 29.6139C6.14567 30.174 5.58562 30.734 5.02555 31.2941Z" fill="#08FA81"/>
</g>
<g filter="url(#filter25_d_154_3939)">
<path d="M7.23073 31.5041C6.67066 32.2042 6.11061 32.9743 5.55054 33.8144C5.62055 34.0245 5.6905 34.2695 5.76051 34.5495C6.32059 33.7094 6.8807 32.9393 7.44077 32.2392C7.37076 32.0292 7.30074 31.7842 7.23073 31.5041Z" fill="#08FA81"/>
</g>
<g filter="url(#filter26_d_154_3939)">
<path fill-rule="evenodd" clip-rule="evenodd" d="M5.76059 34.8646L5.6556 34.5495C5.5856 34.3395 5.48059 34.0945 5.34058 33.8144V33.7094C5.90065 32.8693 6.49574 32.0992 7.12582 31.3991L7.3358 31.1891L7.44085 31.5041C7.51086 31.7141 7.58088 31.9242 7.65089 32.1342V32.2392V32.3442C7.02081 33.0443 6.4607 33.7794 5.97063 34.5495L5.76059 34.8646ZM5.6556 33.8144C5.72561 33.9544 5.79564 34.0594 5.86564 34.1295C6.2857 33.4294 6.74075 32.7993 7.23081 32.2392C7.23081 32.0992 7.19583 31.9942 7.12582 31.9242C6.63576 32.5543 6.14567 33.1843 5.6556 33.8144Z" fill="#08FA81"/>
</g>
<g filter="url(#filter27_d_154_3939)">
<path d="M19.0972 2.73038C20.7074 2.03028 22.3876 1.50522 24.1378 1.15517C23.7878 0.805124 23.4027 0.490089 22.9827 0.210052C21.7925 0.490089 20.6024 0.87513 19.4122 1.36519C19.2722 1.78525 19.1672 2.24031 19.0972 2.73038Z" fill="#08FA81"/>
</g>
<g filter="url(#filter28_d_154_3939)">
<path fill-rule="evenodd" clip-rule="evenodd" d="M19.0975 2.94039C19.0275 2.94039 18.9925 2.90539 18.9925 2.83538C18.9225 2.83538 18.8875 2.80037 18.8875 2.73036C19.0275 2.2403 19.1675 1.75024 19.3075 1.26018C19.3075 1.19017 19.3425 1.15516 19.4125 1.15516C20.5327 0.665093 21.7228 0.280037 22.983 0C23.053 0 23.088 0 23.088 0C23.5081 0.350046 23.8931 0.700092 24.2432 1.05014C24.3132 1.05014 24.3482 1.08515 24.3482 1.15516C24.2782 1.22517 24.2081 1.26018 24.1381 1.26018C22.4579 1.61022 20.8128 2.13529 19.2025 2.83538C19.1325 2.90539 19.0975 2.94039 19.0975 2.94039ZM19.6226 1.4702C19.4825 1.82025 19.3775 2.13528 19.3075 2.41532C20.7777 1.85525 22.2479 1.40018 23.7181 1.05014C23.5081 0.84011 23.263 0.630092 22.983 0.420065C21.7929 0.700101 20.6727 1.05015 19.6226 1.4702Z" fill="#08FA81"/>
</g>
<g filter="url(#filter29_d_154_3939)">
<path d="M5.9707 16.1721C6.91583 13.8618 8.17603 11.7615 9.75124 9.8713C11.2214 7.98105 13.0066 6.30084 15.1069 4.93566C14.6168 4.79564 14.1268 4.65561 13.6367 4.51559C10.0662 7.14094 7.12584 10.8164 5.2356 14.912C5.51563 15.332 5.76068 15.7521 5.9707 16.1721Z" fill="#08FA81"/>
</g>
<g filter="url(#filter30_d_154_3939)">
<path fill-rule="evenodd" clip-rule="evenodd" d="M5.97071 16.3822C5.9007 16.3822 5.86572 16.3471 5.86572 16.2771C5.58569 15.8571 5.34064 15.437 5.13062 15.017C5.13062 14.947 5.13062 14.877 5.13062 14.8069C7.02086 10.7114 9.85623 7.03594 13.5317 4.41059C13.6017 4.34058 13.6717 4.30557 13.7418 4.30557C14.1618 4.44559 14.6169 4.62061 15.1069 4.83064C15.1769 4.83064 15.2119 4.86565 15.2119 4.93566C15.2119 5.00567 15.2119 5.07568 15.2119 5.14569C13.1116 6.51086 11.3264 8.08606 9.85623 9.97631C8.28103 11.8666 7.12588 13.9668 6.18075 16.2771C6.11074 16.2771 6.04072 16.3121 5.97071 16.3822ZM5.44564 14.912C5.65567 15.192 5.83069 15.472 5.97071 15.7521C6.88083 13.5818 8.07101 11.5865 9.54121 9.76628C11.0114 7.94605 12.7266 6.37084 14.6868 5.04067C14.3368 4.90065 14.0218 4.79563 13.7418 4.72562C10.1713 7.35096 7.33589 10.8164 5.44564 14.912Z" fill="#08FA81"/>
</g>
<g filter="url(#filter31_d_154_3939)">
<path d="M22.9831 49.0414H22.563L22.9831 47.6762L23.2981 47.7812L22.9831 49.0414Z" fill="#08FA81"/>
</g>
<g filter="url(#filter32_d_154_3939)">
<path d="M23.7179 49.2514L23.2979 49.1464L23.7179 47.7812L24.033 47.8862L23.7179 49.2514Z" fill="#08FA81"/>
</g>
<g filter="url(#filter33_d_154_3939)">
<path d="M24.453 49.4615L24.1379 49.3565L24.348 47.9913L24.663 48.0963L24.453 49.4615Z" fill="#08FA81"/>
</g>
<path d="M22.5043 29.7754H19.0163V12.0154H22.5043V8.52743H36.7123V12.0154H40.2003V15.5034H33.1603V12.0794H26.1203V29.7754H40.2003V33.2634H22.5043V29.7754Z" fill="white"/>
<rect width="4.20167" height="4.20167" rx="2.10084" transform="matrix(-1 0 0 1 46.3557 36.7081)" fill="white"/>
<rect x="29.5488" y="36.7081" width="11.2045" height="4.20167" rx="2.10084" fill="white"/>
<rect width="4.20167" height="4.20167" rx="2.10084" transform="matrix(-1 0 0 1 28.1484 36.7081)" fill="white"/>
<rect x="11.3416" y="36.7081" width="11.2045" height="4.20167" rx="2.10084" fill="white"/>
<defs>
<filter id="filter0_d_154_3939" x="31.2695" y="44.3158" width="16.0862" height="12.2006" filterUnits="userSpaceOnUse" color-interpolation-filters="sRGB">
<feFlood flood-opacity="0" result="BackgroundImageFix"/>
<feColorMatrix in="SourceAlpha" type="matrix" values="0 0 0 0 0 0 0 0 0 0 0 0 0 0 0 0 0 0 127 0" result="hardAlpha"/>
<feOffset dy="4"/>
<feGaussianBlur stdDeviation="2"/>
<feComposite in2="hardAlpha" operator="out"/>
<feColorMatrix type="matrix" values="0 0 0 0 0 0 0 0 0 0 0 0 0 0 0 0 0 0 0.25 0"/>
<feBlend mode="normal" in2="BackgroundImageFix" result="effect1_dropShadow_154_3939"/>
<feBlend mode="normal" in="SourceGraphic" in2="effect1_dropShadow_154_3939" result="shape"/>
</filter>
<filter id="filter1_d_154_3939" x="34.9451" y="2.52036" width="23.2893" height="50.1105" filterUnits="userSpaceOnUse" color-interpolation-filters="sRGB">
<feFlood flood-opacity="0" result="BackgroundImageFix"/>
<feColorMatrix in="SourceAlpha" type="matrix" values="0 0 0 0 0 0 0 0 0 0 0 0 0 0 0 0 0 0 127 0" result="hardAlpha"/>
<feOffset dy="4"/>
<feGaussianBlur stdDeviation="2"/>
<feComposite in2="hardAlpha" operator="out"/>
<feColorMatrix type="matrix" values="0 0 0 0 0 0 0 0 0 0 0 0 0 0 0 0 0 0 0.25 0"/>
<feBlend mode="normal" in2="BackgroundImageFix" result="effect1_dropShadow_154_3939"/>
<feBlend mode="normal" in="SourceGraphic" in2="effect1_dropShadow_154_3939" result="shape"/>
</filter>
<filter id="filter2_d_154_3939" x="41.981" y="7.66602" width="16.1257" height="27.4276" filterUnits="userSpaceOnUse" color-interpolation-filters="sRGB">
<feFlood flood-opacity="0" result="BackgroundImageFix"/>
<feColorMatrix in="SourceAlpha" type="matrix" values="0 0 0 0 0 0 0 0 0 0 0 0 0 0 0 0 0 0 127 0" result="hardAlpha"/>
<feOffset dy="4"/>
<feGaussianBlur stdDeviation="2"/>
<feComposite in2="hardAlpha" operator="out"/>
<feColorMatrix type="matrix" values="0 0 0 0 0 0 0 0 0 0 0 0 0 0 0 0 0 0 0.25 0"/>
<feBlend mode="normal" in2="BackgroundImageFix" result="effect1_dropShadow_154_3939"/>
<feBlend mode="normal" in="SourceGraphic" in2="effect1_dropShadow_154_3939" result="shape"/>
</filter>
<filter id="filter3_d_154_3939" x="41.7708" y="7.50848" width="16.446" height="27.6901" filterUnits="userSpaceOnUse" color-interpolation-filters="sRGB">
<feFlood flood-opacity="0" result="BackgroundImageFix"/>
<feColorMatrix in="SourceAlpha" type="matrix" values="0 0 0 0 0 0 0 0 0 0 0 0 0 0 0 0 0 0 127 0" result="hardAlpha"/>
<feOffset dy="4"/>
<feGaussianBlur stdDeviation="2"/>
<feComposite in2="hardAlpha" operator="out"/>
<feColorMatrix type="matrix" values="0 0 0 0 0 0 0 0 0 0 0 0 0 0 0 0 0 0 0.25 0"/>
<feBlend mode="normal" in2="BackgroundImageFix" result="effect1_dropShadow_154_3939"/>
<feBlend mode="normal" in="SourceGraphic" in2="effect1_dropShadow_154_3939" result="shape"/>
</filter>
<filter id="filter4_d_154_3939" x="47.6516" y="26.9886" width="10.2053" height="10.6253" filterUnits="userSpaceOnUse" color-interpolation-filters="sRGB">
<feFlood flood-opacity="0" result="BackgroundImageFix"/>
<feColorMatrix in="SourceAlpha" type="matrix" values="0 0 0 0 0 0 0 0 0 0 0 0 0 0 0 0 0 0 127 0" result="hardAlpha"/>
<feOffset dy="4"/>
<feGaussianBlur stdDeviation="2"/>
<feComposite in2="hardAlpha" operator="out"/>
<feColorMatrix type="matrix" values="0 0 0 0 0 0 0 0 0 0 0 0 0 0 0 0 0 0 0.25 0"/>
<feBlend mode="normal" in2="BackgroundImageFix" result="effect1_dropShadow_154_3939"/>
<feBlend mode="normal" in="SourceGraphic" in2="effect1_dropShadow_154_3939" result="shape"/>
</filter>
<filter id="filter5_d_154_3939" x="47.4417" y="26.6735" width="10.6252" height="11.2554" filterUnits="userSpaceOnUse" color-interpolation-filters="sRGB">
<feFlood flood-opacity="0" result="BackgroundImageFix"/>
<feColorMatrix in="SourceAlpha" type="matrix" values="0 0 0 0 0 0 0 0 0 0 0 0 0 0 0 0 0 0 127 0" result="hardAlpha"/>
<feOffset dy="4"/>
<feGaussianBlur stdDeviation="2"/>
<feComposite in2="hardAlpha" operator="out"/>
<feColorMatrix type="matrix" values="0 0 0 0 0 0 0 0 0 0 0 0 0 0 0 0 0 0 0.25 0"/>
<feBlend mode="normal" in2="BackgroundImageFix" result="effect1_dropShadow_154_3939"/>
<feBlend mode="normal" in="SourceGraphic" in2="effect1_dropShadow_154_3939" result="shape"/>
</filter>
<filter id="filter6_d_154_3939" x="47.3364" y="29.2988" width="10.1003" height="10.7303" filterUnits="userSpaceOnUse" color-interpolation-filters="sRGB">
<feFlood flood-opacity="0" result="BackgroundImageFix"/>
<feColorMatrix in="SourceAlpha" type="matrix" values="0 0 0 0 0 0 0 0 0 0 0 0 0 0 0 0 0 0 127 0" result="hardAlpha"/>
<feOffset dy="4"/>
<feGaussianBlur stdDeviation="2"/>
<feComposite in2="hardAlpha" operator="out"/>
<feColorMatrix type="matrix" values="0 0 0 0 0 0 0 0 0 0 0 0 0 0 0 0 0 0 0.25 0"/>
<feBlend mode="normal" in2="BackgroundImageFix" result="effect1_dropShadow_154_3939"/>
<feBlend mode="normal" in="SourceGraphic" in2="effect1_dropShadow_154_3939" result="shape"/>
</filter>
<filter id="filter7_d_154_3939" x="47.1267" y="28.9838" width="10.5203" height="11.4655" filterUnits="userSpaceOnUse" color-interpolation-filters="sRGB">
<feFlood flood-opacity="0" result="BackgroundImageFix"/>
<feColorMatrix in="SourceAlpha" type="matrix" values="0 0 0 0 0 0 0 0 0 0 0 0 0 0 0 0 0 0 127 0" result="hardAlpha"/>
<feOffset dy="4"/>
<feGaussianBlur stdDeviation="2"/>
<feComposite in2="hardAlpha" operator="out"/>
<feColorMatrix type="matrix" values="0 0 0 0 0 0 0 0 0 0 0 0 0 0 0 0 0 0 0.25 0"/>
<feBlend mode="normal" in2="BackgroundImageFix" result="effect1_dropShadow_154_3939"/>
<feBlend mode="normal" in="SourceGraphic" in2="effect1_dropShadow_154_3939" result="shape"/>
</filter>
<filter id="filter8_d_154_3939" x="46.8115" y="31.5041" width="9.89014" height="11.0454" filterUnits="userSpaceOnUse" color-interpolation-filters="sRGB">
<feFlood flood-opacity="0" result="BackgroundImageFix"/>
<feColorMatrix in="SourceAlpha" type="matrix" values="0 0 0 0 0 0 0 0 0 0 0 0 0 0 0 0 0 0 127 0" result="hardAlpha"/>
<feOffset dy="4"/>
<feGaussianBlur stdDeviation="2"/>
<feComposite in2="hardAlpha" operator="out"/>
<feColorMatrix type="matrix" values="0 0 0 0 0 0 0 0 0 0 0 0 0 0 0 0 0 0 0.25 0"/>
<feBlend mode="normal" in2="BackgroundImageFix" result="effect1_dropShadow_154_3939"/>
<feBlend mode="normal" in="SourceGraphic" in2="effect1_dropShadow_154_3939" result="shape"/>
</filter>
<filter id="filter9_d_154_3939" x="46.6016" y="31.1891" width="10.3103" height="11.6755" filterUnits="userSpaceOnUse" color-interpolation-filters="sRGB">
<feFlood flood-opacity="0" result="BackgroundImageFix"/>
<feColorMatrix in="SourceAlpha" type="matrix" values="0 0 0 0 0 0 0 0 0 0 0 0 0 0 0 0 0 0 127 0" result="hardAlpha"/>
<feOffset dy="4"/>
<feGaussianBlur stdDeviation="2"/>
<feComposite in2="hardAlpha" operator="out"/>
<feColorMatrix type="matrix" values="0 0 0 0 0 0 0 0 0 0 0 0 0 0 0 0 0 0 0.25 0"/>
<feBlend mode="normal" in2="BackgroundImageFix" result="effect1_dropShadow_154_3939"/>
<feBlend mode="normal" in="SourceGraphic" in2="effect1_dropShadow_154_3939" result="shape"/>
</filter>
<filter id="filter10_d_154_3939" x="30.1143" y="0.210052" width="13.0408" height="10.5203" filterUnits="userSpaceOnUse" color-interpolation-filters="sRGB">
<feFlood flood-opacity="0" result="BackgroundImageFix"/>
<feColorMatrix in="SourceAlpha" type="matrix" values="0 0 0 0 0 0 0 0 0 0 0 0 0 0 0 0 0 0 127 0" result="hardAlpha"/>
<feOffset dy="4"/>
<feGaussianBlur stdDeviation="2"/>
<feComposite in2="hardAlpha" operator="out"/>
<feColorMatrix type="matrix" values="0 0 0 0 0 0 0 0 0 0 0 0 0 0 0 0 0 0 0.25 0"/>
<feBlend mode="normal" in2="BackgroundImageFix" result="effect1_dropShadow_154_3939"/>
<feBlend mode="normal" in="SourceGraphic" in2="effect1_dropShadow_154_3939" result="shape"/>
</filter>
<filter id="filter11_d_154_3939" x="29.9043" y="0" width="13.4607" height="10.9404" filterUnits="userSpaceOnUse" color-interpolation-filters="sRGB">
<feFlood flood-opacity="0" result="BackgroundImageFix"/>
<feColorMatrix in="SourceAlpha" type="matrix" values="0 0 0 0 0 0 0 0 0 0 0 0 0 0 0 0 0 0 127 0" result="hardAlpha"/>
<feOffset dy="4"/>
<feGaussianBlur stdDeviation="2"/>
<feComposite in2="hardAlpha" operator="out"/>
<feColorMatrix type="matrix" values="0 0 0 0 0 0 0 0 0 0 0 0 0 0 0 0 0 0 0.25 0"/>
<feBlend mode="normal" in2="BackgroundImageFix" result="effect1_dropShadow_154_3939"/>
<feBlend mode="normal" in="SourceGraphic" in2="effect1_dropShadow_154_3939" result="shape"/>
</filter>
<filter id="filter12_d_154_3939" x="39.1458" y="4.51559" width="17.8713" height="19.6565" filterUnits="userSpaceOnUse" color-interpolation-filters="sRGB">
<feFlood flood-opacity="0" result="BackgroundImageFix"/>
<feColorMatrix in="SourceAlpha" type="matrix" values="0 0 0 0 0 0 0 0 0 0 0 0 0 0 0 0 0 0 127 0" result="hardAlpha"/>
<feOffset dy="4"/>
<feGaussianBlur stdDeviation="2"/>
<feComposite in2="hardAlpha" operator="out"/>
<feColorMatrix type="matrix" values="0 0 0 0 0 0 0 0 0 0 0 0 0 0 0 0 0 0 0.25 0"/>
<feBlend mode="normal" in2="BackgroundImageFix" result="effect1_dropShadow_154_3939"/>
<feBlend mode="normal" in="SourceGraphic" in2="effect1_dropShadow_154_3939" result="shape"/>
</filter>
<filter id="filter13_d_154_3939" x="39.0408" y="4.30557" width="18.0813" height="20.0766" filterUnits="userSpaceOnUse" color-interpolation-filters="sRGB">
<feFlood flood-opacity="0" result="BackgroundImageFix"/>
<feColorMatrix in="SourceAlpha" type="matrix" values="0 0 0 0 0 0 0 0 0 0 0 0 0 0 0 0 0 0 127 0" result="hardAlpha"/>
<feOffset dy="4"/>
<feGaussianBlur stdDeviation="2"/>
<feComposite in2="hardAlpha" operator="out"/>
<feColorMatrix type="matrix" values="0 0 0 0 0 0 0 0 0 0 0 0 0 0 0 0 0 0 0.25 0"/>
<feBlend mode="normal" in2="BackgroundImageFix" result="effect1_dropShadow_154_3939"/>
<feBlend mode="normal" in="SourceGraphic" in2="effect1_dropShadow_154_3939" result="shape"/>
</filter>
<filter id="filter14_d_154_3939" x="30.9543" y="47.6762" width="8.73511" height="9.36517" filterUnits="userSpaceOnUse" color-interpolation-filters="sRGB">
<feFlood flood-opacity="0" result="BackgroundImageFix"/>
<feColorMatrix in="SourceAlpha" type="matrix" values="0 0 0 0 0 0 0 0 0 0 0 0 0 0 0 0 0 0 127 0" result="hardAlpha"/>
<feOffset dy="4"/>
<feGaussianBlur stdDeviation="2"/>
<feComposite in2="hardAlpha" operator="out"/>
<feColorMatrix type="matrix" values="0 0 0 0 0 0 0 0 0 0 0 0 0 0 0 0 0 0 0.25 0"/>
<feBlend mode="normal" in2="BackgroundImageFix" result="effect1_dropShadow_154_3939"/>
<feBlend mode="normal" in="SourceGraphic" in2="effect1_dropShadow_154_3939" result="shape"/>
</filter>
<filter id="filter15_d_154_3939" x="30.2192" y="47.7812" width="8.63013" height="9.47021" filterUnits="userSpaceOnUse" color-interpolation-filters="sRGB">
<feFlood flood-opacity="0" result="BackgroundImageFix"/>
<feColorMatrix in="SourceAlpha" type="matrix" values="0 0 0 0 0 0 0 0 0 0 0 0 0 0 0 0 0 0 127 0" result="hardAlpha"/>
<feOffset dy="4"/>
<feGaussianBlur stdDeviation="2"/>
<feComposite in2="hardAlpha" operator="out"/>
<feColorMatrix type="matrix" values="0 0 0 0 0 0 0 0 0 0 0 0 0 0 0 0 0 0 0.25 0"/>
<feBlend mode="normal" in2="BackgroundImageFix" result="effect1_dropShadow_154_3939"/>
<feBlend mode="normal" in="SourceGraphic" in2="effect1_dropShadow_154_3939" result="shape"/>
</filter>
<filter id="filter16_d_154_3939" x="29.5891" y="47.9913" width="8.52515" height="9.47018" filterUnits="userSpaceOnUse" color-interpolation-filters="sRGB">
<feFlood flood-opacity="0" result="BackgroundImageFix"/>
<feColorMatrix in="SourceAlpha" type="matrix" values="0 0 0 0 0 0 0 0 0 0 0 0 0 0 0 0 0 0 127 0" result="hardAlpha"/>
<feOffset dy="4"/>
<feGaussianBlur stdDeviation="2"/>
<feComposite in2="hardAlpha" operator="out"/>
<feColorMatrix type="matrix" values="0 0 0 0 0 0 0 0 0 0 0 0 0 0 0 0 0 0 0.25 0"/>
<feBlend mode="normal" in2="BackgroundImageFix" result="effect1_dropShadow_154_3939"/>
<feBlend mode="normal" in="SourceGraphic" in2="effect1_dropShadow_154_3939" result="shape"/>
</filter>
<filter id="filter17_d_154_3939" x="10.8967" y="44.3158" width="16.0862" height="12.2006" filterUnits="userSpaceOnUse" color-interpolation-filters="sRGB">
<feFlood flood-opacity="0" result="BackgroundImageFix"/>
<feColorMatrix in="SourceAlpha" type="matrix" values="0 0 0 0 0 0 0 0 0 0 0 0 0 0 0 0 0 0 127 0" result="hardAlpha"/>
<feOffset dy="4"/>
<feGaussianBlur stdDeviation="2"/>
<feComposite in2="hardAlpha" operator="out"/>
<feColorMatrix type="matrix" values="0 0 0 0 0 0 0 0 0 0 0 0 0 0 0 0 0 0 0.25 0"/>
<feBlend mode="normal" in2="BackgroundImageFix" result="effect1_dropShadow_154_3939"/>
<feBlend mode="normal" in="SourceGraphic" in2="effect1_dropShadow_154_3939" result="shape"/>
</filter>
<filter id="filter18_d_154_3939" x="0.0180664" y="2.52036" width="23.2893" height="50.1105" filterUnits="userSpaceOnUse" color-interpolation-filters="sRGB">
<feFlood flood-opacity="0" result="BackgroundImageFix"/>
<feColorMatrix in="SourceAlpha" type="matrix" values="0 0 0 0 0 0 0 0 0 0 0 0 0 0 0 0 0 0 127 0" result="hardAlpha"/>
<feOffset dy="4"/>
<feGaussianBlur stdDeviation="2"/>
<feComposite in2="hardAlpha" operator="out"/>
<feColorMatrix type="matrix" values="0 0 0 0 0 0 0 0 0 0 0 0 0 0 0 0 0 0 0.25 0"/>
<feBlend mode="normal" in2="BackgroundImageFix" result="effect1_dropShadow_154_3939"/>
<feBlend mode="normal" in="SourceGraphic" in2="effect1_dropShadow_154_3939" result="shape"/>
</filter>
<filter id="filter19_d_154_3939" x="0.140625" y="7.66602" width="16.1309" height="27.4276" filterUnits="userSpaceOnUse" color-interpolation-filters="sRGB">
<feFlood flood-opacity="0" result="BackgroundImageFix"/>
<feColorMatrix in="SourceAlpha" type="matrix" values="0 0 0 0 0 0 0 0 0 0 0 0 0 0 0 0 0 0 127 0" result="hardAlpha"/>
<feOffset dy="4"/>
<feGaussianBlur stdDeviation="2"/>
<feComposite in2="hardAlpha" operator="out"/>
<feColorMatrix type="matrix" values="0 0 0 0 0 0 0 0 0 0 0 0 0 0 0 0 0 0 0.25 0"/>
<feBlend mode="normal" in2="BackgroundImageFix" result="effect1_dropShadow_154_3939"/>
<feBlend mode="normal" in="SourceGraphic" in2="effect1_dropShadow_154_3939" result="shape"/>
</filter>
<filter id="filter20_d_154_3939" x="0" y="7.50848" width="16.4814" height="27.6901" filterUnits="userSpaceOnUse" color-interpolation-filters="sRGB">
<feFlood flood-opacity="0" result="BackgroundImageFix"/>
<feColorMatrix in="SourceAlpha" type="matrix" values="0 0 0 0 0 0 0 0 0 0 0 0 0 0 0 0 0 0 127 0" result="hardAlpha"/>
<feOffset dy="4"/>
<feGaussianBlur stdDeviation="2"/>
<feComposite in2="hardAlpha" operator="out"/>
<feColorMatrix type="matrix" values="0 0 0 0 0 0 0 0 0 0 0 0 0 0 0 0 0 0 0.25 0"/>
<feBlend mode="normal" in2="BackgroundImageFix" result="effect1_dropShadow_154_3939"/>
<feBlend mode="normal" in="SourceGraphic" in2="effect1_dropShadow_154_3939" result="shape"/>
</filter>
<filter id="filter21_d_154_3939" x="0.395508" y="26.9886" width="10.2053" height="10.6253" filterUnits="userSpaceOnUse" color-interpolation-filters="sRGB">
<feFlood flood-opacity="0" result="BackgroundImageFix"/>
<feColorMatrix in="SourceAlpha" type="matrix" values="0 0 0 0 0 0 0 0 0 0 0 0 0 0 0 0 0 0 127 0" result="hardAlpha"/>
<feOffset dy="4"/>
<feGaussianBlur stdDeviation="2"/>
<feComposite in2="hardAlpha" operator="out"/>
<feColorMatrix type="matrix" values="0 0 0 0 0 0 0 0 0 0 0 0 0 0 0 0 0 0 0.25 0"/>
<feBlend mode="normal" in2="BackgroundImageFix" result="effect1_dropShadow_154_3939"/>
<feBlend mode="normal" in="SourceGraphic" in2="effect1_dropShadow_154_3939" result="shape"/>
</filter>
<filter id="filter22_d_154_3939" x="0.185547" y="26.6735" width="10.6252" height="11.2554" filterUnits="userSpaceOnUse" color-interpolation-filters="sRGB">
<feFlood flood-opacity="0" result="BackgroundImageFix"/>
<feColorMatrix in="SourceAlpha" type="matrix" values="0 0 0 0 0 0 0 0 0 0 0 0 0 0 0 0 0 0 127 0" result="hardAlpha"/>
<feOffset dy="4"/>
<feGaussianBlur stdDeviation="2"/>
<feComposite in2="hardAlpha" operator="out"/>
<feColorMatrix type="matrix" values="0 0 0 0 0 0 0 0 0 0 0 0 0 0 0 0 0 0 0.25 0"/>
<feBlend mode="normal" in2="BackgroundImageFix" result="effect1_dropShadow_154_3939"/>
<feBlend mode="normal" in="SourceGraphic" in2="effect1_dropShadow_154_3939" result="shape"/>
</filter>
<filter id="filter23_d_154_3939" x="0.81543" y="29.2988" width="10.1003" height="10.7303" filterUnits="userSpaceOnUse" color-interpolation-filters="sRGB">
<feFlood flood-opacity="0" result="BackgroundImageFix"/>
<feColorMatrix in="SourceAlpha" type="matrix" values="0 0 0 0 0 0 0 0 0 0 0 0 0 0 0 0 0 0 127 0" result="hardAlpha"/>
<feOffset dy="4"/>
<feGaussianBlur stdDeviation="2"/>
<feComposite in2="hardAlpha" operator="out"/>
<feColorMatrix type="matrix" values="0 0 0 0 0 0 0 0 0 0 0 0 0 0 0 0 0 0 0.25 0"/>
<feBlend mode="normal" in2="BackgroundImageFix" result="effect1_dropShadow_154_3939"/>
<feBlend mode="normal" in="SourceGraphic" in2="effect1_dropShadow_154_3939" result="shape"/>
</filter>
<filter id="filter24_d_154_3939" x="0.605469" y="28.9838" width="10.5203" height="11.4655" filterUnits="userSpaceOnUse" color-interpolation-filters="sRGB">
<feFlood flood-opacity="0" result="BackgroundImageFix"/>
<feColorMatrix in="SourceAlpha" type="matrix" values="0 0 0 0 0 0 0 0 0 0 0 0 0 0 0 0 0 0 127 0" result="hardAlpha"/>
<feOffset dy="4"/>
<feGaussianBlur stdDeviation="2"/>
<feComposite in2="hardAlpha" operator="out"/>
<feColorMatrix type="matrix" values="0 0 0 0 0 0 0 0 0 0 0 0 0 0 0 0 0 0 0.25 0"/>
<feBlend mode="normal" in2="BackgroundImageFix" result="effect1_dropShadow_154_3939"/>
<feBlend mode="normal" in="SourceGraphic" in2="effect1_dropShadow_154_3939" result="shape"/>
</filter>
<filter id="filter25_d_154_3939" x="1.55054" y="31.5041" width="9.89014" height="11.0454" filterUnits="userSpaceOnUse" color-interpolation-filters="sRGB">
<feFlood flood-opacity="0" result="BackgroundImageFix"/>
<feColorMatrix in="SourceAlpha" type="matrix" values="0 0 0 0 0 0 0 0 0 0 0 0 0 0 0 0 0 0 127 0" result="hardAlpha"/>
<feOffset dy="4"/>
<feGaussianBlur stdDeviation="2"/>
<feComposite in2="hardAlpha" operator="out"/>
<feColorMatrix type="matrix" values="0 0 0 0 0 0 0 0 0 0 0 0 0 0 0 0 0 0 0.25 0"/>
<feBlend mode="normal" in2="BackgroundImageFix" result="effect1_dropShadow_154_3939"/>
<feBlend mode="normal" in="SourceGraphic" in2="effect1_dropShadow_154_3939" result="shape"/>
</filter>
<filter id="filter26_d_154_3939" x="1.34058" y="31.1891" width="10.3103" height="11.6755" filterUnits="userSpaceOnUse" color-interpolation-filters="sRGB">
<feFlood flood-opacity="0" result="BackgroundImageFix"/>
<feColorMatrix in="SourceAlpha" type="matrix" values="0 0 0 0 0 0 0 0 0 0 0 0 0 0 0 0 0 0 127 0" result="hardAlpha"/>
<feOffset dy="4"/>
<feGaussianBlur stdDeviation="2"/>
<feComposite in2="hardAlpha" operator="out"/>
<feColorMatrix type="matrix" values="0 0 0 0 0 0 0 0 0 0 0 0 0 0 0 0 0 0 0.25 0"/>
<feBlend mode="normal" in2="BackgroundImageFix" result="effect1_dropShadow_154_3939"/>
<feBlend mode="normal" in="SourceGraphic" in2="effect1_dropShadow_154_3939" result="shape"/>
</filter>
<filter id="filter27_d_154_3939" x="15.0972" y="0.210052" width="13.0405" height="10.5203" filterUnits="userSpaceOnUse" color-interpolation-filters="sRGB">
<feFlood flood-opacity="0" result="BackgroundImageFix"/>
<feColorMatrix in="SourceAlpha" type="matrix" values="0 0 0 0 0 0 0 0 0 0 0 0 0 0 0 0 0 0 127 0" result="hardAlpha"/>
<feOffset dy="4"/>
<feGaussianBlur stdDeviation="2"/>
<feComposite in2="hardAlpha" operator="out"/>
<feColorMatrix type="matrix" values="0 0 0 0 0 0 0 0 0 0 0 0 0 0 0 0 0 0 0.25 0"/>
<feBlend mode="normal" in2="BackgroundImageFix" result="effect1_dropShadow_154_3939"/>
<feBlend mode="normal" in="SourceGraphic" in2="effect1_dropShadow_154_3939" result="shape"/>
</filter>
<filter id="filter28_d_154_3939" x="14.8875" y="0" width="13.4607" height="10.9404" filterUnits="userSpaceOnUse" color-interpolation-filters="sRGB">
<feFlood flood-opacity="0" result="BackgroundImageFix"/>
<feColorMatrix in="SourceAlpha" type="matrix" values="0 0 0 0 0 0 0 0 0 0 0 0 0 0 0 0 0 0 127 0" result="hardAlpha"/>
<feOffset dy="4"/>
<feGaussianBlur stdDeviation="2"/>
<feComposite in2="hardAlpha" operator="out"/>
<feColorMatrix type="matrix" values="0 0 0 0 0 0 0 0 0 0 0 0 0 0 0 0 0 0 0.25 0"/>
<feBlend mode="normal" in2="BackgroundImageFix" result="effect1_dropShadow_154_3939"/>
<feBlend mode="normal" in="SourceGraphic" in2="effect1_dropShadow_154_3939" result="shape"/>
</filter>
<filter id="filter29_d_154_3939" x="1.2356" y="4.51559" width="17.8713" height="19.6565" filterUnits="userSpaceOnUse" color-interpolation-filters="sRGB">
<feFlood flood-opacity="0" result="BackgroundImageFix"/>
<feColorMatrix in="SourceAlpha" type="matrix" values="0 0 0 0 0 0 0 0 0 0 0 0 0 0 0 0 0 0 127 0" result="hardAlpha"/>
<feOffset dy="4"/>
<feGaussianBlur stdDeviation="2"/>
<feComposite in2="hardAlpha" operator="out"/>
<feColorMatrix type="matrix" values="0 0 0 0 0 0 0 0 0 0 0 0 0 0 0 0 0 0 0.25 0"/>
<feBlend mode="normal" in2="BackgroundImageFix" result="effect1_dropShadow_154_3939"/>
<feBlend mode="normal" in="SourceGraphic" in2="effect1_dropShadow_154_3939" result="shape"/>
</filter>
<filter id="filter30_d_154_3939" x="1.13062" y="4.30557" width="18.0813" height="20.0766" filterUnits="userSpaceOnUse" color-interpolation-filters="sRGB">
<feFlood flood-opacity="0" result="BackgroundImageFix"/>
<feColorMatrix in="SourceAlpha" type="matrix" values="0 0 0 0 0 0 0 0 0 0 0 0 0 0 0 0 0 0 127 0" result="hardAlpha"/>
<feOffset dy="4"/>
<feGaussianBlur stdDeviation="2"/>
<feComposite in2="hardAlpha" operator="out"/>
<feColorMatrix type="matrix" values="0 0 0 0 0 0 0 0 0 0 0 0 0 0 0 0 0 0 0.25 0"/>
<feBlend mode="normal" in2="BackgroundImageFix" result="effect1_dropShadow_154_3939"/>
<feBlend mode="normal" in="SourceGraphic" in2="effect1_dropShadow_154_3939" result="shape"/>
</filter>
<filter id="filter31_d_154_3939" x="18.563" y="47.6762" width="8.73511" height="9.36517" filterUnits="userSpaceOnUse" color-interpolation-filters="sRGB">
<feFlood flood-opacity="0" result="BackgroundImageFix"/>
<feColorMatrix in="SourceAlpha" type="matrix" values="0 0 0 0 0 0 0 0 0 0 0 0 0 0 0 0 0 0 127 0" result="hardAlpha"/>
<feOffset dy="4"/>
<feGaussianBlur stdDeviation="2"/>
<feComposite in2="hardAlpha" operator="out"/>
<feColorMatrix type="matrix" values="0 0 0 0 0 0 0 0 0 0 0 0 0 0 0 0 0 0 0.25 0"/>
<feBlend mode="normal" in2="BackgroundImageFix" result="effect1_dropShadow_154_3939"/>
<feBlend mode="normal" in="SourceGraphic" in2="effect1_dropShadow_154_3939" result="shape"/>
</filter>
<filter id="filter32_d_154_3939" x="19.2979" y="47.7812" width="8.73511" height="9.47021" filterUnits="userSpaceOnUse" color-interpolation-filters="sRGB">
<feFlood flood-opacity="0" result="BackgroundImageFix"/>
<feColorMatrix in="SourceAlpha" type="matrix" values="0 0 0 0 0 0 0 0 0 0 0 0 0 0 0 0 0 0 127 0" result="hardAlpha"/>
<feOffset dy="4"/>
<feGaussianBlur stdDeviation="2"/>
<feComposite in2="hardAlpha" operator="out"/>
<feColorMatrix type="matrix" values="0 0 0 0 0 0 0 0 0 0 0 0 0 0 0 0 0 0 0.25 0"/>
<feBlend mode="normal" in2="BackgroundImageFix" result="effect1_dropShadow_154_3939"/>
<feBlend mode="normal" in="SourceGraphic" in2="effect1_dropShadow_154_3939" result="shape"/>
</filter>
<filter id="filter33_d_154_3939" x="20.1379" y="47.9913" width="8.52515" height="9.47018" filterUnits="userSpaceOnUse" color-interpolation-filters="sRGB">
<feFlood flood-opacity="0" result="BackgroundImageFix"/>
<feColorMatrix in="SourceAlpha" type="matrix" values="0 0 0 0 0 0 0 0 0 0 0 0 0 0 0 0 0 0 127 0" result="hardAlpha"/>
<feOffset dy="4"/>
<feGaussianBlur stdDeviation="2"/>
<feComposite in2="hardAlpha" operator="out"/>
<feColorMatrix type="matrix" values="0 0 0 0 0 0 0 0 0 0 0 0 0 0 0 0 0 0 0.25 0"/>
<feBlend mode="normal" in2="BackgroundImageFix" result="effect1_dropShadow_154_3939"/>
<feBlend mode="normal" in="SourceGraphic" in2="effect1_dropShadow_154_3939" result="shape"/>
</filter>
</defs>
</svg>
