<svg width="1523" height="1421" viewBox="0 0 1523 1421" fill="none" xmlns="http://www.w3.org/2000/svg">
<g filter="url(#filter0_d_426_197)">
<path fill-rule="evenodd" clip-rule="evenodd" d="M499.1 1265.21C478.586 1265.21 455.508 1260.09 429.865 1249.84C347.808 1211.4 334.986 1108.91 327.293 1024.35C322.165 988.473 319.6 960.286 311.907 939.787C296.522 901.35 268.315 865.477 242.672 829.603C206.772 786.042 176 742.481 176 701.482C176 652.796 217.029 611.797 260.622 565.673C291.393 537.487 319.6 506.738 340.115 473.427C363.193 434.99 376.015 388.867 386.272 342.743C401.658 268.433 419.608 199.248 499.1 191.561C532.436 188.998 573.465 194.123 617.058 199.248C660.651 204.372 704.243 209.497 740.143 206.935C783.736 201.81 819.636 188.998 855.536 176.186C901.693 158.249 945.286 142.874 994.008 147.999C1104.27 155.686 1129.92 255.621 1152.99 345.306C1160.69 383.742 1170.94 422.178 1186.33 447.803C1204.28 475.989 1227.36 501.613 1253 527.237C1299.16 575.923 1345.32 624.609 1345.32 693.794C1345.32 770.667 1291.47 809.103 1232.49 847.539C1194.02 873.164 1158.12 898.788 1132.48 934.662C1106.84 973.099 1096.58 1008.97 1088.89 1042.28C1076.07 1083.28 1068.37 1119.16 1027.34 1144.78C983.751 1172.97 924.772 1170.4 868.358 1165.28C849.553 1165.28 831.603 1164.43 814.508 1162.72C740.143 1162.72 681.165 1193.47 632.444 1221.65C588.851 1244.71 547.822 1265.21 499.1 1265.21ZM347.808 478.551C327.293 511.863 296.522 542.612 268.315 573.361C224.722 614.36 183.693 655.358 183.693 701.482C183.693 739.918 214.464 780.917 247.8 824.478C276.007 860.352 304.215 896.225 319.6 937.224C327.293 957.723 329.858 988.473 334.986 1021.78C345.243 1103.78 355.5 1206.28 432.429 1242.15C509.357 1275.46 563.208 1247.28 627.315 1213.97C678.601 1185.78 737.579 1155.03 814.508 1155.03C832.458 1155.03 850.408 1157.59 868.358 1157.59C924.772 1160.15 981.186 1165.28 1022.22 1137.09C1060.68 1114.03 1068.37 1080.72 1078.63 1039.72C1088.89 1006.41 1099.14 967.973 1124.79 929.537C1150.43 891.101 1188.89 865.477 1227.36 839.852C1283.77 801.416 1337.62 765.542 1337.62 693.794C1337.62 629.734 1291.47 581.048 1245.31 532.362C1222.23 506.738 1196.59 481.113 1178.64 450.364C1163.25 424.74 1152.99 386.304 1142.74 347.868C1122.22 260.745 1096.58 163.373 994.008 155.686C945.286 153.124 904.258 168.498 858.101 183.873C822.201 196.685 783.736 209.497 740.143 214.622C704.243 217.185 660.651 212.059 617.058 206.935C573.465 201.81 532.436 196.685 499.1 199.248C427.3 206.935 411.914 270.996 393.964 345.306C383.707 391.429 373.45 437.552 347.808 478.551Z" fill="#36C6D6"/>
</g>
<g filter="url(#filter1_d_426_197)">
<path fill-rule="evenodd" clip-rule="evenodd" d="M406.608 1412.8C379.768 1412.8 352.927 1407.08 320.122 1392.78C212.76 1347.02 206.795 1201.16 203.813 1092.49C200.831 1046.73 200.83 1009.55 191.884 986.671C173.99 932.332 129.256 883.713 87.5036 837.955C45.7516 792.196 4 746.438 4 703.539C4 649.201 57.6808 603.442 117.326 554.823C162.061 517.644 209.777 480.465 236.618 434.706C272.405 380.368 284.335 311.73 293.281 251.672C308.193 151.575 323.104 65.7777 430.466 65.7777C466.254 65.7777 510.988 77.2177 561.687 85.7974C621.332 100.097 683.96 111.536 728.695 105.816C785.358 100.096 836.057 77.2173 880.791 51.4781C937.455 25.7389 988.154 0 1050.78 0C1202.88 0 1229.72 137.276 1250.59 257.392C1262.52 311.731 1271.47 363.209 1292.35 394.668C1316.2 431.847 1354.97 463.306 1390.76 494.765C1453.39 551.963 1519 609.162 1519 689.24C1519 786.477 1441.46 826.515 1357.96 869.414C1301.29 898.013 1244.63 929.472 1208.84 975.231C1170.07 1029.57 1164.11 1078.19 1158.14 1121.09C1152.18 1166.84 1146.21 1209.74 1098.5 1238.34C1053.76 1269.8 988.153 1261.22 922.543 1252.64C895.703 1249.78 868.862 1246.92 845.004 1246.92C737.641 1246.92 657.12 1295.54 588.528 1338.44C528.882 1375.62 472.219 1412.8 406.608 1412.8ZM430.466 77.2172C332.051 77.2172 320.122 154.435 302.228 254.532C293.282 314.59 281.352 383.228 245.565 440.427C215.742 486.185 168.026 523.365 123.291 560.543C66.628 609.162 12.9465 652.061 12.9465 703.539C12.9465 740.718 51.7163 786.477 96.4505 832.235C135.22 877.994 182.937 926.612 200.83 983.81C209.777 1006.69 212.76 1046.73 212.76 1092.49C218.724 1204.02 221.706 1341.3 326.086 1384.2C427.484 1429.96 499.059 1384.2 582.563 1332.72C654.138 1286.96 734.659 1238.34 845.004 1238.34C868.862 1238.34 898.685 1241.2 925.526 1244.06C985.171 1252.64 1050.78 1258.36 1095.52 1229.76C1137.27 1204.02 1143.23 1166.85 1149.2 1118.23C1155.16 1075.33 1161.13 1023.85 1199.9 969.511C1235.68 920.892 1295.33 892.294 1351.99 860.834C1432.51 820.796 1510.05 780.757 1510.05 689.24C1510.05 612.022 1447.43 557.684 1384.8 503.345C1346.03 471.886 1307.26 437.567 1283.4 400.388C1262.52 366.069 1253.58 314.591 1241.65 257.392C1220.77 142.996 1193.93 11.4395 1050.78 11.4395C991.136 11.4395 940.437 34.3191 886.756 60.0584C839.04 85.7976 788.34 108.677 728.695 117.257C683.96 122.977 621.333 108.677 558.705 97.2369C510.988 85.7973 463.271 77.2172 430.466 77.2172Z" fill="#08FA81"/>
</g>
<defs>
<filter id="filter0_d_426_197" x="172" y="147" width="1177.32" height="1126.21" filterUnits="userSpaceOnUse" color-interpolation-filters="sRGB">
<feFlood flood-opacity="0" result="BackgroundImageFix"/>
<feColorMatrix in="SourceAlpha" type="matrix" values="0 0 0 0 0 0 0 0 0 0 0 0 0 0 0 0 0 0 127 0" result="hardAlpha"/>
<feOffset dy="4"/>
<feGaussianBlur stdDeviation="2"/>
<feComposite in2="hardAlpha" operator="out"/>
<feColorMatrix type="matrix" values="0 0 0 0 0 0 0 0 0 0 0 0 0 0 0 0 0 0 0.25 0"/>
<feBlend mode="normal" in2="BackgroundImageFix" result="effect1_dropShadow_426_197"/>
<feBlend mode="normal" in="SourceGraphic" in2="effect1_dropShadow_426_197" result="shape"/>
</filter>
<filter id="filter1_d_426_197" x="0" y="0" width="1523" height="1420.8" filterUnits="userSpaceOnUse" color-interpolation-filters="sRGB">
<feFlood flood-opacity="0" result="BackgroundImageFix"/>
<feColorMatrix in="SourceAlpha" type="matrix" values="0 0 0 0 0 0 0 0 0 0 0 0 0 0 0 0 0 0 127 0" result="hardAlpha"/>
<feOffset dy="4"/>
<feGaussianBlur stdDeviation="2"/>
<feComposite in2="hardAlpha" operator="out"/>
<feColorMatrix type="matrix" values="0 0 0 0 0 0 0 0 0 0 0 0 0 0 0 0 0 0 0.25 0"/>
<feBlend mode="normal" in2="BackgroundImageFix" result="effect1_dropShadow_426_197"/>
<feBlend mode="normal" in="SourceGraphic" in2="effect1_dropShadow_426_197" result="shape"/>
</filter>
</defs>
</svg>
