<svg width="67" height="66" viewBox="0 0 67 66" fill="none" xmlns="http://www.w3.org/2000/svg">
<g filter="url(#filter0_d_168_4173)">
<path d="M40.2818 56.1049L40.1604 55.7406C43.4393 54.8905 46.5967 53.3118 49.2683 51.2473L49.5112 51.6116C46.7181 53.6761 43.5607 55.2548 40.2818 56.1049Z" fill="#08FA81"/>
</g>
<g filter="url(#filter1_d_168_4173)">
<path d="M49.5111 51.6116L49.2682 51.2473C50.9683 50.0329 52.5066 48.5756 53.8829 46.8755C53.8829 46.8755 53.9233 46.8755 54.0043 46.8755C54.652 46.8755 55.2591 46.916 55.8259 46.9969C58.4975 43.4752 60.3191 39.4677 61.1692 35.3388C62.0193 30.967 61.8979 26.5952 60.8049 22.3448C59.712 18.2159 57.6475 14.2084 54.8544 10.9295C51.9398 7.65069 48.4181 4.97905 44.4106 3.2789L44.5321 2.91458C48.661 4.61473 52.3042 7.28638 55.0973 10.6867C58.0118 13.9655 60.0763 17.973 61.1692 22.2234C62.2622 26.4737 62.3836 31.0884 61.5335 35.3388C60.6834 39.7106 58.8619 43.8395 56.0688 47.2398C56.0688 47.3208 56.0283 47.3612 55.9473 47.3612C55.3806 47.3612 54.7734 47.3208 54.1258 47.2398C52.7495 48.859 51.2112 50.3163 49.5111 51.6116Z" fill="#08FA81"/>
</g>
<g filter="url(#filter2_d_168_4173)">
<path d="M52.547 12.1439C54.6115 14.4512 56.3116 17.1229 57.4046 20.1589C58.6189 23.0734 59.2261 26.2308 59.2261 29.3882C59.7119 29.7526 60.1976 29.9954 60.5619 30.2383C60.9263 30.6026 61.412 30.8455 61.8977 31.3313C62.1406 27.2023 61.412 22.952 59.9547 19.1874C58.4975 15.3013 56.1902 11.7796 53.1542 8.86505C53.0328 9.59369 53.0327 10.0795 52.9113 10.5652C52.7899 11.051 52.6684 11.5367 52.547 12.1439Z" fill="#08FA81"/>
</g>
<g filter="url(#filter3_d_168_4173)">
<path fill-rule="evenodd" clip-rule="evenodd" d="M61.8978 31.4527C61.8169 31.4527 61.7764 31.4527 61.7764 31.4527C61.1692 30.967 60.8049 30.7241 60.4406 30.4812C60.0763 30.2383 59.7119 29.874 59.1048 29.5097C59.0238 29.5097 58.9833 29.4692 58.9833 29.3883C58.9833 26.2309 58.3761 23.0734 57.2832 20.1589C56.1902 17.2444 54.4901 14.5727 52.4256 12.2654C52.3446 12.1844 52.3042 12.1034 52.3042 12.0225C52.4256 11.5367 52.5471 11.051 52.6685 10.4438C52.7899 9.95802 52.9114 9.47226 52.9114 8.86507C52.9924 8.78411 53.0733 8.74364 53.1543 8.74364C53.2352 8.66268 53.2757 8.66268 53.2757 8.74364C56.3117 11.6582 58.619 15.1799 60.1977 19.066C61.655 22.952 62.2622 27.2024 62.0193 31.3313C62.0193 31.4122 61.9788 31.4527 61.8978 31.4527ZM59.4691 29.2668C59.9548 29.6311 60.3191 29.874 60.6834 30.1169C61.0073 30.3598 61.3312 30.6026 61.655 30.8455C61.8979 26.9595 61.1693 22.8306 59.8334 19.1874C58.3762 15.5442 56.0688 12.1439 53.2757 9.35084C53.1947 9.75563 53.1138 10.1604 53.0328 10.5652C53.0328 11.051 52.9113 11.5367 52.7899 12.0225C54.8544 14.4513 56.5545 17.1229 57.6475 20.0374C58.7404 22.952 59.3476 26.1094 59.4691 29.2668Z" fill="#08FA81"/>
</g>
<g filter="url(#filter4_d_168_4173)">
<path d="M59.2263 31.2099C60.0359 31.8576 60.8455 32.5862 61.6551 33.3958C61.6551 33.6387 61.6146 33.922 61.5336 34.2459C60.724 33.4363 59.9145 32.7076 59.1049 32.06C59.1049 31.7361 59.1454 31.4528 59.2263 31.2099Z" fill="#08FA81"/>
</g>
<g filter="url(#filter5_d_168_4173)">
<path fill-rule="evenodd" clip-rule="evenodd" d="M61.655 34.6101L61.4121 34.3673C60.6025 33.5577 59.7929 32.829 58.9833 32.1814L58.8618 32.0599C58.9428 31.7361 58.9833 31.4527 58.9833 31.2099V30.8456L59.3476 31.0884C60.1572 31.7361 60.9668 32.4242 61.7764 33.1529L61.8978 33.2743V33.3958C61.8168 33.6386 61.7764 33.922 61.7764 34.2458L61.655 34.6101ZM59.2262 31.9385C59.9548 32.5052 60.6834 33.1124 61.4121 33.7601C61.4121 33.5982 61.4121 33.4767 61.4121 33.3958C60.7644 32.7481 60.0762 32.1409 59.3476 31.5742C59.2666 31.6551 59.2262 31.7766 59.2262 31.9385Z" fill="#08FA81"/>
</g>
<g filter="url(#filter6_d_168_4173)">
<path d="M58.862 33.8815C59.6716 34.6101 60.4407 35.3792 61.1694 36.1888C61.0884 36.5126 61.0074 36.796 60.9265 37.0389C60.1979 36.2293 59.4692 35.4197 58.7406 34.6101C58.8216 34.3672 58.862 34.1243 58.862 33.8815Z" fill="#08FA81"/>
</g>
<g filter="url(#filter7_d_168_4173)">
<path fill-rule="evenodd" clip-rule="evenodd" d="M61.0478 37.5247L60.8049 37.2818C60.0763 36.3912 59.3477 35.5817 58.619 34.853L58.4976 34.7316V34.6101C58.5785 34.2863 58.6595 34.0434 58.7405 33.8815V33.5172L58.9833 33.7601C59.7929 34.4887 60.562 35.2578 61.2906 36.0674L61.4121 36.1888L61.2906 36.3103C61.2906 36.6341 61.2502 36.9175 61.1692 37.1604L61.0478 37.5247ZM58.9833 34.6101C59.631 35.2578 60.2382 35.946 60.8049 36.6746C60.8859 36.5127 60.9263 36.3912 60.9263 36.3103C60.2787 35.5816 59.631 34.8935 58.9833 34.2458C58.9833 34.3268 58.9833 34.4482 58.9833 34.6101Z" fill="#08FA81"/>
</g>
<g filter="url(#filter8_d_168_4173)">
<path d="M58.2547 36.4318C58.9833 37.2414 59.6715 38.1319 60.3192 39.1034C60.2382 39.3463 60.1573 39.6297 60.0763 39.9535C59.4286 38.982 58.781 38.0914 58.1333 37.2819C58.2143 37.039 58.2547 36.7556 58.2547 36.4318Z" fill="#08FA81"/>
</g>
<g filter="url(#filter9_d_168_4173)">
<path fill-rule="evenodd" clip-rule="evenodd" d="M60.0761 40.3178L59.8333 39.9535C59.2666 39.0629 58.6189 38.2129 57.8903 37.4033V37.2818V37.1604C57.9712 36.9175 58.0522 36.6746 58.1332 36.4317L58.2546 36.0674L58.4975 36.3103C59.2261 37.1199 59.8738 38.0105 60.4405 38.982H60.5619V39.1034C60.4 39.4273 60.2786 39.7106 60.1976 39.9535L60.0761 40.3178ZM58.376 37.1604C58.9428 37.889 59.469 38.6581 59.9547 39.4677C60.0357 39.3058 60.0761 39.1844 60.0761 39.1034C59.5904 38.2938 59.0237 37.5652 58.376 36.9175C58.376 36.9985 58.376 37.0794 58.376 37.1604Z" fill="#08FA81"/>
</g>
<g filter="url(#filter10_d_168_4173)">
<path d="M44.6535 3.15748C42.7914 2.34789 40.8483 1.74069 38.8243 1.33589C39.2291 0.931097 39.6745 0.566788 40.1602 0.24295C41.5365 0.566788 42.9128 1.01205 44.2891 1.57877C44.451 2.06452 44.5725 2.59076 44.6535 3.15748Z" fill="#08FA81"/>
</g>
<g filter="url(#filter11_d_168_4173)">
<path fill-rule="evenodd" clip-rule="evenodd" d="M44.6535 3.40029C44.6535 3.40029 44.613 3.35983 44.532 3.27887C42.6699 2.46927 40.7674 1.86208 38.8244 1.45728C38.7434 1.45728 38.6625 1.4168 38.5815 1.33584C38.5815 1.25488 38.622 1.21439 38.703 1.21439C39.1077 0.809593 39.5125 0.404797 39.9173 0C39.9983 0 40.0793 0 40.1602 0C41.6175 0.323837 42.9938 0.769121 44.2891 1.33584C44.3701 1.33584 44.4106 1.37632 44.4106 1.45728C44.5725 2.024 44.7344 2.59071 44.8963 3.15742C44.8963 3.23838 44.8559 3.27887 44.7749 3.27887C44.7749 3.35983 44.7345 3.40029 44.6535 3.40029ZM39.3101 1.21439C41.0103 1.61919 42.7105 2.14543 44.4106 2.7931C44.3296 2.46926 44.2082 2.10495 44.0463 1.70016C42.7509 1.2144 41.4556 0.809604 40.1602 0.485767C39.8364 0.728645 39.553 0.971512 39.3101 1.21439Z" fill="#08FA81"/>
</g>
<g filter="url(#filter12_d_168_4173)">
<path d="M59.8333 18.7016C58.7403 16.03 57.283 13.6012 55.4614 11.4153C53.7613 9.22939 51.6968 7.28637 49.2681 5.70766C49.8348 5.54574 50.4015 5.38381 50.9682 5.22189C55.0971 8.25787 58.4974 12.5082 60.6833 17.2444C60.3594 17.7301 60.0762 18.2159 59.8333 18.7016Z" fill="#08FA81"/>
</g>
<g filter="url(#filter13_d_168_4173)">
<path fill-rule="evenodd" clip-rule="evenodd" d="M59.8335 18.9445C59.7526 18.8636 59.6716 18.8231 59.5906 18.8231C58.4977 16.1514 57.1619 13.7227 55.3403 11.5368C53.6401 9.35086 51.5756 7.52929 49.1469 5.95058C49.1469 5.86962 49.1469 5.78867 49.1469 5.70771C49.1469 5.62675 49.1874 5.58626 49.2683 5.58626C49.835 5.34338 50.3613 5.14098 50.847 4.97906C50.928 4.97906 51.009 5.01955 51.0899 5.10051C55.3403 8.13649 58.6191 12.3868 60.805 17.123C60.805 17.2039 60.805 17.2849 60.805 17.3658C60.5622 17.8516 60.2788 18.3373 59.9549 18.8231C59.9549 18.9041 59.9145 18.9445 59.8335 18.9445ZM49.754 5.82913C51.9399 7.36736 53.9235 9.18895 55.7046 11.2939C57.4047 13.3988 58.7811 15.7062 59.8335 18.2159C59.9955 17.8921 60.1979 17.5682 60.4407 17.2444C58.2548 12.5083 54.976 8.50079 50.847 5.46481C50.5232 5.54577 50.1588 5.66722 49.754 5.82913Z" fill="#08FA81"/>
</g>
<g filter="url(#filter14_d_168_4173)">
<path d="M40.1602 56.7121L39.7959 55.2548L40.1602 55.1334L40.6459 56.7121H40.1602Z" fill="#08FA81"/>
</g>
<g filter="url(#filter15_d_168_4173)">
<path d="M39.3102 56.9549L38.9459 55.3762L39.3102 55.2548L39.6745 56.8335L39.3102 56.9549Z" fill="#08FA81"/>
</g>
<g filter="url(#filter16_d_168_4173)">
<path d="M38.4599 57.1978L38.217 55.619L38.5814 55.4976L38.8242 57.0763L38.4599 57.1978Z" fill="#08FA81"/>
</g>
<g filter="url(#filter17_d_168_4173)">
<path d="M25.8305 56.1049C22.5516 55.2548 19.3942 53.6761 16.6011 51.6116L16.844 51.2473C19.5156 53.3118 22.673 54.8905 25.9519 55.7406L25.8305 56.1049Z" fill="#08FA81"/>
</g>
<g filter="url(#filter18_d_168_4173)">
<path d="M16.601 51.6116C14.9009 50.3163 13.3627 48.859 11.9864 47.2398C11.3387 47.3208 10.7315 47.3612 10.1648 47.3612C10.0838 47.3612 10.0028 47.3208 9.92189 47.2398C7.25023 43.8395 5.42869 39.7106 4.57862 35.3388C3.72855 31.0884 3.84997 26.4737 4.94292 22.2234C6.03587 17.973 8.10033 13.9655 11.0149 10.6867C13.808 7.28638 17.4511 4.61473 21.5801 2.91458L21.7015 3.2789C17.694 4.97905 14.1723 7.65069 11.2578 10.9295C8.46467 14.2084 6.40017 18.2159 5.30722 22.3448C4.21427 26.5952 4.09285 30.967 4.94292 35.3388C5.79299 39.4677 7.61453 43.4752 10.2862 46.9969C10.8529 46.916 11.4601 46.8755 12.1078 46.8755C12.1887 46.8755 12.2293 46.8755 12.2293 46.8755C13.6056 48.5756 15.1438 50.0329 16.8439 51.2473L16.601 51.6116Z" fill="#08FA81"/>
</g>
<g filter="url(#filter19_d_168_4173)">
<path d="M13.5651 12.1439C11.5006 14.4512 9.8005 17.1229 8.70755 20.1589C7.49316 23.0734 6.88596 26.2308 6.88596 29.3882C6.40021 29.7526 5.91448 29.9954 5.55016 30.2383C5.18585 30.6026 4.70005 30.8455 4.21429 31.3313C3.97141 27.2023 4.57865 22.952 6.15736 19.1874C7.61463 15.3013 9.92194 11.7796 12.9579 8.86505C13.0794 9.59369 13.0794 10.0795 13.2008 10.5652C13.3222 11.051 13.4437 11.5367 13.5651 12.1439Z" fill="#08FA81"/>
</g>
<g filter="url(#filter20_d_168_4173)">
<path fill-rule="evenodd" clip-rule="evenodd" d="M4.21425 31.4527C4.13329 31.4527 4.09284 31.4122 4.09284 31.3313C3.72852 27.2024 4.45716 22.952 5.91443 19.066C7.49313 15.1799 9.80049 11.6582 12.8365 8.74364C12.8365 8.66268 12.8769 8.66268 12.9579 8.74364C13.0388 8.74364 13.0794 8.78411 13.0794 8.86507C13.2008 9.47226 13.3222 9.95802 13.4437 10.4438C13.5651 11.051 13.6865 11.5367 13.808 12.0225C13.808 12.1034 13.7675 12.1844 13.6865 12.2654C11.6221 14.5727 9.92194 17.2444 8.82899 20.1589C7.73604 23.0734 7.12881 26.2309 7.12881 29.3883C7.12881 29.4692 7.08836 29.5097 7.00741 29.5097C6.40021 29.874 6.03585 30.2383 5.67153 30.4812C5.30722 30.7241 4.94293 30.967 4.33573 31.4527C4.33573 31.4527 4.29521 31.4527 4.21425 31.4527ZM12.8365 9.35084C10.0434 12.1439 7.736 15.5442 6.27873 19.1874C4.9429 22.8306 4.21426 26.9595 4.45714 30.8455C4.78098 30.6026 5.1048 30.3598 5.42864 30.1169C5.79296 29.874 6.15727 29.6311 6.64303 29.2668C6.76447 26.1094 7.37166 22.952 8.46461 20.0374C9.55756 17.1229 11.2577 14.4513 13.3222 12.0225C13.2007 11.5367 13.0793 11.051 12.9579 10.5652C12.8769 10.1604 12.8365 9.75563 12.8365 9.35084Z" fill="#08FA81"/>
</g>
<g filter="url(#filter21_d_168_4173)">
<path d="M6.88618 31.2099C6.07658 31.8576 5.26699 32.5862 4.4574 33.3958C4.4574 33.6387 4.49792 33.922 4.57888 34.2459C5.30751 33.4363 6.11711 32.7076 7.00766 32.06C7.00766 31.7361 6.96714 31.4528 6.88618 31.2099Z" fill="#08FA81"/>
</g>
<g filter="url(#filter22_d_168_4173)">
<path fill-rule="evenodd" clip-rule="evenodd" d="M4.45713 34.6101L4.33572 34.2458C4.33572 33.922 4.29519 33.6386 4.21423 33.3958V33.2743L4.33572 33.1529C5.06435 32.4242 5.87394 31.7361 6.7645 31.0884L7.1288 30.8456V31.2099C7.1288 31.4527 7.16925 31.7361 7.25021 32.0599L7.1288 32.1814C6.31921 32.829 5.50961 33.5577 4.70002 34.3673L4.45713 34.6101ZM4.70002 33.3958C4.70002 33.4767 4.70002 33.5982 4.70002 33.7601C5.42865 33.1124 6.11682 32.5052 6.7645 31.9385C6.7645 31.7766 6.7645 31.6551 6.7645 31.5742C6.03586 32.1409 5.34769 32.7481 4.70002 33.3958Z" fill="#08FA81"/>
</g>
<g filter="url(#filter23_d_168_4173)">
<path d="M7.25029 33.8815C6.4407 34.6101 5.67163 35.3792 4.94299 36.1888C5.02395 36.5126 5.10493 36.796 5.18589 37.0389C5.91452 36.2293 6.64314 35.4197 7.37177 34.6101C7.29081 34.3672 7.25029 34.1243 7.25029 33.8815Z" fill="#08FA81"/>
</g>
<g filter="url(#filter24_d_168_4173)">
<path fill-rule="evenodd" clip-rule="evenodd" d="M5.06425 37.5247L4.94284 37.1604C4.86188 36.9175 4.78091 36.6341 4.69995 36.3103V36.1888L4.82136 36.0674C5.54999 35.2578 6.31914 34.4887 7.12873 33.7601L7.37162 33.5172V33.8815C7.45258 34.0434 7.53356 34.2863 7.61452 34.6101V34.7316L7.49303 34.853C6.7644 35.5817 6.03578 36.3912 5.30715 37.2818L5.06425 37.5247ZM5.18574 36.1888C5.18574 36.3508 5.22619 36.4722 5.30715 36.5532C5.87386 35.8245 6.48106 35.1364 7.12873 34.4887C7.12873 34.4077 7.12873 34.3268 7.12873 34.2458C6.48106 34.8935 5.83341 35.5412 5.18574 36.1888Z" fill="#08FA81"/>
</g>
<g filter="url(#filter25_d_168_4173)">
<path d="M7.73596 36.4318C7.08829 37.2414 6.44064 38.1319 5.79297 39.1034C5.87393 39.3463 5.95483 39.6297 6.03579 39.9535C6.68346 38.982 7.33118 38.0914 7.97886 37.2819C7.8979 37.039 7.81692 36.7556 7.73596 36.4318Z" fill="#08FA81"/>
</g>
<g filter="url(#filter26_d_168_4173)">
<path fill-rule="evenodd" clip-rule="evenodd" d="M6.036 40.3178L5.9146 39.9535C5.83364 39.7106 5.71221 39.4273 5.55029 39.1034V38.982C6.19797 38.0105 6.88614 37.1199 7.61477 36.3103L7.85759 36.0674L7.97907 36.4317C8.06003 36.6746 8.14101 36.9175 8.22197 37.1604V37.2818V37.4033C7.49333 38.2129 6.84561 39.0629 6.2789 39.9535L6.036 40.3178ZM5.9146 39.1034C5.99555 39.2653 6.07653 39.3868 6.15749 39.4677C6.64324 38.6581 7.16946 37.9295 7.73618 37.2818C7.73618 37.1199 7.69573 36.9985 7.61477 36.9175C7.04806 37.6461 6.48131 38.3748 5.9146 39.1034Z" fill="#08FA81"/>
</g>
<g filter="url(#filter27_d_168_4173)">
<path d="M21.4585 3.15748C23.3206 2.34789 25.2636 1.74069 27.2876 1.33589C26.8828 0.931097 26.4375 0.566788 25.9518 0.24295C24.5754 0.566788 23.1991 1.01205 21.8228 1.57877C21.6609 2.06452 21.5395 2.59076 21.4585 3.15748Z" fill="#08FA81"/>
</g>
<g filter="url(#filter28_d_168_4173)">
<path fill-rule="evenodd" clip-rule="evenodd" d="M21.4588 3.40029C21.3779 3.40029 21.3374 3.35983 21.3374 3.27887C21.2565 3.27887 21.2159 3.23838 21.2159 3.15742C21.3779 2.59071 21.5398 2.024 21.7017 1.45728C21.7017 1.37632 21.7422 1.33584 21.8231 1.33584C23.1185 0.769121 24.4948 0.323837 25.9521 0C26.0331 0 26.0735 0 26.0735 0C26.5593 0.404797 27.0046 0.809593 27.4094 1.21439C27.4903 1.21439 27.5308 1.25488 27.5308 1.33584C27.4498 1.4168 27.3688 1.45728 27.2879 1.45728C25.3449 1.86208 23.4424 2.46927 21.5803 3.27887C21.4994 3.35983 21.4588 3.40029 21.4588 3.40029ZM22.066 1.70016C21.9041 2.10495 21.7827 2.46926 21.7017 2.7931C23.4019 2.14543 25.102 1.61919 26.8022 1.21439C26.5593 0.971512 26.2759 0.728645 25.9521 0.485767C24.5758 0.809604 23.2804 1.2144 22.066 1.70016Z" fill="#08FA81"/>
</g>
<g filter="url(#filter29_d_168_4173)">
<path d="M6.27855 18.7016C7.37151 16.03 8.82882 13.6012 10.6504 11.4153C12.3505 9.22939 14.415 7.28637 16.8438 5.70766C16.277 5.54574 15.7103 5.38381 15.1436 5.22189C11.0147 8.25787 7.61437 12.5082 5.42847 17.2444C5.7523 17.7301 6.03568 18.2159 6.27855 18.7016Z" fill="#08FA81"/>
</g>
<g filter="url(#filter30_d_168_4173)">
<path fill-rule="evenodd" clip-rule="evenodd" d="M6.27875 18.9445C6.19779 18.9445 6.15734 18.9041 6.15734 18.8231C5.8335 18.3373 5.55013 17.8516 5.30725 17.3658C5.30725 17.2849 5.30725 17.2039 5.30725 17.123C7.49315 12.3868 10.772 8.13649 15.0224 5.10051C15.1033 5.01955 15.1843 4.97906 15.2653 4.97906C15.751 5.14098 16.2772 5.34338 16.844 5.58626C16.9249 5.58626 16.9654 5.62675 16.9654 5.70771C16.9654 5.78867 16.9654 5.86962 16.9654 5.95058C14.5366 7.52929 12.4721 9.35086 10.772 11.5368C8.95042 13.7227 7.61459 16.1514 6.52164 18.8231C6.44068 18.8231 6.35971 18.8636 6.27875 18.9445ZM5.67155 17.2444C5.91443 17.5682 6.11683 17.8921 6.27875 18.2159C7.33122 15.7062 8.70756 13.3988 10.4077 11.2939C12.1078 9.18895 14.0913 7.36736 16.3582 5.82913C15.9534 5.66722 15.5891 5.54577 15.2653 5.46481C11.1363 8.50079 7.85745 12.5083 5.67155 17.2444Z" fill="#08FA81"/>
</g>
<g filter="url(#filter31_d_168_4173)">
<path d="M25.9517 56.7121H25.4659L25.9517 55.1334L26.316 55.2548L25.9517 56.7121Z" fill="#08FA81"/>
</g>
<g filter="url(#filter32_d_168_4173)">
<path d="M26.8021 56.9549L26.3163 56.8335L26.8021 55.2548L27.1664 55.3762L26.8021 56.9549Z" fill="#08FA81"/>
</g>
<g filter="url(#filter33_d_168_4173)">
<path d="M27.6522 57.1978L27.2878 57.0763L27.5307 55.4976L27.895 55.619L27.6522 57.1978Z" fill="#08FA81"/>
</g>
<defs>
<filter id="filter0_d_168_4173" x="36.1604" y="51.2473" width="17.3508" height="12.8575" filterUnits="userSpaceOnUse" color-interpolation-filters="sRGB">
<feFlood flood-opacity="0" result="BackgroundImageFix"/>
<feColorMatrix in="SourceAlpha" type="matrix" values="0 0 0 0 0 0 0 0 0 0 0 0 0 0 0 0 0 0 127 0" result="hardAlpha"/>
<feOffset dy="4"/>
<feGaussianBlur stdDeviation="2"/>
<feComposite in2="hardAlpha" operator="out"/>
<feColorMatrix type="matrix" values="0 0 0 0 0 0 0 0 0 0 0 0 0 0 0 0 0 0 0.25 0"/>
<feBlend mode="normal" in2="BackgroundImageFix" result="effect1_dropShadow_168_4173"/>
<feBlend mode="normal" in="SourceGraphic" in2="effect1_dropShadow_168_4173" result="shape"/>
</filter>
<filter id="filter1_d_168_4173" x="40.4106" y="2.91458" width="25.6808" height="56.697" filterUnits="userSpaceOnUse" color-interpolation-filters="sRGB">
<feFlood flood-opacity="0" result="BackgroundImageFix"/>
<feColorMatrix in="SourceAlpha" type="matrix" values="0 0 0 0 0 0 0 0 0 0 0 0 0 0 0 0 0 0 127 0" result="hardAlpha"/>
<feOffset dy="4"/>
<feGaussianBlur stdDeviation="2"/>
<feComposite in2="hardAlpha" operator="out"/>
<feColorMatrix type="matrix" values="0 0 0 0 0 0 0 0 0 0 0 0 0 0 0 0 0 0 0.25 0"/>
<feBlend mode="normal" in2="BackgroundImageFix" result="effect1_dropShadow_168_4173"/>
<feBlend mode="normal" in="SourceGraphic" in2="effect1_dropShadow_168_4173" result="shape"/>
</filter>
<filter id="filter2_d_168_4173" x="48.547" y="8.86505" width="17.3967" height="30.4662" filterUnits="userSpaceOnUse" color-interpolation-filters="sRGB">
<feFlood flood-opacity="0" result="BackgroundImageFix"/>
<feColorMatrix in="SourceAlpha" type="matrix" values="0 0 0 0 0 0 0 0 0 0 0 0 0 0 0 0 0 0 127 0" result="hardAlpha"/>
<feOffset dy="4"/>
<feGaussianBlur stdDeviation="2"/>
<feComposite in2="hardAlpha" operator="out"/>
<feColorMatrix type="matrix" values="0 0 0 0 0 0 0 0 0 0 0 0 0 0 0 0 0 0 0.25 0"/>
<feBlend mode="normal" in2="BackgroundImageFix" result="effect1_dropShadow_168_4173"/>
<feBlend mode="normal" in="SourceGraphic" in2="effect1_dropShadow_168_4173" result="shape"/>
</filter>
<filter id="filter3_d_168_4173" x="48.3042" y="8.68292" width="17.7672" height="30.7698" filterUnits="userSpaceOnUse" color-interpolation-filters="sRGB">
<feFlood flood-opacity="0" result="BackgroundImageFix"/>
<feColorMatrix in="SourceAlpha" type="matrix" values="0 0 0 0 0 0 0 0 0 0 0 0 0 0 0 0 0 0 127 0" result="hardAlpha"/>
<feOffset dy="4"/>
<feGaussianBlur stdDeviation="2"/>
<feComposite in2="hardAlpha" operator="out"/>
<feColorMatrix type="matrix" values="0 0 0 0 0 0 0 0 0 0 0 0 0 0 0 0 0 0 0.25 0"/>
<feBlend mode="normal" in2="BackgroundImageFix" result="effect1_dropShadow_168_4173"/>
<feBlend mode="normal" in="SourceGraphic" in2="effect1_dropShadow_168_4173" result="shape"/>
</filter>
<filter id="filter4_d_168_4173" x="55.1049" y="31.2099" width="10.5503" height="11.036" filterUnits="userSpaceOnUse" color-interpolation-filters="sRGB">
<feFlood flood-opacity="0" result="BackgroundImageFix"/>
<feColorMatrix in="SourceAlpha" type="matrix" values="0 0 0 0 0 0 0 0 0 0 0 0 0 0 0 0 0 0 127 0" result="hardAlpha"/>
<feOffset dy="4"/>
<feGaussianBlur stdDeviation="2"/>
<feComposite in2="hardAlpha" operator="out"/>
<feColorMatrix type="matrix" values="0 0 0 0 0 0 0 0 0 0 0 0 0 0 0 0 0 0 0.25 0"/>
<feBlend mode="normal" in2="BackgroundImageFix" result="effect1_dropShadow_168_4173"/>
<feBlend mode="normal" in="SourceGraphic" in2="effect1_dropShadow_168_4173" result="shape"/>
</filter>
<filter id="filter5_d_168_4173" x="54.8618" y="30.8456" width="11.036" height="11.7646" filterUnits="userSpaceOnUse" color-interpolation-filters="sRGB">
<feFlood flood-opacity="0" result="BackgroundImageFix"/>
<feColorMatrix in="SourceAlpha" type="matrix" values="0 0 0 0 0 0 0 0 0 0 0 0 0 0 0 0 0 0 127 0" result="hardAlpha"/>
<feOffset dy="4"/>
<feGaussianBlur stdDeviation="2"/>
<feComposite in2="hardAlpha" operator="out"/>
<feColorMatrix type="matrix" values="0 0 0 0 0 0 0 0 0 0 0 0 0 0 0 0 0 0 0.25 0"/>
<feBlend mode="normal" in2="BackgroundImageFix" result="effect1_dropShadow_168_4173"/>
<feBlend mode="normal" in="SourceGraphic" in2="effect1_dropShadow_168_4173" result="shape"/>
</filter>
<filter id="filter6_d_168_4173" x="54.7406" y="33.8815" width="10.4288" height="11.1574" filterUnits="userSpaceOnUse" color-interpolation-filters="sRGB">
<feFlood flood-opacity="0" result="BackgroundImageFix"/>
<feColorMatrix in="SourceAlpha" type="matrix" values="0 0 0 0 0 0 0 0 0 0 0 0 0 0 0 0 0 0 127 0" result="hardAlpha"/>
<feOffset dy="4"/>
<feGaussianBlur stdDeviation="2"/>
<feComposite in2="hardAlpha" operator="out"/>
<feColorMatrix type="matrix" values="0 0 0 0 0 0 0 0 0 0 0 0 0 0 0 0 0 0 0.25 0"/>
<feBlend mode="normal" in2="BackgroundImageFix" result="effect1_dropShadow_168_4173"/>
<feBlend mode="normal" in="SourceGraphic" in2="effect1_dropShadow_168_4173" result="shape"/>
</filter>
<filter id="filter7_d_168_4173" x="54.4976" y="33.5172" width="10.9146" height="12.0075" filterUnits="userSpaceOnUse" color-interpolation-filters="sRGB">
<feFlood flood-opacity="0" result="BackgroundImageFix"/>
<feColorMatrix in="SourceAlpha" type="matrix" values="0 0 0 0 0 0 0 0 0 0 0 0 0 0 0 0 0 0 127 0" result="hardAlpha"/>
<feOffset dy="4"/>
<feGaussianBlur stdDeviation="2"/>
<feComposite in2="hardAlpha" operator="out"/>
<feColorMatrix type="matrix" values="0 0 0 0 0 0 0 0 0 0 0 0 0 0 0 0 0 0 0.25 0"/>
<feBlend mode="normal" in2="BackgroundImageFix" result="effect1_dropShadow_168_4173"/>
<feBlend mode="normal" in="SourceGraphic" in2="effect1_dropShadow_168_4173" result="shape"/>
</filter>
<filter id="filter8_d_168_4173" x="54.1333" y="36.4318" width="10.1859" height="11.5217" filterUnits="userSpaceOnUse" color-interpolation-filters="sRGB">
<feFlood flood-opacity="0" result="BackgroundImageFix"/>
<feColorMatrix in="SourceAlpha" type="matrix" values="0 0 0 0 0 0 0 0 0 0 0 0 0 0 0 0 0 0 127 0" result="hardAlpha"/>
<feOffset dy="4"/>
<feGaussianBlur stdDeviation="2"/>
<feComposite in2="hardAlpha" operator="out"/>
<feColorMatrix type="matrix" values="0 0 0 0 0 0 0 0 0 0 0 0 0 0 0 0 0 0 0.25 0"/>
<feBlend mode="normal" in2="BackgroundImageFix" result="effect1_dropShadow_168_4173"/>
<feBlend mode="normal" in="SourceGraphic" in2="effect1_dropShadow_168_4173" result="shape"/>
</filter>
<filter id="filter9_d_168_4173" x="53.8903" y="36.0674" width="10.6716" height="12.2504" filterUnits="userSpaceOnUse" color-interpolation-filters="sRGB">
<feFlood flood-opacity="0" result="BackgroundImageFix"/>
<feColorMatrix in="SourceAlpha" type="matrix" values="0 0 0 0 0 0 0 0 0 0 0 0 0 0 0 0 0 0 127 0" result="hardAlpha"/>
<feOffset dy="4"/>
<feGaussianBlur stdDeviation="2"/>
<feComposite in2="hardAlpha" operator="out"/>
<feColorMatrix type="matrix" values="0 0 0 0 0 0 0 0 0 0 0 0 0 0 0 0 0 0 0.25 0"/>
<feBlend mode="normal" in2="BackgroundImageFix" result="effect1_dropShadow_168_4173"/>
<feBlend mode="normal" in="SourceGraphic" in2="effect1_dropShadow_168_4173" result="shape"/>
</filter>
<filter id="filter10_d_168_4173" x="34.8243" y="0.24295" width="13.8291" height="10.9145" filterUnits="userSpaceOnUse" color-interpolation-filters="sRGB">
<feFlood flood-opacity="0" result="BackgroundImageFix"/>
<feColorMatrix in="SourceAlpha" type="matrix" values="0 0 0 0 0 0 0 0 0 0 0 0 0 0 0 0 0 0 127 0" result="hardAlpha"/>
<feOffset dy="4"/>
<feGaussianBlur stdDeviation="2"/>
<feComposite in2="hardAlpha" operator="out"/>
<feColorMatrix type="matrix" values="0 0 0 0 0 0 0 0 0 0 0 0 0 0 0 0 0 0 0.25 0"/>
<feBlend mode="normal" in2="BackgroundImageFix" result="effect1_dropShadow_168_4173"/>
<feBlend mode="normal" in="SourceGraphic" in2="effect1_dropShadow_168_4173" result="shape"/>
</filter>
<filter id="filter11_d_168_4173" x="34.5815" y="0" width="14.3148" height="11.4003" filterUnits="userSpaceOnUse" color-interpolation-filters="sRGB">
<feFlood flood-opacity="0" result="BackgroundImageFix"/>
<feColorMatrix in="SourceAlpha" type="matrix" values="0 0 0 0 0 0 0 0 0 0 0 0 0 0 0 0 0 0 127 0" result="hardAlpha"/>
<feOffset dy="4"/>
<feGaussianBlur stdDeviation="2"/>
<feComposite in2="hardAlpha" operator="out"/>
<feColorMatrix type="matrix" values="0 0 0 0 0 0 0 0 0 0 0 0 0 0 0 0 0 0 0.25 0"/>
<feBlend mode="normal" in2="BackgroundImageFix" result="effect1_dropShadow_168_4173"/>
<feBlend mode="normal" in="SourceGraphic" in2="effect1_dropShadow_168_4173" result="shape"/>
</filter>
<filter id="filter12_d_168_4173" x="45.2681" y="5.22189" width="19.4152" height="21.4797" filterUnits="userSpaceOnUse" color-interpolation-filters="sRGB">
<feFlood flood-opacity="0" result="BackgroundImageFix"/>
<feColorMatrix in="SourceAlpha" type="matrix" values="0 0 0 0 0 0 0 0 0 0 0 0 0 0 0 0 0 0 127 0" result="hardAlpha"/>
<feOffset dy="4"/>
<feGaussianBlur stdDeviation="2"/>
<feComposite in2="hardAlpha" operator="out"/>
<feColorMatrix type="matrix" values="0 0 0 0 0 0 0 0 0 0 0 0 0 0 0 0 0 0 0.25 0"/>
<feBlend mode="normal" in2="BackgroundImageFix" result="effect1_dropShadow_168_4173"/>
<feBlend mode="normal" in="SourceGraphic" in2="effect1_dropShadow_168_4173" result="shape"/>
</filter>
<filter id="filter13_d_168_4173" x="45.1469" y="4.97906" width="19.6582" height="21.9655" filterUnits="userSpaceOnUse" color-interpolation-filters="sRGB">
<feFlood flood-opacity="0" result="BackgroundImageFix"/>
<feColorMatrix in="SourceAlpha" type="matrix" values="0 0 0 0 0 0 0 0 0 0 0 0 0 0 0 0 0 0 127 0" result="hardAlpha"/>
<feOffset dy="4"/>
<feGaussianBlur stdDeviation="2"/>
<feComposite in2="hardAlpha" operator="out"/>
<feColorMatrix type="matrix" values="0 0 0 0 0 0 0 0 0 0 0 0 0 0 0 0 0 0 0.25 0"/>
<feBlend mode="normal" in2="BackgroundImageFix" result="effect1_dropShadow_168_4173"/>
<feBlend mode="normal" in="SourceGraphic" in2="effect1_dropShadow_168_4173" result="shape"/>
</filter>
<filter id="filter14_d_168_4173" x="35.7959" y="55.1334" width="8.84998" height="9.5787" filterUnits="userSpaceOnUse" color-interpolation-filters="sRGB">
<feFlood flood-opacity="0" result="BackgroundImageFix"/>
<feColorMatrix in="SourceAlpha" type="matrix" values="0 0 0 0 0 0 0 0 0 0 0 0 0 0 0 0 0 0 127 0" result="hardAlpha"/>
<feOffset dy="4"/>
<feGaussianBlur stdDeviation="2"/>
<feComposite in2="hardAlpha" operator="out"/>
<feColorMatrix type="matrix" values="0 0 0 0 0 0 0 0 0 0 0 0 0 0 0 0 0 0 0.25 0"/>
<feBlend mode="normal" in2="BackgroundImageFix" result="effect1_dropShadow_168_4173"/>
<feBlend mode="normal" in="SourceGraphic" in2="effect1_dropShadow_168_4173" result="shape"/>
</filter>
<filter id="filter15_d_168_4173" x="34.9459" y="55.2548" width="8.72864" height="9.70016" filterUnits="userSpaceOnUse" color-interpolation-filters="sRGB">
<feFlood flood-opacity="0" result="BackgroundImageFix"/>
<feColorMatrix in="SourceAlpha" type="matrix" values="0 0 0 0 0 0 0 0 0 0 0 0 0 0 0 0 0 0 127 0" result="hardAlpha"/>
<feOffset dy="4"/>
<feGaussianBlur stdDeviation="2"/>
<feComposite in2="hardAlpha" operator="out"/>
<feColorMatrix type="matrix" values="0 0 0 0 0 0 0 0 0 0 0 0 0 0 0 0 0 0 0.25 0"/>
<feBlend mode="normal" in2="BackgroundImageFix" result="effect1_dropShadow_168_4173"/>
<feBlend mode="normal" in="SourceGraphic" in2="effect1_dropShadow_168_4173" result="shape"/>
</filter>
<filter id="filter16_d_168_4173" x="34.217" y="55.4976" width="8.60718" height="9.70013" filterUnits="userSpaceOnUse" color-interpolation-filters="sRGB">
<feFlood flood-opacity="0" result="BackgroundImageFix"/>
<feColorMatrix in="SourceAlpha" type="matrix" values="0 0 0 0 0 0 0 0 0 0 0 0 0 0 0 0 0 0 127 0" result="hardAlpha"/>
<feOffset dy="4"/>
<feGaussianBlur stdDeviation="2"/>
<feComposite in2="hardAlpha" operator="out"/>
<feColorMatrix type="matrix" values="0 0 0 0 0 0 0 0 0 0 0 0 0 0 0 0 0 0 0.25 0"/>
<feBlend mode="normal" in2="BackgroundImageFix" result="effect1_dropShadow_168_4173"/>
<feBlend mode="normal" in="SourceGraphic" in2="effect1_dropShadow_168_4173" result="shape"/>
</filter>
<filter id="filter17_d_168_4173" x="12.6011" y="51.2473" width="17.3508" height="12.8575" filterUnits="userSpaceOnUse" color-interpolation-filters="sRGB">
<feFlood flood-opacity="0" result="BackgroundImageFix"/>
<feColorMatrix in="SourceAlpha" type="matrix" values="0 0 0 0 0 0 0 0 0 0 0 0 0 0 0 0 0 0 127 0" result="hardAlpha"/>
<feOffset dy="4"/>
<feGaussianBlur stdDeviation="2"/>
<feComposite in2="hardAlpha" operator="out"/>
<feColorMatrix type="matrix" values="0 0 0 0 0 0 0 0 0 0 0 0 0 0 0 0 0 0 0.25 0"/>
<feBlend mode="normal" in2="BackgroundImageFix" result="effect1_dropShadow_168_4173"/>
<feBlend mode="normal" in="SourceGraphic" in2="effect1_dropShadow_168_4173" result="shape"/>
</filter>
<filter id="filter18_d_168_4173" x="0.020752" y="2.91458" width="25.6808" height="56.697" filterUnits="userSpaceOnUse" color-interpolation-filters="sRGB">
<feFlood flood-opacity="0" result="BackgroundImageFix"/>
<feColorMatrix in="SourceAlpha" type="matrix" values="0 0 0 0 0 0 0 0 0 0 0 0 0 0 0 0 0 0 127 0" result="hardAlpha"/>
<feOffset dy="4"/>
<feGaussianBlur stdDeviation="2"/>
<feComposite in2="hardAlpha" operator="out"/>
<feColorMatrix type="matrix" values="0 0 0 0 0 0 0 0 0 0 0 0 0 0 0 0 0 0 0.25 0"/>
<feBlend mode="normal" in2="BackgroundImageFix" result="effect1_dropShadow_168_4173"/>
<feBlend mode="normal" in="SourceGraphic" in2="effect1_dropShadow_168_4173" result="shape"/>
</filter>
<filter id="filter19_d_168_4173" x="0.162598" y="8.86505" width="17.4025" height="30.4662" filterUnits="userSpaceOnUse" color-interpolation-filters="sRGB">
<feFlood flood-opacity="0" result="BackgroundImageFix"/>
<feColorMatrix in="SourceAlpha" type="matrix" values="0 0 0 0 0 0 0 0 0 0 0 0 0 0 0 0 0 0 127 0" result="hardAlpha"/>
<feOffset dy="4"/>
<feGaussianBlur stdDeviation="2"/>
<feComposite in2="hardAlpha" operator="out"/>
<feColorMatrix type="matrix" values="0 0 0 0 0 0 0 0 0 0 0 0 0 0 0 0 0 0 0.25 0"/>
<feBlend mode="normal" in2="BackgroundImageFix" result="effect1_dropShadow_168_4173"/>
<feBlend mode="normal" in="SourceGraphic" in2="effect1_dropShadow_168_4173" result="shape"/>
</filter>
<filter id="filter20_d_168_4173" x="0" y="8.68292" width="17.808" height="30.7698" filterUnits="userSpaceOnUse" color-interpolation-filters="sRGB">
<feFlood flood-opacity="0" result="BackgroundImageFix"/>
<feColorMatrix in="SourceAlpha" type="matrix" values="0 0 0 0 0 0 0 0 0 0 0 0 0 0 0 0 0 0 127 0" result="hardAlpha"/>
<feOffset dy="4"/>
<feGaussianBlur stdDeviation="2"/>
<feComposite in2="hardAlpha" operator="out"/>
<feColorMatrix type="matrix" values="0 0 0 0 0 0 0 0 0 0 0 0 0 0 0 0 0 0 0.25 0"/>
<feBlend mode="normal" in2="BackgroundImageFix" result="effect1_dropShadow_168_4173"/>
<feBlend mode="normal" in="SourceGraphic" in2="effect1_dropShadow_168_4173" result="shape"/>
</filter>
<filter id="filter21_d_168_4173" x="0.457397" y="31.2099" width="10.5503" height="11.036" filterUnits="userSpaceOnUse" color-interpolation-filters="sRGB">
<feFlood flood-opacity="0" result="BackgroundImageFix"/>
<feColorMatrix in="SourceAlpha" type="matrix" values="0 0 0 0 0 0 0 0 0 0 0 0 0 0 0 0 0 0 127 0" result="hardAlpha"/>
<feOffset dy="4"/>
<feGaussianBlur stdDeviation="2"/>
<feComposite in2="hardAlpha" operator="out"/>
<feColorMatrix type="matrix" values="0 0 0 0 0 0 0 0 0 0 0 0 0 0 0 0 0 0 0.25 0"/>
<feBlend mode="normal" in2="BackgroundImageFix" result="effect1_dropShadow_168_4173"/>
<feBlend mode="normal" in="SourceGraphic" in2="effect1_dropShadow_168_4173" result="shape"/>
</filter>
<filter id="filter22_d_168_4173" x="0.214233" y="30.8456" width="11.036" height="11.7646" filterUnits="userSpaceOnUse" color-interpolation-filters="sRGB">
<feFlood flood-opacity="0" result="BackgroundImageFix"/>
<feColorMatrix in="SourceAlpha" type="matrix" values="0 0 0 0 0 0 0 0 0 0 0 0 0 0 0 0 0 0 127 0" result="hardAlpha"/>
<feOffset dy="4"/>
<feGaussianBlur stdDeviation="2"/>
<feComposite in2="hardAlpha" operator="out"/>
<feColorMatrix type="matrix" values="0 0 0 0 0 0 0 0 0 0 0 0 0 0 0 0 0 0 0.25 0"/>
<feBlend mode="normal" in2="BackgroundImageFix" result="effect1_dropShadow_168_4173"/>
<feBlend mode="normal" in="SourceGraphic" in2="effect1_dropShadow_168_4173" result="shape"/>
</filter>
<filter id="filter23_d_168_4173" x="0.942993" y="33.8815" width="10.4288" height="11.1574" filterUnits="userSpaceOnUse" color-interpolation-filters="sRGB">
<feFlood flood-opacity="0" result="BackgroundImageFix"/>
<feColorMatrix in="SourceAlpha" type="matrix" values="0 0 0 0 0 0 0 0 0 0 0 0 0 0 0 0 0 0 127 0" result="hardAlpha"/>
<feOffset dy="4"/>
<feGaussianBlur stdDeviation="2"/>
<feComposite in2="hardAlpha" operator="out"/>
<feColorMatrix type="matrix" values="0 0 0 0 0 0 0 0 0 0 0 0 0 0 0 0 0 0 0.25 0"/>
<feBlend mode="normal" in2="BackgroundImageFix" result="effect1_dropShadow_168_4173"/>
<feBlend mode="normal" in="SourceGraphic" in2="effect1_dropShadow_168_4173" result="shape"/>
</filter>
<filter id="filter24_d_168_4173" x="0.699951" y="33.5172" width="10.9146" height="12.0075" filterUnits="userSpaceOnUse" color-interpolation-filters="sRGB">
<feFlood flood-opacity="0" result="BackgroundImageFix"/>
<feColorMatrix in="SourceAlpha" type="matrix" values="0 0 0 0 0 0 0 0 0 0 0 0 0 0 0 0 0 0 127 0" result="hardAlpha"/>
<feOffset dy="4"/>
<feGaussianBlur stdDeviation="2"/>
<feComposite in2="hardAlpha" operator="out"/>
<feColorMatrix type="matrix" values="0 0 0 0 0 0 0 0 0 0 0 0 0 0 0 0 0 0 0.25 0"/>
<feBlend mode="normal" in2="BackgroundImageFix" result="effect1_dropShadow_168_4173"/>
<feBlend mode="normal" in="SourceGraphic" in2="effect1_dropShadow_168_4173" result="shape"/>
</filter>
<filter id="filter25_d_168_4173" x="1.79297" y="36.4318" width="10.1859" height="11.5217" filterUnits="userSpaceOnUse" color-interpolation-filters="sRGB">
<feFlood flood-opacity="0" result="BackgroundImageFix"/>
<feColorMatrix in="SourceAlpha" type="matrix" values="0 0 0 0 0 0 0 0 0 0 0 0 0 0 0 0 0 0 127 0" result="hardAlpha"/>
<feOffset dy="4"/>
<feGaussianBlur stdDeviation="2"/>
<feComposite in2="hardAlpha" operator="out"/>
<feColorMatrix type="matrix" values="0 0 0 0 0 0 0 0 0 0 0 0 0 0 0 0 0 0 0.25 0"/>
<feBlend mode="normal" in2="BackgroundImageFix" result="effect1_dropShadow_168_4173"/>
<feBlend mode="normal" in="SourceGraphic" in2="effect1_dropShadow_168_4173" result="shape"/>
</filter>
<filter id="filter26_d_168_4173" x="1.55029" y="36.0674" width="10.6716" height="12.2504" filterUnits="userSpaceOnUse" color-interpolation-filters="sRGB">
<feFlood flood-opacity="0" result="BackgroundImageFix"/>
<feColorMatrix in="SourceAlpha" type="matrix" values="0 0 0 0 0 0 0 0 0 0 0 0 0 0 0 0 0 0 127 0" result="hardAlpha"/>
<feOffset dy="4"/>
<feGaussianBlur stdDeviation="2"/>
<feComposite in2="hardAlpha" operator="out"/>
<feColorMatrix type="matrix" values="0 0 0 0 0 0 0 0 0 0 0 0 0 0 0 0 0 0 0.25 0"/>
<feBlend mode="normal" in2="BackgroundImageFix" result="effect1_dropShadow_168_4173"/>
<feBlend mode="normal" in="SourceGraphic" in2="effect1_dropShadow_168_4173" result="shape"/>
</filter>
<filter id="filter27_d_168_4173" x="17.4585" y="0.24295" width="13.8291" height="10.9145" filterUnits="userSpaceOnUse" color-interpolation-filters="sRGB">
<feFlood flood-opacity="0" result="BackgroundImageFix"/>
<feColorMatrix in="SourceAlpha" type="matrix" values="0 0 0 0 0 0 0 0 0 0 0 0 0 0 0 0 0 0 127 0" result="hardAlpha"/>
<feOffset dy="4"/>
<feGaussianBlur stdDeviation="2"/>
<feComposite in2="hardAlpha" operator="out"/>
<feColorMatrix type="matrix" values="0 0 0 0 0 0 0 0 0 0 0 0 0 0 0 0 0 0 0.25 0"/>
<feBlend mode="normal" in2="BackgroundImageFix" result="effect1_dropShadow_168_4173"/>
<feBlend mode="normal" in="SourceGraphic" in2="effect1_dropShadow_168_4173" result="shape"/>
</filter>
<filter id="filter28_d_168_4173" x="17.2159" y="0" width="14.3148" height="11.4003" filterUnits="userSpaceOnUse" color-interpolation-filters="sRGB">
<feFlood flood-opacity="0" result="BackgroundImageFix"/>
<feColorMatrix in="SourceAlpha" type="matrix" values="0 0 0 0 0 0 0 0 0 0 0 0 0 0 0 0 0 0 127 0" result="hardAlpha"/>
<feOffset dy="4"/>
<feGaussianBlur stdDeviation="2"/>
<feComposite in2="hardAlpha" operator="out"/>
<feColorMatrix type="matrix" values="0 0 0 0 0 0 0 0 0 0 0 0 0 0 0 0 0 0 0.25 0"/>
<feBlend mode="normal" in2="BackgroundImageFix" result="effect1_dropShadow_168_4173"/>
<feBlend mode="normal" in="SourceGraphic" in2="effect1_dropShadow_168_4173" result="shape"/>
</filter>
<filter id="filter29_d_168_4173" x="1.42847" y="5.22189" width="19.4153" height="21.4797" filterUnits="userSpaceOnUse" color-interpolation-filters="sRGB">
<feFlood flood-opacity="0" result="BackgroundImageFix"/>
<feColorMatrix in="SourceAlpha" type="matrix" values="0 0 0 0 0 0 0 0 0 0 0 0 0 0 0 0 0 0 127 0" result="hardAlpha"/>
<feOffset dy="4"/>
<feGaussianBlur stdDeviation="2"/>
<feComposite in2="hardAlpha" operator="out"/>
<feColorMatrix type="matrix" values="0 0 0 0 0 0 0 0 0 0 0 0 0 0 0 0 0 0 0.25 0"/>
<feBlend mode="normal" in2="BackgroundImageFix" result="effect1_dropShadow_168_4173"/>
<feBlend mode="normal" in="SourceGraphic" in2="effect1_dropShadow_168_4173" result="shape"/>
</filter>
<filter id="filter30_d_168_4173" x="1.30725" y="4.97906" width="19.6581" height="21.9655" filterUnits="userSpaceOnUse" color-interpolation-filters="sRGB">
<feFlood flood-opacity="0" result="BackgroundImageFix"/>
<feColorMatrix in="SourceAlpha" type="matrix" values="0 0 0 0 0 0 0 0 0 0 0 0 0 0 0 0 0 0 127 0" result="hardAlpha"/>
<feOffset dy="4"/>
<feGaussianBlur stdDeviation="2"/>
<feComposite in2="hardAlpha" operator="out"/>
<feColorMatrix type="matrix" values="0 0 0 0 0 0 0 0 0 0 0 0 0 0 0 0 0 0 0.25 0"/>
<feBlend mode="normal" in2="BackgroundImageFix" result="effect1_dropShadow_168_4173"/>
<feBlend mode="normal" in="SourceGraphic" in2="effect1_dropShadow_168_4173" result="shape"/>
</filter>
<filter id="filter31_d_168_4173" x="21.4659" y="55.1334" width="8.8501" height="9.5787" filterUnits="userSpaceOnUse" color-interpolation-filters="sRGB">
<feFlood flood-opacity="0" result="BackgroundImageFix"/>
<feColorMatrix in="SourceAlpha" type="matrix" values="0 0 0 0 0 0 0 0 0 0 0 0 0 0 0 0 0 0 127 0" result="hardAlpha"/>
<feOffset dy="4"/>
<feGaussianBlur stdDeviation="2"/>
<feComposite in2="hardAlpha" operator="out"/>
<feColorMatrix type="matrix" values="0 0 0 0 0 0 0 0 0 0 0 0 0 0 0 0 0 0 0.25 0"/>
<feBlend mode="normal" in2="BackgroundImageFix" result="effect1_dropShadow_168_4173"/>
<feBlend mode="normal" in="SourceGraphic" in2="effect1_dropShadow_168_4173" result="shape"/>
</filter>
<filter id="filter32_d_168_4173" x="22.3163" y="55.2548" width="8.8501" height="9.70016" filterUnits="userSpaceOnUse" color-interpolation-filters="sRGB">
<feFlood flood-opacity="0" result="BackgroundImageFix"/>
<feColorMatrix in="SourceAlpha" type="matrix" values="0 0 0 0 0 0 0 0 0 0 0 0 0 0 0 0 0 0 127 0" result="hardAlpha"/>
<feOffset dy="4"/>
<feGaussianBlur stdDeviation="2"/>
<feComposite in2="hardAlpha" operator="out"/>
<feColorMatrix type="matrix" values="0 0 0 0 0 0 0 0 0 0 0 0 0 0 0 0 0 0 0.25 0"/>
<feBlend mode="normal" in2="BackgroundImageFix" result="effect1_dropShadow_168_4173"/>
<feBlend mode="normal" in="SourceGraphic" in2="effect1_dropShadow_168_4173" result="shape"/>
</filter>
<filter id="filter33_d_168_4173" x="23.2878" y="55.4976" width="8.60718" height="9.70013" filterUnits="userSpaceOnUse" color-interpolation-filters="sRGB">
<feFlood flood-opacity="0" result="BackgroundImageFix"/>
<feColorMatrix in="SourceAlpha" type="matrix" values="0 0 0 0 0 0 0 0 0 0 0 0 0 0 0 0 0 0 127 0" result="hardAlpha"/>
<feOffset dy="4"/>
<feGaussianBlur stdDeviation="2"/>
<feComposite in2="hardAlpha" operator="out"/>
<feColorMatrix type="matrix" values="0 0 0 0 0 0 0 0 0 0 0 0 0 0 0 0 0 0 0.25 0"/>
<feBlend mode="normal" in2="BackgroundImageFix" result="effect1_dropShadow_168_4173"/>
<feBlend mode="normal" in="SourceGraphic" in2="effect1_dropShadow_168_4173" result="shape"/>
</filter>
</defs>
</svg>
