<svg width="59" height="58" viewBox="0 0 59 58" fill="none" xmlns="http://www.w3.org/2000/svg">
<g filter="url(#filter0_d_154_4022)">
<path d="M35.3743 48.5163L35.2693 48.2013C38.1047 47.4662 40.835 46.101 43.1453 44.3158L43.3554 44.6308C40.94 46.416 38.2096 47.7812 35.3743 48.5163Z" fill="#08FA81"/>
</g>
<g filter="url(#filter1_d_154_4022)">
<path d="M43.3557 44.6308L43.1456 44.3158C44.6158 43.2657 45.946 42.0055 47.1361 40.5353C47.1361 40.5353 47.1711 40.5353 47.2411 40.5353C47.8012 40.5353 48.3263 40.5703 48.8163 40.6403C51.1266 37.5949 52.7019 34.1295 53.437 30.559C54.172 26.7785 54.067 22.998 53.1219 19.3225C52.1768 15.7521 50.3915 12.2866 47.9762 9.45122C45.4559 6.61585 42.4105 4.30556 38.9451 2.83537L39.0501 2.52032C42.6205 3.99052 45.7709 6.30081 48.1863 9.2412C50.7066 12.0766 52.4918 15.542 53.437 19.2175C54.3821 22.893 54.4871 26.8835 53.752 30.559C53.0169 34.3395 51.4417 37.91 49.0264 40.8503C49.0264 40.9204 48.9914 40.9553 48.9214 40.9553C48.4313 40.9553 47.9062 40.9204 47.3462 40.8503C46.156 42.2505 44.8259 43.5107 43.3557 44.6308Z" fill="#08FA81"/>
</g>
<g filter="url(#filter2_d_154_4022)">
<path d="M45.981 10.5014C47.7662 12.4966 49.2364 14.8069 50.1815 17.4323C51.2316 19.9526 51.7567 22.683 51.7567 25.4133C52.1768 25.7284 52.5968 25.9384 52.9118 26.1484C53.2269 26.4635 53.6469 26.6735 54.067 27.0935C54.277 23.5231 53.6469 19.8476 52.3868 16.5922C51.1266 13.2317 49.1314 10.1863 46.506 7.66599C46.401 8.29607 46.401 8.71613 46.296 9.13619C46.191 9.55624 46.086 9.97628 45.981 10.5014Z" fill="#08FA81"/>
</g>
<g filter="url(#filter3_d_154_4022)">
<path fill-rule="evenodd" clip-rule="evenodd" d="M54.0668 27.1986C53.9968 27.1986 53.9618 27.1986 53.9618 27.1986C53.4367 26.7785 53.1217 26.5685 52.8067 26.3584C52.4916 26.1484 52.1766 25.8334 51.6515 25.5183C51.5815 25.5183 51.5465 25.4833 51.5465 25.4133C51.5465 22.683 51.0214 19.9526 50.0763 17.4323C49.1312 14.9119 47.661 12.6016 45.8757 10.6064C45.8057 10.5364 45.7708 10.4664 45.7708 10.3964C45.8758 9.9763 45.9808 9.55625 46.0858 9.03118C46.1908 8.61112 46.2958 8.19106 46.2958 7.66599C46.3658 7.59599 46.4359 7.56099 46.5059 7.56099C46.5759 7.49098 46.6108 7.49098 46.6108 7.56099C49.2362 10.0813 51.2315 13.1267 52.5966 16.4872C53.8568 19.8476 54.3819 23.5231 54.1719 27.0935C54.1719 27.1635 54.1368 27.1986 54.0668 27.1986ZM51.9665 25.3083C52.3866 25.6233 52.7016 25.8334 53.0167 26.0434C53.2967 26.2534 53.5768 26.4635 53.8568 26.6735C54.0669 23.313 53.4368 19.7426 52.2816 16.5922C51.0215 13.4418 49.0262 10.5014 46.6108 8.08606C46.5408 8.43611 46.4708 8.78615 46.4008 9.1362C46.4008 9.55625 46.2958 9.9763 46.1908 10.3964C47.976 12.4966 49.4462 14.8069 50.3913 17.3273C51.3364 19.8476 51.8615 22.5779 51.9665 25.3083Z" fill="#08FA81"/>
</g>
<g filter="url(#filter4_d_154_4022)">
<path d="M51.7567 26.9885C52.4568 27.5486 53.1568 28.1787 53.8569 28.8788C53.8569 29.0888 53.8219 29.3338 53.7519 29.6139C53.0518 28.9138 52.3517 28.2837 51.6516 27.7236C51.6516 27.4436 51.6867 27.1986 51.7567 26.9885Z" fill="#08FA81"/>
</g>
<g filter="url(#filter5_d_154_4022)">
<path fill-rule="evenodd" clip-rule="evenodd" d="M53.8568 29.9289L53.6467 29.7189C52.9466 29.0188 52.2465 28.3887 51.5465 27.8286L51.4414 27.7236C51.5114 27.4436 51.5465 27.1985 51.5465 26.9885V26.6735L51.8615 26.8835C52.5616 27.4436 53.2617 28.0386 53.9618 28.6687L54.0667 28.7737V28.8787C53.9967 29.0888 53.9618 29.3338 53.9618 29.6138L53.8568 29.9289ZM51.7565 27.6186C52.3866 28.1086 53.0167 28.6337 53.6467 29.1938C53.6467 29.0538 53.6467 28.9488 53.6467 28.8787C53.0867 28.3187 52.4916 27.7936 51.8615 27.3035C51.7915 27.3735 51.7565 27.4786 51.7565 27.6186Z" fill="#08FA81"/>
</g>
<g filter="url(#filter6_d_154_4022)">
<path d="M51.4414 29.2988C52.1415 29.9289 52.8066 30.594 53.4367 31.2941C53.3667 31.5741 53.2967 31.8191 53.2267 32.0292C52.5966 31.3291 51.9665 30.629 51.3364 29.9289C51.4064 29.7189 51.4414 29.5089 51.4414 29.2988Z" fill="#08FA81"/>
</g>
<g filter="url(#filter7_d_154_4022)">
<path fill-rule="evenodd" clip-rule="evenodd" d="M53.3318 32.4492L53.1218 32.2392C52.4917 31.4691 51.8616 30.769 51.2315 30.1389L51.1265 30.0339V29.9289C51.1965 29.6488 51.2665 29.4388 51.3365 29.2988V28.9838L51.5465 29.1938C52.2466 29.8239 52.9117 30.489 53.5418 31.1891L53.6468 31.2941L53.5418 31.3991C53.5418 31.6791 53.5068 31.9241 53.4368 32.1342L53.3318 32.4492ZM51.5465 29.9289C52.1066 30.489 52.6317 31.084 53.1218 31.7141C53.1918 31.5741 53.2267 31.4691 53.2267 31.3991C52.6667 30.769 52.1066 30.1739 51.5465 29.6139C51.5465 29.6839 51.5465 29.7889 51.5465 29.9289Z" fill="#08FA81"/>
</g>
<g filter="url(#filter8_d_154_4022)">
<path d="M50.9163 31.5041C51.5463 32.2042 52.1414 32.9743 52.7015 33.8144C52.6315 34.0244 52.5615 34.2695 52.4915 34.5495C51.9314 33.7094 51.3714 32.9393 50.8113 32.2392C50.8813 32.0292 50.9163 31.7841 50.9163 31.5041Z" fill="#08FA81"/>
</g>
<g filter="url(#filter9_d_154_4022)">
<path fill-rule="evenodd" clip-rule="evenodd" d="M52.4916 34.8646L52.2816 34.5495C51.7915 33.7794 51.2314 33.0443 50.6013 32.3442V32.2392V32.1342C50.6713 31.9242 50.7413 31.7141 50.8114 31.5041L50.9163 31.1891L51.1264 31.3991C51.7565 32.0992 52.3166 32.8693 52.8066 33.7094H52.9116V33.8144C52.7716 34.0945 52.6666 34.3395 52.5966 34.5495L52.4916 34.8646ZM51.0214 32.1342C51.5115 32.7643 51.9665 33.4294 52.3866 34.1295C52.4566 33.9894 52.4916 33.8844 52.4916 33.8144C52.0715 33.1143 51.5815 32.4843 51.0214 31.9242C51.0214 31.9942 51.0214 32.0642 51.0214 32.1342Z" fill="#08FA81"/>
</g>
<g filter="url(#filter10_d_154_4022)">
<path d="M39.155 2.73035C37.5448 2.03025 35.8645 1.50519 34.1143 1.15514C34.4643 0.805093 34.8494 0.490059 35.2694 0.210022C36.4596 0.490059 37.6497 0.875099 38.8399 1.36516C38.9799 1.78522 39.085 2.24028 39.155 2.73035Z" fill="#08FA81"/>
</g>
<g filter="url(#filter11_d_154_4022)">
<path fill-rule="evenodd" clip-rule="evenodd" d="M39.155 2.94039C39.155 2.94039 39.1199 2.90539 39.0499 2.83538C37.4397 2.13529 35.7945 1.61022 34.1143 1.26018C34.0443 1.26018 33.9743 1.22517 33.9043 1.15516C33.9043 1.08515 33.9393 1.05014 34.0093 1.05014C34.3593 0.700092 34.7094 0.350046 35.0594 0C35.1294 0 35.1995 0 35.2695 0C36.5296 0.280037 37.7197 0.665093 38.8399 1.15516C38.9099 1.15516 38.9449 1.19017 38.9449 1.26018C39.085 1.75024 39.2249 2.2403 39.365 2.73036C39.365 2.80037 39.33 2.83538 39.26 2.83538C39.26 2.90539 39.225 2.94039 39.155 2.94039ZM34.5344 1.05014C36.0045 1.40018 37.4748 1.85525 38.9449 2.41532C38.8749 2.13528 38.7699 1.82025 38.6299 1.4702C37.5098 1.05015 36.3896 0.700101 35.2695 0.420065C34.9894 0.630092 34.7444 0.84011 34.5344 1.05014Z" fill="#08FA81"/>
</g>
<g filter="url(#filter12_d_154_4022)">
<path d="M52.2817 16.1721C51.3366 13.8618 50.0764 11.7615 48.5012 9.87127C47.031 7.98102 45.2458 6.30081 43.1455 4.93563C43.6356 4.79561 44.1256 4.65558 44.6157 4.51556C48.1861 7.14091 51.1265 10.8164 53.0168 14.9119C52.7367 15.332 52.4917 15.752 52.2817 16.1721Z" fill="#08FA81"/>
</g>
<g filter="url(#filter13_d_154_4022)">
<path fill-rule="evenodd" clip-rule="evenodd" d="M52.2815 16.3822C52.2115 16.3121 52.1415 16.2771 52.0715 16.2771C51.1264 13.9668 49.9712 11.8666 48.396 9.97631C46.9258 8.08606 45.1406 6.51086 43.0403 5.14569C43.0403 5.07568 43.0403 5.00567 43.0403 4.93566C43.0403 4.86565 43.0753 4.83064 43.1453 4.83064C43.6354 4.62061 44.0904 4.44559 44.5105 4.30557C44.5805 4.30557 44.6505 4.34058 44.7205 4.41059C48.396 7.03594 51.2314 10.7114 53.1216 14.8069C53.1216 14.877 53.1216 14.947 53.1216 15.017C52.9116 15.437 52.6666 15.8571 52.3865 16.2771C52.3865 16.3471 52.3516 16.3822 52.2815 16.3822ZM43.5654 5.04067C45.4556 6.37084 47.1708 7.94605 48.7111 9.76628C50.1812 11.5865 51.3714 13.5818 52.2815 15.7521C52.4216 15.472 52.5966 15.192 52.8066 14.912C50.9164 10.8164 48.081 7.35096 44.5105 4.72562C44.2305 4.79563 43.9154 4.90065 43.5654 5.04067Z" fill="#08FA81"/>
</g>
<g filter="url(#filter14_d_154_4022)">
<path d="M35.2694 49.0414L34.9543 47.7812L35.2694 47.6762L35.6894 49.0414H35.2694Z" fill="#08FA81"/>
</g>
<g filter="url(#filter15_d_154_4022)">
<path d="M34.5343 49.2514L34.2192 47.8862L34.5343 47.7812L34.8493 49.1464L34.5343 49.2514Z" fill="#08FA81"/>
</g>
<g filter="url(#filter16_d_154_4022)">
<path d="M33.7992 49.4614L33.5891 48.0962L33.9042 47.9912L34.1142 49.3564L33.7992 49.4614Z" fill="#08FA81"/>
</g>
<g filter="url(#filter17_d_154_4022)">
<path d="M22.8778 48.5163C20.0424 47.7812 17.312 46.416 14.8967 44.6308L15.1068 44.3158C17.4171 46.101 20.1474 47.4662 22.9828 48.2013L22.8778 48.5163Z" fill="#08FA81"/>
</g>
<g filter="url(#filter18_d_154_4022)">
<path d="M14.8968 44.6308C13.4266 43.5107 12.0964 42.2505 10.9063 40.8503C10.3462 40.9204 9.82115 40.9553 9.33109 40.9553C9.26108 40.9553 9.19105 40.9204 9.12104 40.8503C6.81074 37.91 5.23557 34.3395 4.50048 30.559C3.76538 26.8835 3.87038 22.893 4.81551 19.2175C5.76063 15.542 7.54586 12.0766 10.0662 9.2412C12.4815 6.30081 15.6319 3.99052 19.2024 2.52032L19.3074 2.83537C15.8419 4.30556 12.7966 6.61585 10.2762 9.45122C7.86092 12.2866 6.07566 15.7521 5.13054 19.3225C4.18541 22.998 4.08041 26.7785 4.81551 30.559C5.5506 34.1295 7.12577 37.5949 9.43607 40.6403C9.92614 40.5703 10.4512 40.5353 11.0113 40.5353C11.0813 40.5353 11.1163 40.5353 11.1163 40.5353C12.3065 42.0055 13.6366 43.2657 15.1068 44.3158L14.8968 44.6308Z" fill="#08FA81"/>
</g>
<g filter="url(#filter19_d_154_4022)">
<path d="M12.2714 10.5014C10.4862 12.4966 9.01597 14.8069 8.07085 17.4323C7.02071 19.9526 6.49564 22.683 6.49564 25.4133C6.07559 25.7284 5.65556 25.9384 5.34052 26.1484C5.02548 26.4635 4.60538 26.6735 4.18533 27.0935C3.9753 23.5231 4.50041 19.8476 5.86559 16.5922C7.12575 13.2317 9.12099 10.1863 11.7463 7.66599C11.8513 8.29607 11.8514 8.71613 11.9564 9.13619C12.0614 9.55624 12.1664 9.97628 12.2714 10.5014Z" fill="#08FA81"/>
</g>
<g filter="url(#filter20_d_154_4022)">
<path fill-rule="evenodd" clip-rule="evenodd" d="M4.18527 27.1986C4.11526 27.1986 4.08028 27.1635 4.08028 27.0935C3.76524 23.5231 4.39532 19.8476 5.65549 16.4872C7.02067 13.1267 9.01594 10.0813 11.6413 7.56099C11.6413 7.49098 11.6763 7.49098 11.7463 7.56099C11.8163 7.56099 11.8513 7.59599 11.8513 7.66599C11.9563 8.19106 12.0613 8.61112 12.1664 9.03118C12.2714 9.55625 12.3764 9.9763 12.4814 10.3964C12.4814 10.4664 12.4464 10.5364 12.3764 10.6064C10.5912 12.6016 9.12097 14.9119 8.17585 17.4323C7.23072 19.9526 6.70563 22.683 6.70563 25.4133C6.70563 25.4833 6.67065 25.5183 6.60064 25.5183C6.07557 25.8334 5.76049 26.1484 5.44545 26.3584C5.13041 26.5685 4.81539 26.7785 4.29032 27.1986C4.29032 27.1986 4.25528 27.1986 4.18527 27.1986ZM11.6413 8.08606C9.22597 10.5014 7.23068 13.4418 5.97052 16.5922C4.81537 19.7426 4.18528 23.313 4.39531 26.6735C4.67535 26.4635 4.95537 26.2534 5.23541 26.0434C5.55045 25.8334 5.86549 25.6233 6.28555 25.3083C6.39056 22.5779 6.91563 19.8476 7.86075 17.3273C8.80588 14.8069 10.2761 12.4966 12.0613 10.3964C11.9563 9.9763 11.8513 9.55625 11.7463 9.1362C11.6763 8.78615 11.6413 8.43611 11.6413 8.08606Z" fill="#08FA81"/>
</g>
<g filter="url(#filter21_d_154_4022)">
<path d="M6.49578 26.9885C5.79569 27.5486 5.0956 28.1787 4.39551 28.8788C4.39551 29.0888 4.43055 29.3338 4.50056 29.6139C5.13064 28.9138 5.83073 28.2837 6.60083 27.7236C6.60083 27.4436 6.56579 27.1986 6.49578 26.9885Z" fill="#08FA81"/>
</g>
<g filter="url(#filter22_d_154_4022)">
<path fill-rule="evenodd" clip-rule="evenodd" d="M4.39534 29.9289L4.29035 29.6138C4.29035 29.3338 4.25531 29.0888 4.1853 28.8787V28.7737L4.29035 28.6687C4.92044 28.0386 5.62053 27.4436 6.39063 26.8835L6.70566 26.6735V26.9885C6.70566 27.1985 6.74064 27.4436 6.81065 27.7236L6.70566 27.8286C6.00557 28.3887 5.30547 29.0188 4.60538 29.7189L4.39534 29.9289ZM4.60538 28.8787C4.60538 28.9488 4.60538 29.0538 4.60538 29.1938C5.23547 28.6337 5.83056 28.1086 6.39063 27.6186C6.39063 27.4786 6.39063 27.3735 6.39063 27.3035C5.76055 27.7936 5.16546 28.3187 4.60538 28.8787Z" fill="#08FA81"/>
</g>
<g filter="url(#filter23_d_154_4022)">
<path d="M6.81065 29.2988C6.11056 29.9289 5.44551 30.594 4.81543 31.2941C4.88544 31.5741 4.95546 31.8191 5.02547 32.0292C5.65555 31.3291 6.28562 30.629 6.9157 29.9289C6.8457 29.7189 6.81065 29.5089 6.81065 29.2988Z" fill="#08FA81"/>
</g>
<g filter="url(#filter24_d_154_4022)">
<path fill-rule="evenodd" clip-rule="evenodd" d="M4.92025 32.4492L4.81526 32.1342C4.74526 31.9241 4.67523 31.6791 4.60522 31.3991V31.2941L4.71021 31.1891C5.3403 30.489 6.00541 29.8239 6.7055 29.1938L6.91554 28.9838V29.2988C6.98555 29.4388 7.05557 29.6488 7.12558 29.9289V30.0339L7.02053 30.1389C6.39045 30.769 5.76038 31.4691 5.13029 32.2392L4.92025 32.4492ZM5.02531 31.2941C5.02531 31.4341 5.06028 31.5391 5.13029 31.6091C5.62036 30.979 6.14543 30.384 6.7055 29.8239C6.7055 29.7539 6.7055 29.6839 6.7055 29.6139C6.14543 30.1739 5.58538 30.734 5.02531 31.2941Z" fill="#08FA81"/>
</g>
<g filter="url(#filter25_d_154_4022)">
<path d="M7.23073 31.5041C6.67066 32.2042 6.11061 32.9743 5.55054 33.8144C5.62055 34.0244 5.6905 34.2695 5.76051 34.5495C6.32059 33.7094 6.8807 32.9393 7.44077 32.2392C7.37076 32.0292 7.30074 31.7841 7.23073 31.5041Z" fill="#08FA81"/>
</g>
<g filter="url(#filter26_d_154_4022)">
<path fill-rule="evenodd" clip-rule="evenodd" d="M5.76059 34.8646L5.6556 34.5495C5.5856 34.3395 5.48059 34.0945 5.34058 33.8144V33.7094C5.90065 32.8693 6.49574 32.0992 7.12582 31.3991L7.3358 31.1891L7.44085 31.5041C7.51086 31.7141 7.58088 31.9242 7.65089 32.1342V32.2392V32.3442C7.02081 33.0443 6.4607 33.7794 5.97063 34.5495L5.76059 34.8646ZM5.6556 33.8144C5.72561 33.9544 5.79564 34.0594 5.86564 34.1295C6.2857 33.4294 6.74075 32.7993 7.23081 32.2392C7.23081 32.0992 7.19583 31.9942 7.12582 31.9242C6.63576 32.5543 6.14567 33.1843 5.6556 33.8144Z" fill="#08FA81"/>
</g>
<g filter="url(#filter27_d_154_4022)">
<path d="M19.0972 2.73035C20.7074 2.03025 22.3876 1.50519 24.1378 1.15514C23.7878 0.805093 23.4027 0.490059 22.9827 0.210022C21.7925 0.490059 20.6024 0.875099 19.4122 1.36516C19.2722 1.78522 19.1672 2.24028 19.0972 2.73035Z" fill="#08FA81"/>
</g>
<g filter="url(#filter28_d_154_4022)">
<path fill-rule="evenodd" clip-rule="evenodd" d="M19.0972 2.94039C19.0272 2.94039 18.9923 2.90539 18.9923 2.83538C18.9223 2.83538 18.8872 2.80037 18.8872 2.73036C19.0272 2.2403 19.1673 1.75024 19.3073 1.26018C19.3073 1.19017 19.3423 1.15516 19.4123 1.15516C20.5324 0.665093 21.7226 0.280037 22.9828 0C23.0528 0 23.0878 0 23.0878 0C23.5078 0.350046 23.8929 0.700092 24.2429 1.05014C24.313 1.05014 24.3479 1.08515 24.3479 1.15516C24.2779 1.22517 24.2079 1.26018 24.1379 1.26018C22.4577 1.61022 20.8125 2.13529 19.2023 2.83538C19.1323 2.90539 19.0972 2.94039 19.0972 2.94039ZM19.6223 1.4702C19.4823 1.82025 19.3773 2.13528 19.3073 2.41532C20.7775 1.85525 22.2477 1.40018 23.7179 1.05014C23.5079 0.84011 23.2628 0.630092 22.9828 0.420065C21.7926 0.700101 20.6725 1.05015 19.6223 1.4702Z" fill="#08FA81"/>
</g>
<g filter="url(#filter29_d_154_4022)">
<path d="M5.97046 16.1721C6.91558 13.8618 8.17579 11.7615 9.75099 9.87127C11.2212 7.98102 13.0064 6.30081 15.1067 4.93563C14.6166 4.79561 14.1265 4.65558 13.6365 4.51556C10.066 7.14091 7.1256 10.8164 5.23535 14.9119C5.51539 15.332 5.76043 15.752 5.97046 16.1721Z" fill="#08FA81"/>
</g>
<g filter="url(#filter30_d_154_4022)">
<path fill-rule="evenodd" clip-rule="evenodd" d="M5.97047 16.3822C5.90046 16.3822 5.86548 16.3471 5.86548 16.2771C5.58544 15.8571 5.3404 15.437 5.13037 15.017C5.13037 14.947 5.13037 14.877 5.13037 14.8069C7.02062 10.7114 9.85599 7.03594 13.5315 4.41059C13.6015 4.34058 13.6715 4.30557 13.7415 4.30557C14.1616 4.44559 14.6166 4.62061 15.1067 4.83064C15.1767 4.83064 15.2117 4.86565 15.2117 4.93566C15.2117 5.00567 15.2117 5.07568 15.2117 5.14569C13.1114 6.51086 11.3262 8.08606 9.85599 9.97631C8.28078 11.8666 7.12563 13.9668 6.18051 16.2771C6.1105 16.2771 6.04048 16.3121 5.97047 16.3822ZM5.4454 14.912C5.65543 15.192 5.83045 15.472 5.97047 15.7521C6.88059 13.5818 8.07077 11.5865 9.54096 9.76628C11.0112 7.94605 12.7263 6.37084 14.6866 5.04067C14.3366 4.90065 14.0215 4.79563 13.7415 4.72562C10.171 7.35096 7.33565 10.8164 5.4454 14.912Z" fill="#08FA81"/>
</g>
<g filter="url(#filter31_d_154_4022)">
<path d="M22.9828 49.0414H22.5627L22.9828 47.6762L23.2979 47.7812L22.9828 49.0414Z" fill="#08FA81"/>
</g>
<g filter="url(#filter32_d_154_4022)">
<path d="M23.7179 49.2514L23.2979 49.1464L23.7179 47.7812L24.033 47.8862L23.7179 49.2514Z" fill="#08FA81"/>
</g>
<g filter="url(#filter33_d_154_4022)">
<path d="M24.453 49.4614L24.1379 49.3564L24.348 47.9912L24.663 48.0962L24.453 49.4614Z" fill="#08FA81"/>
</g>
<path d="M16.7303 15.5674H20.2183V12.0154H23.7703V8.5274H34.4263V12.0154H37.9783V15.5674H41.4663V33.2634H34.4263V26.2874H23.7703V33.2634H16.7303V15.5674ZM23.8343 15.5674V22.6074H34.3623V15.5674H30.8743V12.0794H27.3223V15.5674H23.8343Z" fill="white"/>
<rect width="14.3068" height="4.51792" rx="2.25896" transform="matrix(1 0 0 -1 25.5342 41.0183)" fill="white"/>
<rect x="23.4902" y="41.0183" width="5.10956" height="4.51792" rx="2.25896" transform="rotate(180 23.4902 41.0183)" fill="white"/>
<defs>
<filter id="filter0_d_154_4022" x="31.2693" y="44.3158" width="16.0862" height="12.2006" filterUnits="userSpaceOnUse" color-interpolation-filters="sRGB">
<feFlood flood-opacity="0" result="BackgroundImageFix"/>
<feColorMatrix in="SourceAlpha" type="matrix" values="0 0 0 0 0 0 0 0 0 0 0 0 0 0 0 0 0 0 127 0" result="hardAlpha"/>
<feOffset dy="4"/>
<feGaussianBlur stdDeviation="2"/>
<feComposite in2="hardAlpha" operator="out"/>
<feColorMatrix type="matrix" values="0 0 0 0 0 0 0 0 0 0 0 0 0 0 0 0 0 0 0.25 0"/>
<feBlend mode="normal" in2="BackgroundImageFix" result="effect1_dropShadow_154_4022"/>
<feBlend mode="normal" in="SourceGraphic" in2="effect1_dropShadow_154_4022" result="shape"/>
</filter>
<filter id="filter1_d_154_4022" x="34.9451" y="2.52032" width="23.2893" height="50.1105" filterUnits="userSpaceOnUse" color-interpolation-filters="sRGB">
<feFlood flood-opacity="0" result="BackgroundImageFix"/>
<feColorMatrix in="SourceAlpha" type="matrix" values="0 0 0 0 0 0 0 0 0 0 0 0 0 0 0 0 0 0 127 0" result="hardAlpha"/>
<feOffset dy="4"/>
<feGaussianBlur stdDeviation="2"/>
<feComposite in2="hardAlpha" operator="out"/>
<feColorMatrix type="matrix" values="0 0 0 0 0 0 0 0 0 0 0 0 0 0 0 0 0 0 0.25 0"/>
<feBlend mode="normal" in2="BackgroundImageFix" result="effect1_dropShadow_154_4022"/>
<feBlend mode="normal" in="SourceGraphic" in2="effect1_dropShadow_154_4022" result="shape"/>
</filter>
<filter id="filter2_d_154_4022" x="41.981" y="7.66599" width="16.1257" height="27.4276" filterUnits="userSpaceOnUse" color-interpolation-filters="sRGB">
<feFlood flood-opacity="0" result="BackgroundImageFix"/>
<feColorMatrix in="SourceAlpha" type="matrix" values="0 0 0 0 0 0 0 0 0 0 0 0 0 0 0 0 0 0 127 0" result="hardAlpha"/>
<feOffset dy="4"/>
<feGaussianBlur stdDeviation="2"/>
<feComposite in2="hardAlpha" operator="out"/>
<feColorMatrix type="matrix" values="0 0 0 0 0 0 0 0 0 0 0 0 0 0 0 0 0 0 0.25 0"/>
<feBlend mode="normal" in2="BackgroundImageFix" result="effect1_dropShadow_154_4022"/>
<feBlend mode="normal" in="SourceGraphic" in2="effect1_dropShadow_154_4022" result="shape"/>
</filter>
<filter id="filter3_d_154_4022" x="41.7708" y="7.50848" width="16.446" height="27.6901" filterUnits="userSpaceOnUse" color-interpolation-filters="sRGB">
<feFlood flood-opacity="0" result="BackgroundImageFix"/>
<feColorMatrix in="SourceAlpha" type="matrix" values="0 0 0 0 0 0 0 0 0 0 0 0 0 0 0 0 0 0 127 0" result="hardAlpha"/>
<feOffset dy="4"/>
<feGaussianBlur stdDeviation="2"/>
<feComposite in2="hardAlpha" operator="out"/>
<feColorMatrix type="matrix" values="0 0 0 0 0 0 0 0 0 0 0 0 0 0 0 0 0 0 0.25 0"/>
<feBlend mode="normal" in2="BackgroundImageFix" result="effect1_dropShadow_154_4022"/>
<feBlend mode="normal" in="SourceGraphic" in2="effect1_dropShadow_154_4022" result="shape"/>
</filter>
<filter id="filter4_d_154_4022" x="47.6516" y="26.9885" width="10.2053" height="10.6253" filterUnits="userSpaceOnUse" color-interpolation-filters="sRGB">
<feFlood flood-opacity="0" result="BackgroundImageFix"/>
<feColorMatrix in="SourceAlpha" type="matrix" values="0 0 0 0 0 0 0 0 0 0 0 0 0 0 0 0 0 0 127 0" result="hardAlpha"/>
<feOffset dy="4"/>
<feGaussianBlur stdDeviation="2"/>
<feComposite in2="hardAlpha" operator="out"/>
<feColorMatrix type="matrix" values="0 0 0 0 0 0 0 0 0 0 0 0 0 0 0 0 0 0 0.25 0"/>
<feBlend mode="normal" in2="BackgroundImageFix" result="effect1_dropShadow_154_4022"/>
<feBlend mode="normal" in="SourceGraphic" in2="effect1_dropShadow_154_4022" result="shape"/>
</filter>
<filter id="filter5_d_154_4022" x="47.4414" y="26.6735" width="10.6252" height="11.2554" filterUnits="userSpaceOnUse" color-interpolation-filters="sRGB">
<feFlood flood-opacity="0" result="BackgroundImageFix"/>
<feColorMatrix in="SourceAlpha" type="matrix" values="0 0 0 0 0 0 0 0 0 0 0 0 0 0 0 0 0 0 127 0" result="hardAlpha"/>
<feOffset dy="4"/>
<feGaussianBlur stdDeviation="2"/>
<feComposite in2="hardAlpha" operator="out"/>
<feColorMatrix type="matrix" values="0 0 0 0 0 0 0 0 0 0 0 0 0 0 0 0 0 0 0.25 0"/>
<feBlend mode="normal" in2="BackgroundImageFix" result="effect1_dropShadow_154_4022"/>
<feBlend mode="normal" in="SourceGraphic" in2="effect1_dropShadow_154_4022" result="shape"/>
</filter>
<filter id="filter6_d_154_4022" x="47.3364" y="29.2988" width="10.1003" height="10.7303" filterUnits="userSpaceOnUse" color-interpolation-filters="sRGB">
<feFlood flood-opacity="0" result="BackgroundImageFix"/>
<feColorMatrix in="SourceAlpha" type="matrix" values="0 0 0 0 0 0 0 0 0 0 0 0 0 0 0 0 0 0 127 0" result="hardAlpha"/>
<feOffset dy="4"/>
<feGaussianBlur stdDeviation="2"/>
<feComposite in2="hardAlpha" operator="out"/>
<feColorMatrix type="matrix" values="0 0 0 0 0 0 0 0 0 0 0 0 0 0 0 0 0 0 0.25 0"/>
<feBlend mode="normal" in2="BackgroundImageFix" result="effect1_dropShadow_154_4022"/>
<feBlend mode="normal" in="SourceGraphic" in2="effect1_dropShadow_154_4022" result="shape"/>
</filter>
<filter id="filter7_d_154_4022" x="47.1265" y="28.9838" width="10.5203" height="11.4655" filterUnits="userSpaceOnUse" color-interpolation-filters="sRGB">
<feFlood flood-opacity="0" result="BackgroundImageFix"/>
<feColorMatrix in="SourceAlpha" type="matrix" values="0 0 0 0 0 0 0 0 0 0 0 0 0 0 0 0 0 0 127 0" result="hardAlpha"/>
<feOffset dy="4"/>
<feGaussianBlur stdDeviation="2"/>
<feComposite in2="hardAlpha" operator="out"/>
<feColorMatrix type="matrix" values="0 0 0 0 0 0 0 0 0 0 0 0 0 0 0 0 0 0 0.25 0"/>
<feBlend mode="normal" in2="BackgroundImageFix" result="effect1_dropShadow_154_4022"/>
<feBlend mode="normal" in="SourceGraphic" in2="effect1_dropShadow_154_4022" result="shape"/>
</filter>
<filter id="filter8_d_154_4022" x="46.8113" y="31.5041" width="9.89014" height="11.0454" filterUnits="userSpaceOnUse" color-interpolation-filters="sRGB">
<feFlood flood-opacity="0" result="BackgroundImageFix"/>
<feColorMatrix in="SourceAlpha" type="matrix" values="0 0 0 0 0 0 0 0 0 0 0 0 0 0 0 0 0 0 127 0" result="hardAlpha"/>
<feOffset dy="4"/>
<feGaussianBlur stdDeviation="2"/>
<feComposite in2="hardAlpha" operator="out"/>
<feColorMatrix type="matrix" values="0 0 0 0 0 0 0 0 0 0 0 0 0 0 0 0 0 0 0.25 0"/>
<feBlend mode="normal" in2="BackgroundImageFix" result="effect1_dropShadow_154_4022"/>
<feBlend mode="normal" in="SourceGraphic" in2="effect1_dropShadow_154_4022" result="shape"/>
</filter>
<filter id="filter9_d_154_4022" x="46.6013" y="31.1891" width="10.3103" height="11.6755" filterUnits="userSpaceOnUse" color-interpolation-filters="sRGB">
<feFlood flood-opacity="0" result="BackgroundImageFix"/>
<feColorMatrix in="SourceAlpha" type="matrix" values="0 0 0 0 0 0 0 0 0 0 0 0 0 0 0 0 0 0 127 0" result="hardAlpha"/>
<feOffset dy="4"/>
<feGaussianBlur stdDeviation="2"/>
<feComposite in2="hardAlpha" operator="out"/>
<feColorMatrix type="matrix" values="0 0 0 0 0 0 0 0 0 0 0 0 0 0 0 0 0 0 0.25 0"/>
<feBlend mode="normal" in2="BackgroundImageFix" result="effect1_dropShadow_154_4022"/>
<feBlend mode="normal" in="SourceGraphic" in2="effect1_dropShadow_154_4022" result="shape"/>
</filter>
<filter id="filter10_d_154_4022" x="30.1143" y="0.210022" width="13.0408" height="10.5203" filterUnits="userSpaceOnUse" color-interpolation-filters="sRGB">
<feFlood flood-opacity="0" result="BackgroundImageFix"/>
<feColorMatrix in="SourceAlpha" type="matrix" values="0 0 0 0 0 0 0 0 0 0 0 0 0 0 0 0 0 0 127 0" result="hardAlpha"/>
<feOffset dy="4"/>
<feGaussianBlur stdDeviation="2"/>
<feComposite in2="hardAlpha" operator="out"/>
<feColorMatrix type="matrix" values="0 0 0 0 0 0 0 0 0 0 0 0 0 0 0 0 0 0 0.25 0"/>
<feBlend mode="normal" in2="BackgroundImageFix" result="effect1_dropShadow_154_4022"/>
<feBlend mode="normal" in="SourceGraphic" in2="effect1_dropShadow_154_4022" result="shape"/>
</filter>
<filter id="filter11_d_154_4022" x="29.9043" y="0" width="13.4607" height="10.9404" filterUnits="userSpaceOnUse" color-interpolation-filters="sRGB">
<feFlood flood-opacity="0" result="BackgroundImageFix"/>
<feColorMatrix in="SourceAlpha" type="matrix" values="0 0 0 0 0 0 0 0 0 0 0 0 0 0 0 0 0 0 127 0" result="hardAlpha"/>
<feOffset dy="4"/>
<feGaussianBlur stdDeviation="2"/>
<feComposite in2="hardAlpha" operator="out"/>
<feColorMatrix type="matrix" values="0 0 0 0 0 0 0 0 0 0 0 0 0 0 0 0 0 0 0.25 0"/>
<feBlend mode="normal" in2="BackgroundImageFix" result="effect1_dropShadow_154_4022"/>
<feBlend mode="normal" in="SourceGraphic" in2="effect1_dropShadow_154_4022" result="shape"/>
</filter>
<filter id="filter12_d_154_4022" x="39.1455" y="4.51556" width="17.8713" height="19.6565" filterUnits="userSpaceOnUse" color-interpolation-filters="sRGB">
<feFlood flood-opacity="0" result="BackgroundImageFix"/>
<feColorMatrix in="SourceAlpha" type="matrix" values="0 0 0 0 0 0 0 0 0 0 0 0 0 0 0 0 0 0 127 0" result="hardAlpha"/>
<feOffset dy="4"/>
<feGaussianBlur stdDeviation="2"/>
<feComposite in2="hardAlpha" operator="out"/>
<feColorMatrix type="matrix" values="0 0 0 0 0 0 0 0 0 0 0 0 0 0 0 0 0 0 0.25 0"/>
<feBlend mode="normal" in2="BackgroundImageFix" result="effect1_dropShadow_154_4022"/>
<feBlend mode="normal" in="SourceGraphic" in2="effect1_dropShadow_154_4022" result="shape"/>
</filter>
<filter id="filter13_d_154_4022" x="39.0403" y="4.30557" width="18.0813" height="20.0766" filterUnits="userSpaceOnUse" color-interpolation-filters="sRGB">
<feFlood flood-opacity="0" result="BackgroundImageFix"/>
<feColorMatrix in="SourceAlpha" type="matrix" values="0 0 0 0 0 0 0 0 0 0 0 0 0 0 0 0 0 0 127 0" result="hardAlpha"/>
<feOffset dy="4"/>
<feGaussianBlur stdDeviation="2"/>
<feComposite in2="hardAlpha" operator="out"/>
<feColorMatrix type="matrix" values="0 0 0 0 0 0 0 0 0 0 0 0 0 0 0 0 0 0 0.25 0"/>
<feBlend mode="normal" in2="BackgroundImageFix" result="effect1_dropShadow_154_4022"/>
<feBlend mode="normal" in="SourceGraphic" in2="effect1_dropShadow_154_4022" result="shape"/>
</filter>
<filter id="filter14_d_154_4022" x="30.9543" y="47.6762" width="8.73511" height="9.36517" filterUnits="userSpaceOnUse" color-interpolation-filters="sRGB">
<feFlood flood-opacity="0" result="BackgroundImageFix"/>
<feColorMatrix in="SourceAlpha" type="matrix" values="0 0 0 0 0 0 0 0 0 0 0 0 0 0 0 0 0 0 127 0" result="hardAlpha"/>
<feOffset dy="4"/>
<feGaussianBlur stdDeviation="2"/>
<feComposite in2="hardAlpha" operator="out"/>
<feColorMatrix type="matrix" values="0 0 0 0 0 0 0 0 0 0 0 0 0 0 0 0 0 0 0.25 0"/>
<feBlend mode="normal" in2="BackgroundImageFix" result="effect1_dropShadow_154_4022"/>
<feBlend mode="normal" in="SourceGraphic" in2="effect1_dropShadow_154_4022" result="shape"/>
</filter>
<filter id="filter15_d_154_4022" x="30.2192" y="47.7812" width="8.63013" height="9.47021" filterUnits="userSpaceOnUse" color-interpolation-filters="sRGB">
<feFlood flood-opacity="0" result="BackgroundImageFix"/>
<feColorMatrix in="SourceAlpha" type="matrix" values="0 0 0 0 0 0 0 0 0 0 0 0 0 0 0 0 0 0 127 0" result="hardAlpha"/>
<feOffset dy="4"/>
<feGaussianBlur stdDeviation="2"/>
<feComposite in2="hardAlpha" operator="out"/>
<feColorMatrix type="matrix" values="0 0 0 0 0 0 0 0 0 0 0 0 0 0 0 0 0 0 0.25 0"/>
<feBlend mode="normal" in2="BackgroundImageFix" result="effect1_dropShadow_154_4022"/>
<feBlend mode="normal" in="SourceGraphic" in2="effect1_dropShadow_154_4022" result="shape"/>
</filter>
<filter id="filter16_d_154_4022" x="29.5891" y="47.9912" width="8.52515" height="9.47018" filterUnits="userSpaceOnUse" color-interpolation-filters="sRGB">
<feFlood flood-opacity="0" result="BackgroundImageFix"/>
<feColorMatrix in="SourceAlpha" type="matrix" values="0 0 0 0 0 0 0 0 0 0 0 0 0 0 0 0 0 0 127 0" result="hardAlpha"/>
<feOffset dy="4"/>
<feGaussianBlur stdDeviation="2"/>
<feComposite in2="hardAlpha" operator="out"/>
<feColorMatrix type="matrix" values="0 0 0 0 0 0 0 0 0 0 0 0 0 0 0 0 0 0 0.25 0"/>
<feBlend mode="normal" in2="BackgroundImageFix" result="effect1_dropShadow_154_4022"/>
<feBlend mode="normal" in="SourceGraphic" in2="effect1_dropShadow_154_4022" result="shape"/>
</filter>
<filter id="filter17_d_154_4022" x="10.8967" y="44.3158" width="16.0862" height="12.2006" filterUnits="userSpaceOnUse" color-interpolation-filters="sRGB">
<feFlood flood-opacity="0" result="BackgroundImageFix"/>
<feColorMatrix in="SourceAlpha" type="matrix" values="0 0 0 0 0 0 0 0 0 0 0 0 0 0 0 0 0 0 127 0" result="hardAlpha"/>
<feOffset dy="4"/>
<feGaussianBlur stdDeviation="2"/>
<feComposite in2="hardAlpha" operator="out"/>
<feColorMatrix type="matrix" values="0 0 0 0 0 0 0 0 0 0 0 0 0 0 0 0 0 0 0.25 0"/>
<feBlend mode="normal" in2="BackgroundImageFix" result="effect1_dropShadow_154_4022"/>
<feBlend mode="normal" in="SourceGraphic" in2="effect1_dropShadow_154_4022" result="shape"/>
</filter>
<filter id="filter18_d_154_4022" x="0.0180664" y="2.52032" width="23.2893" height="50.1105" filterUnits="userSpaceOnUse" color-interpolation-filters="sRGB">
<feFlood flood-opacity="0" result="BackgroundImageFix"/>
<feColorMatrix in="SourceAlpha" type="matrix" values="0 0 0 0 0 0 0 0 0 0 0 0 0 0 0 0 0 0 127 0" result="hardAlpha"/>
<feOffset dy="4"/>
<feGaussianBlur stdDeviation="2"/>
<feComposite in2="hardAlpha" operator="out"/>
<feColorMatrix type="matrix" values="0 0 0 0 0 0 0 0 0 0 0 0 0 0 0 0 0 0 0.25 0"/>
<feBlend mode="normal" in2="BackgroundImageFix" result="effect1_dropShadow_154_4022"/>
<feBlend mode="normal" in="SourceGraphic" in2="effect1_dropShadow_154_4022" result="shape"/>
</filter>
<filter id="filter19_d_154_4022" x="0.140625" y="7.66599" width="16.1309" height="27.4276" filterUnits="userSpaceOnUse" color-interpolation-filters="sRGB">
<feFlood flood-opacity="0" result="BackgroundImageFix"/>
<feColorMatrix in="SourceAlpha" type="matrix" values="0 0 0 0 0 0 0 0 0 0 0 0 0 0 0 0 0 0 127 0" result="hardAlpha"/>
<feOffset dy="4"/>
<feGaussianBlur stdDeviation="2"/>
<feComposite in2="hardAlpha" operator="out"/>
<feColorMatrix type="matrix" values="0 0 0 0 0 0 0 0 0 0 0 0 0 0 0 0 0 0 0.25 0"/>
<feBlend mode="normal" in2="BackgroundImageFix" result="effect1_dropShadow_154_4022"/>
<feBlend mode="normal" in="SourceGraphic" in2="effect1_dropShadow_154_4022" result="shape"/>
</filter>
<filter id="filter20_d_154_4022" x="0" y="7.50848" width="16.4814" height="27.6901" filterUnits="userSpaceOnUse" color-interpolation-filters="sRGB">
<feFlood flood-opacity="0" result="BackgroundImageFix"/>
<feColorMatrix in="SourceAlpha" type="matrix" values="0 0 0 0 0 0 0 0 0 0 0 0 0 0 0 0 0 0 127 0" result="hardAlpha"/>
<feOffset dy="4"/>
<feGaussianBlur stdDeviation="2"/>
<feComposite in2="hardAlpha" operator="out"/>
<feColorMatrix type="matrix" values="0 0 0 0 0 0 0 0 0 0 0 0 0 0 0 0 0 0 0.25 0"/>
<feBlend mode="normal" in2="BackgroundImageFix" result="effect1_dropShadow_154_4022"/>
<feBlend mode="normal" in="SourceGraphic" in2="effect1_dropShadow_154_4022" result="shape"/>
</filter>
<filter id="filter21_d_154_4022" x="0.395508" y="26.9885" width="10.2053" height="10.6253" filterUnits="userSpaceOnUse" color-interpolation-filters="sRGB">
<feFlood flood-opacity="0" result="BackgroundImageFix"/>
<feColorMatrix in="SourceAlpha" type="matrix" values="0 0 0 0 0 0 0 0 0 0 0 0 0 0 0 0 0 0 127 0" result="hardAlpha"/>
<feOffset dy="4"/>
<feGaussianBlur stdDeviation="2"/>
<feComposite in2="hardAlpha" operator="out"/>
<feColorMatrix type="matrix" values="0 0 0 0 0 0 0 0 0 0 0 0 0 0 0 0 0 0 0.25 0"/>
<feBlend mode="normal" in2="BackgroundImageFix" result="effect1_dropShadow_154_4022"/>
<feBlend mode="normal" in="SourceGraphic" in2="effect1_dropShadow_154_4022" result="shape"/>
</filter>
<filter id="filter22_d_154_4022" x="0.185303" y="26.6735" width="10.6252" height="11.2554" filterUnits="userSpaceOnUse" color-interpolation-filters="sRGB">
<feFlood flood-opacity="0" result="BackgroundImageFix"/>
<feColorMatrix in="SourceAlpha" type="matrix" values="0 0 0 0 0 0 0 0 0 0 0 0 0 0 0 0 0 0 127 0" result="hardAlpha"/>
<feOffset dy="4"/>
<feGaussianBlur stdDeviation="2"/>
<feComposite in2="hardAlpha" operator="out"/>
<feColorMatrix type="matrix" values="0 0 0 0 0 0 0 0 0 0 0 0 0 0 0 0 0 0 0.25 0"/>
<feBlend mode="normal" in2="BackgroundImageFix" result="effect1_dropShadow_154_4022"/>
<feBlend mode="normal" in="SourceGraphic" in2="effect1_dropShadow_154_4022" result="shape"/>
</filter>
<filter id="filter23_d_154_4022" x="0.81543" y="29.2988" width="10.1003" height="10.7303" filterUnits="userSpaceOnUse" color-interpolation-filters="sRGB">
<feFlood flood-opacity="0" result="BackgroundImageFix"/>
<feColorMatrix in="SourceAlpha" type="matrix" values="0 0 0 0 0 0 0 0 0 0 0 0 0 0 0 0 0 0 127 0" result="hardAlpha"/>
<feOffset dy="4"/>
<feGaussianBlur stdDeviation="2"/>
<feComposite in2="hardAlpha" operator="out"/>
<feColorMatrix type="matrix" values="0 0 0 0 0 0 0 0 0 0 0 0 0 0 0 0 0 0 0.25 0"/>
<feBlend mode="normal" in2="BackgroundImageFix" result="effect1_dropShadow_154_4022"/>
<feBlend mode="normal" in="SourceGraphic" in2="effect1_dropShadow_154_4022" result="shape"/>
</filter>
<filter id="filter24_d_154_4022" x="0.605225" y="28.9838" width="10.5203" height="11.4655" filterUnits="userSpaceOnUse" color-interpolation-filters="sRGB">
<feFlood flood-opacity="0" result="BackgroundImageFix"/>
<feColorMatrix in="SourceAlpha" type="matrix" values="0 0 0 0 0 0 0 0 0 0 0 0 0 0 0 0 0 0 127 0" result="hardAlpha"/>
<feOffset dy="4"/>
<feGaussianBlur stdDeviation="2"/>
<feComposite in2="hardAlpha" operator="out"/>
<feColorMatrix type="matrix" values="0 0 0 0 0 0 0 0 0 0 0 0 0 0 0 0 0 0 0.25 0"/>
<feBlend mode="normal" in2="BackgroundImageFix" result="effect1_dropShadow_154_4022"/>
<feBlend mode="normal" in="SourceGraphic" in2="effect1_dropShadow_154_4022" result="shape"/>
</filter>
<filter id="filter25_d_154_4022" x="1.55054" y="31.5041" width="9.89014" height="11.0454" filterUnits="userSpaceOnUse" color-interpolation-filters="sRGB">
<feFlood flood-opacity="0" result="BackgroundImageFix"/>
<feColorMatrix in="SourceAlpha" type="matrix" values="0 0 0 0 0 0 0 0 0 0 0 0 0 0 0 0 0 0 127 0" result="hardAlpha"/>
<feOffset dy="4"/>
<feGaussianBlur stdDeviation="2"/>
<feComposite in2="hardAlpha" operator="out"/>
<feColorMatrix type="matrix" values="0 0 0 0 0 0 0 0 0 0 0 0 0 0 0 0 0 0 0.25 0"/>
<feBlend mode="normal" in2="BackgroundImageFix" result="effect1_dropShadow_154_4022"/>
<feBlend mode="normal" in="SourceGraphic" in2="effect1_dropShadow_154_4022" result="shape"/>
</filter>
<filter id="filter26_d_154_4022" x="1.34058" y="31.1891" width="10.3103" height="11.6755" filterUnits="userSpaceOnUse" color-interpolation-filters="sRGB">
<feFlood flood-opacity="0" result="BackgroundImageFix"/>
<feColorMatrix in="SourceAlpha" type="matrix" values="0 0 0 0 0 0 0 0 0 0 0 0 0 0 0 0 0 0 127 0" result="hardAlpha"/>
<feOffset dy="4"/>
<feGaussianBlur stdDeviation="2"/>
<feComposite in2="hardAlpha" operator="out"/>
<feColorMatrix type="matrix" values="0 0 0 0 0 0 0 0 0 0 0 0 0 0 0 0 0 0 0.25 0"/>
<feBlend mode="normal" in2="BackgroundImageFix" result="effect1_dropShadow_154_4022"/>
<feBlend mode="normal" in="SourceGraphic" in2="effect1_dropShadow_154_4022" result="shape"/>
</filter>
<filter id="filter27_d_154_4022" x="15.0972" y="0.210022" width="13.0405" height="10.5203" filterUnits="userSpaceOnUse" color-interpolation-filters="sRGB">
<feFlood flood-opacity="0" result="BackgroundImageFix"/>
<feColorMatrix in="SourceAlpha" type="matrix" values="0 0 0 0 0 0 0 0 0 0 0 0 0 0 0 0 0 0 127 0" result="hardAlpha"/>
<feOffset dy="4"/>
<feGaussianBlur stdDeviation="2"/>
<feComposite in2="hardAlpha" operator="out"/>
<feColorMatrix type="matrix" values="0 0 0 0 0 0 0 0 0 0 0 0 0 0 0 0 0 0 0.25 0"/>
<feBlend mode="normal" in2="BackgroundImageFix" result="effect1_dropShadow_154_4022"/>
<feBlend mode="normal" in="SourceGraphic" in2="effect1_dropShadow_154_4022" result="shape"/>
</filter>
<filter id="filter28_d_154_4022" x="14.8872" y="0" width="13.4607" height="10.9404" filterUnits="userSpaceOnUse" color-interpolation-filters="sRGB">
<feFlood flood-opacity="0" result="BackgroundImageFix"/>
<feColorMatrix in="SourceAlpha" type="matrix" values="0 0 0 0 0 0 0 0 0 0 0 0 0 0 0 0 0 0 127 0" result="hardAlpha"/>
<feOffset dy="4"/>
<feGaussianBlur stdDeviation="2"/>
<feComposite in2="hardAlpha" operator="out"/>
<feColorMatrix type="matrix" values="0 0 0 0 0 0 0 0 0 0 0 0 0 0 0 0 0 0 0.25 0"/>
<feBlend mode="normal" in2="BackgroundImageFix" result="effect1_dropShadow_154_4022"/>
<feBlend mode="normal" in="SourceGraphic" in2="effect1_dropShadow_154_4022" result="shape"/>
</filter>
<filter id="filter29_d_154_4022" x="1.23535" y="4.51556" width="17.8713" height="19.6565" filterUnits="userSpaceOnUse" color-interpolation-filters="sRGB">
<feFlood flood-opacity="0" result="BackgroundImageFix"/>
<feColorMatrix in="SourceAlpha" type="matrix" values="0 0 0 0 0 0 0 0 0 0 0 0 0 0 0 0 0 0 127 0" result="hardAlpha"/>
<feOffset dy="4"/>
<feGaussianBlur stdDeviation="2"/>
<feComposite in2="hardAlpha" operator="out"/>
<feColorMatrix type="matrix" values="0 0 0 0 0 0 0 0 0 0 0 0 0 0 0 0 0 0 0.25 0"/>
<feBlend mode="normal" in2="BackgroundImageFix" result="effect1_dropShadow_154_4022"/>
<feBlend mode="normal" in="SourceGraphic" in2="effect1_dropShadow_154_4022" result="shape"/>
</filter>
<filter id="filter30_d_154_4022" x="1.13037" y="4.30557" width="18.0813" height="20.0766" filterUnits="userSpaceOnUse" color-interpolation-filters="sRGB">
<feFlood flood-opacity="0" result="BackgroundImageFix"/>
<feColorMatrix in="SourceAlpha" type="matrix" values="0 0 0 0 0 0 0 0 0 0 0 0 0 0 0 0 0 0 127 0" result="hardAlpha"/>
<feOffset dy="4"/>
<feGaussianBlur stdDeviation="2"/>
<feComposite in2="hardAlpha" operator="out"/>
<feColorMatrix type="matrix" values="0 0 0 0 0 0 0 0 0 0 0 0 0 0 0 0 0 0 0.25 0"/>
<feBlend mode="normal" in2="BackgroundImageFix" result="effect1_dropShadow_154_4022"/>
<feBlend mode="normal" in="SourceGraphic" in2="effect1_dropShadow_154_4022" result="shape"/>
</filter>
<filter id="filter31_d_154_4022" x="18.5627" y="47.6762" width="8.73511" height="9.36517" filterUnits="userSpaceOnUse" color-interpolation-filters="sRGB">
<feFlood flood-opacity="0" result="BackgroundImageFix"/>
<feColorMatrix in="SourceAlpha" type="matrix" values="0 0 0 0 0 0 0 0 0 0 0 0 0 0 0 0 0 0 127 0" result="hardAlpha"/>
<feOffset dy="4"/>
<feGaussianBlur stdDeviation="2"/>
<feComposite in2="hardAlpha" operator="out"/>
<feColorMatrix type="matrix" values="0 0 0 0 0 0 0 0 0 0 0 0 0 0 0 0 0 0 0.25 0"/>
<feBlend mode="normal" in2="BackgroundImageFix" result="effect1_dropShadow_154_4022"/>
<feBlend mode="normal" in="SourceGraphic" in2="effect1_dropShadow_154_4022" result="shape"/>
</filter>
<filter id="filter32_d_154_4022" x="19.2979" y="47.7812" width="8.73511" height="9.47021" filterUnits="userSpaceOnUse" color-interpolation-filters="sRGB">
<feFlood flood-opacity="0" result="BackgroundImageFix"/>
<feColorMatrix in="SourceAlpha" type="matrix" values="0 0 0 0 0 0 0 0 0 0 0 0 0 0 0 0 0 0 127 0" result="hardAlpha"/>
<feOffset dy="4"/>
<feGaussianBlur stdDeviation="2"/>
<feComposite in2="hardAlpha" operator="out"/>
<feColorMatrix type="matrix" values="0 0 0 0 0 0 0 0 0 0 0 0 0 0 0 0 0 0 0.25 0"/>
<feBlend mode="normal" in2="BackgroundImageFix" result="effect1_dropShadow_154_4022"/>
<feBlend mode="normal" in="SourceGraphic" in2="effect1_dropShadow_154_4022" result="shape"/>
</filter>
<filter id="filter33_d_154_4022" x="20.1379" y="47.9912" width="8.52515" height="9.47018" filterUnits="userSpaceOnUse" color-interpolation-filters="sRGB">
<feFlood flood-opacity="0" result="BackgroundImageFix"/>
<feColorMatrix in="SourceAlpha" type="matrix" values="0 0 0 0 0 0 0 0 0 0 0 0 0 0 0 0 0 0 127 0" result="hardAlpha"/>
<feOffset dy="4"/>
<feGaussianBlur stdDeviation="2"/>
<feComposite in2="hardAlpha" operator="out"/>
<feColorMatrix type="matrix" values="0 0 0 0 0 0 0 0 0 0 0 0 0 0 0 0 0 0 0.25 0"/>
<feBlend mode="normal" in2="BackgroundImageFix" result="effect1_dropShadow_154_4022"/>
<feBlend mode="normal" in="SourceGraphic" in2="effect1_dropShadow_154_4022" result="shape"/>
</filter>
</defs>
</svg>
